<svg xmlns="http://www.w3.org/2000/svg" width="25.078" height="22.578" viewBox="0 0 25.078 22.578">
  <path id="Icon_material-storefront" data-name="Icon material-storefront" d="M27.962,11.888,26.645,6.407a2.464,2.464,0,0,0-2.4-1.907H6.827A2.463,2.463,0,0,0,4.444,6.407L3.127,11.888A4.233,4.233,0,0,0,3.9,15.5a4.808,4.808,0,0,0,.351.364v8.7a2.516,2.516,0,0,0,2.509,2.509h17.56a2.516,2.516,0,0,0,2.509-2.509v-8.7a4.639,4.639,0,0,0,.351-.351A4.219,4.219,0,0,0,27.962,11.888ZM24.212,7l1.317,5.481a1.7,1.7,0,0,1-.314,1.468,1.472,1.472,0,0,1-1.179.59,1.568,1.568,0,0,1-1.518-1.43l-.728-6.1L24.212,7ZM16.8,7.009h2.458l.677,5.67a1.686,1.686,0,0,1-.414,1.342,1.5,1.5,0,0,1-1.192.514,1.6,1.6,0,0,1-1.53-1.643Zm-5.657,5.67.69-5.67H14.29v5.883a1.612,1.612,0,0,1-1.618,1.643,1.509,1.509,0,0,1-1.116-.514,1.781,1.781,0,0,1-.414-1.342Zm-5.582-.2L6.827,7.009H9.3L8.57,13.1a1.577,1.577,0,0,1-1.518,1.43,1.444,1.444,0,0,1-1.167-.59,1.659,1.659,0,0,1-.326-1.468Zm1.2,12.092V17.006a2.271,2.271,0,0,0,.288.038,3.925,3.925,0,0,0,2.81-1.192,4.034,4.034,0,0,0,2.9,1.192,3.977,3.977,0,0,0,2.8-1.167,4.111,4.111,0,0,0,2.872,1.167,3.983,3.983,0,0,0,2.81-1.192,3.925,3.925,0,0,0,2.81,1.192,2.271,2.271,0,0,0,.288-.038v7.564Z" transform="translate(-3.008 -4.5)" fill="#0f47a3"/>
</svg>
