<?xml version="1.0" encoding="UTF-8"?>
<svg xmlns="http://www.w3.org/2000/svg" id="hd_dl_logo" width="235.451" height="101.663" viewBox="0 0 235.451 101.663">
  <g id="Layer_1" data-name="Layer 1">
    <path id="Path_382" data-name="Path 382" d="M0,84.9V22.949L46.351,69.718V23.9l6.6-3.536v65.4L6.6,39V84.9Z" transform="translate(0 -6.877)" fill="#99ce7e"></path>
    <path id="Path_383" data-name="Path 383" d="M96.229,23.815V78.584h16.4v6.238H89.64V20.12Z" transform="translate(-30.276 -6.795)" fill="#27b998"></path>
    <path id="Path_384" data-name="Path 384" d="M69.97,11.325V5.331L80.05,0l9.523,5.245v6.079L80,6Z" transform="translate(-23.632)" fill="#4ac1e0"></path>
    <path id="Path_385" data-name="Path 385" d="M1.689,138.886a3.411,3.411,0,0,1,2.119.583,2.3,2.3,0,0,1,.828,1.914,2.106,2.106,0,0,1-.914,1.821,2.318,2.318,0,0,1,1.762,2.331,2.53,2.53,0,0,1-.947,1.987,3.364,3.364,0,0,1-2.219.609H0V138.86Zm-.662,4.066h.8c.536,0,1.815-.113,1.815-1.543s-1.5-1.55-1.788-1.55H1.046Zm0,4.219h1.2a2.543,2.543,0,0,0,1.629-.391,1.57,1.57,0,0,0,.609-1.278,1.49,1.49,0,0,0-.795-1.325,3.226,3.226,0,0,0-1.563-.278H1.046Z" transform="translate(0 -46.899)" fill="#939291"></path>
    <path id="Path_386" data-name="Path 386" d="M14.252,144.576a2.632,2.632,0,0,0,.735,2.245,2.464,2.464,0,0,0,3.053,0,2.632,2.632,0,0,0,.735-2.245V138.9H19.8v5.96a3.6,3.6,0,0,1-.583,2.219,3.272,3.272,0,0,1-2.709,1.252,3.272,3.272,0,0,1-2.7-1.252,3.6,3.6,0,0,1-.583-2.219V138.9h1.026Z" transform="translate(-4.464 -46.913)" fill="#939291"></path>
    <path id="Path_387" data-name="Path 387" d="M32.746,140.653a2.172,2.172,0,0,0-.543-.662,1.649,1.649,0,0,0-1.04-.318,1.424,1.424,0,0,0-1.556,1.424.974.974,0,0,0,.351.808,3.02,3.02,0,0,0,.967.583l.894.391a4.364,4.364,0,0,1,1.424.874,2.205,2.205,0,0,1,.662,1.675,2.781,2.781,0,0,1-2.927,2.848,2.748,2.748,0,0,1-1.987-.755,3.357,3.357,0,0,1-.861-1.636l1-.278a2.166,2.166,0,0,0,.556,1.179,1.894,1.894,0,0,0,3.192-1.324,1.384,1.384,0,0,0-.457-1.079,3.973,3.973,0,0,0-1.113-.662l-.834-.391a4.211,4.211,0,0,1-1.232-.762,1.927,1.927,0,0,1-.662-1.517,2.4,2.4,0,0,1,2.6-2.384,2.5,2.5,0,0,1,1.483.417,2.821,2.821,0,0,1,.907,1.026Z" transform="translate(-9.501 -46.831)" fill="#939291"></path>
    <path id="Path_388" data-name="Path 388" d="M43.033,138.9v9.272H42V138.9Z" transform="translate(-14.185 -46.913)" fill="#939291"></path>
    <path id="Path_389" data-name="Path 389" d="M49.26,147.952V138.31l7.212,7.563V138.7H57.5v9.669l-7.212-7.556v7.139Z" transform="translate(-16.637 -46.714)" fill="#939291"></path>
    <path id="Path_390" data-name="Path 390" d="M71.788,139.87H68.013v2.748h3.662v.98H68.013v3.6h3.775v.967H67V138.89h4.8Z" transform="translate(-22.629 -46.91)" fill="#939291"></path>
    <path id="Path_391" data-name="Path 391" d="M82.839,140.639a2.245,2.245,0,0,0-.536-.662,1.689,1.689,0,0,0-1.046-.318,1.417,1.417,0,0,0-1.55,1.424.967.967,0,0,0,.344.808,2.981,2.981,0,0,0,.974.583l.887.391a4.4,4.4,0,0,1,1.457.841,2.225,2.225,0,0,1,.662,1.675,2.967,2.967,0,0,1-4.967,2.1,3.311,3.311,0,0,1-.854-1.636l.993-.278a2.166,2.166,0,0,0,.556,1.179,1.894,1.894,0,0,0,3.192-1.324,1.384,1.384,0,0,0-.457-1.079,3.88,3.88,0,0,0-1.113-.662l-.828-.391a4.152,4.152,0,0,1-1.238-.762,1.927,1.927,0,0,1-.662-1.517,2.391,2.391,0,0,1,2.6-2.384,2.517,2.517,0,0,1,1.483.417,2.868,2.868,0,0,1,.9,1.026Z" transform="translate(-26.415 -46.817)" fill="#939291"></path>
    <path id="Path_392" data-name="Path 392" d="M95.342,140.639a2.264,2.264,0,0,0-.543-.662,1.649,1.649,0,0,0-1.04-.318,1.424,1.424,0,0,0-1.536,1.391.974.974,0,0,0,.351.808,3.02,3.02,0,0,0,.967.583l.887.391a4.324,4.324,0,0,1,1.43.874,2.232,2.232,0,0,1,.662,1.675,2.781,2.781,0,0,1-2.927,2.848,2.748,2.748,0,0,1-2.033-.748,3.358,3.358,0,0,1-.861-1.636l1-.278a2.119,2.119,0,0,0,.556,1.179,1.894,1.894,0,0,0,3.192-1.325,1.371,1.371,0,0,0-.464-1.079,3.834,3.834,0,0,0-1.106-.662l-.834-.391a4.212,4.212,0,0,1-1.232-.762,1.927,1.927,0,0,1-.662-1.517,2.4,2.4,0,0,1,2.6-2.384,2.5,2.5,0,0,1,1.483.417,2.748,2.748,0,0,1,.9,1.026Z" transform="translate(-30.634 -46.817)" fill="#939291"></path>
    <path id="Path_393" data-name="Path 393" d="M112.406,138.89v8.285h2.556v.967H111.38V138.87Z" transform="translate(-37.618 -46.903)" fill="#939291"></path>
    <path id="Path_394" data-name="Path 394" d="M125.788,139.87h-3.775v2.748h3.662v.98h-3.662v3.6h3.775v.967H121V138.89h4.8Z" transform="translate(-40.867 -46.91)" fill="#939291"></path>
    <path id="Path_395" data-name="Path 395" d="M133.17,147.952V138.31l7.212,7.563V138.7h1.026v9.669l-7.212-7.556v7.139Z" transform="translate(-44.978 -46.714)" fill="#939291"></path>
    <path id="Path_396" data-name="Path 396" d="M151.31,138.9H153.2a5.053,5.053,0,0,1,3.411,1.079,4.51,4.51,0,0,1,1.583,3.556,4.417,4.417,0,0,1-1.623,3.55,4.636,4.636,0,0,1-3.384,1.066H151.31Zm1.026,8.285h.9a3.973,3.973,0,0,0,2.649-.834,3.705,3.705,0,0,0-2.649-6.477h-.9Z" transform="translate(-51.104 -46.909)" fill="#939291"></path>
    <path id="Path_397" data-name="Path 397" d="M166.826,138.9v9.272H165.8V138.9Z" transform="translate(-55.998 -46.913)" fill="#939291"></path>
    <path id="Path_398" data-name="Path 398" d="M172.63,147.952V138.31l7.212,7.563V138.7h1.027v9.669l-7.212-7.556v7.139Z" transform="translate(-58.305 -46.714)" fill="#939291"></path>
    <path id="Path_399" data-name="Path 399" d="M194.472,143.431h3.881v.219a5.093,5.093,0,0,1-.887,2.927,4.146,4.146,0,0,1-3.437,1.669,4.788,4.788,0,1,1,0-9.576,4.636,4.636,0,0,1,2.828.914,5.363,5.363,0,0,1,1.066,1.1l-.762.662a4.941,4.941,0,0,0-.874-.96,3.417,3.417,0,0,0-2.245-.775,3.815,3.815,0,0,0,0,7.629,3.219,3.219,0,0,0,2.828-1.556,3.007,3.007,0,0,0,.378-1.324H194.5Z" transform="translate(-63.915 -46.835)" fill="#939291"></path>
    <path id="Path_400" data-name="Path 400" d="M217.081,138.89a5.4,5.4,0,0,1,3.444.9,4.576,4.576,0,0,1,1.775,3.735,4.4,4.4,0,0,1-1.861,3.728,5.3,5.3,0,0,1-3.384.887H214.67V138.87Zm-.609,7.7h.556a3.854,3.854,0,0,0,2.258-.609,2.993,2.993,0,0,0,1.152-2.457,3.08,3.08,0,0,0-1.132-2.47,3.775,3.775,0,0,0-2.278-.609h-.556Z" transform="translate(-72.504 -46.903)" fill="#939291"></path>
    <path id="Path_401" data-name="Path 401" d="M239.171,143.428a4.94,4.94,0,1,1-4.94-4.841,4.689,4.689,0,0,1,4.94,4.841Zm-1.861,0a3.079,3.079,0,1,0-3.079,3.192,3.02,3.02,0,0,0,3.079-3.192Z" transform="translate(-77.442 -46.805)" fill="#939291"></path>
    <path id="Path_402" data-name="Path 402" d="M248.18,148.142V138.87h1.252l5.629,6.172V138.89h1.808v9.272h-1.252l-5.629-6.185v6.185Z" transform="translate(-83.822 -46.903)" fill="#939291"></path>
    <path id="Path_403" data-name="Path 403" d="M271.7,140.446h-3.311v2.066h3.192v1.556h-3.212v2.523h3.311v1.55H266.54V138.87h5.139Z" transform="translate(-90.023 -46.903)" fill="#939291"></path>
    <path id="Path_404" data-name="Path 404" d="M288.7,138.873a3.391,3.391,0,0,1,2.358.662,2.649,2.649,0,0,1,.914,2.079,2.523,2.523,0,0,1-1.079,2.179,2.649,2.649,0,0,1-1.013.4l2.881,3.894h-2.245l-2.47-3.715h-.219v3.715H286V138.82Zm-.874,4.258h.51c.344,0,1.775-.04,1.775-1.4s-1.411-1.391-1.748-1.391h-.536Z" transform="translate(-96.595 -46.886)" fill="#939291"></path>
    <path id="Path_405" data-name="Path 405" d="M301.951,138.9v9.272h-1.8V138.9Z" transform="translate(-101.374 -46.913)" fill="#939291"></path>
    <path id="Path_406" data-name="Path 406" d="M312.2,143.108h4.245v.113a5.557,5.557,0,0,1-1.358,3.834,5.086,5.086,0,0,1-6.623,0,4.928,4.928,0,0,1-1.377-3.563,4.762,4.762,0,0,1,1.358-3.444,4.947,4.947,0,0,1,3.656-1.411,4.444,4.444,0,0,1,2.132.483,4.338,4.338,0,0,1,1.735,1.7l-1.57.841a2.51,2.51,0,0,0-1.079-1.093,3.072,3.072,0,0,0-1.325-.291,3.159,3.159,0,0,0-2.139.815,3.477,3.477,0,0,0-.927,2.444,3.145,3.145,0,0,0,.914,2.344,2.841,2.841,0,0,0,2.053.795,3.093,3.093,0,0,0,1.821-.556,2.483,2.483,0,0,0,.874-1.417H312.2Z" transform="translate(-103.717 -46.823)" fill="#939291"></path>
    <path id="Path_407" data-name="Path 407" d="M327.008,142.483h3.907V138.9h1.808v9.272h-1.808v-4.119h-3.907v4.119H325.2V138.9h1.808Z" transform="translate(-109.835 -46.913)" fill="#939291"></path>
    <path id="Path_408" data-name="Path 408" d="M344.251,140.456v7.7h-1.8v-7.7H340.37V138.9h5.96v1.556Z" transform="translate(-114.959 -46.913)" fill="#939291"></path>
    <path id="Path_409" data-name="Path 409" d="M351.989,139.094v1.285H351.7v-1.285h-.344v-.265h.974v.265Zm.43,1.285.338-1.689.517,1.139.517-1.139.331,1.689h-.291l-.139-.841-.417.868-.417-.868-.146.841Z" transform="translate(-118.67 -46.842)" fill="#939291"></path>
    <path id="Path_410" data-name="Path 410" d="M148.08,72.4V56.33l13.351,13.98V56.5h1.053V72.814l-13.358-13.98V72.4Z" transform="translate(-50.013 -19.025)" fill="#5e5f5f"></path>
    <path id="Path_411" data-name="Path 411" d="M191.179,57.527H184.6V63.3h6.444v.954H184.6v7.285h6.583v.96H183.55V56.6h7.629Z" transform="translate(-61.993 -19.116)" fill="#5e5f5f"></path>
    <path id="Path_412" data-name="Path 412" d="M206.412,56.161,210.8,69.678l5.748-14.358,5.391,14.358,5.007-13.517h1.146l-6.126,16.5-5.417-14.457-5.914,14.457-5.371-16.5Z" transform="translate(-69.326 -18.684)" fill="#5e5f5f"></path>
    <path id="Path_413" data-name="Path 413" d="M253.09,56.59V70.206h4.676v2.285H250.66V56.6Z" transform="translate(-84.659 -19.113)" fill="#5e5f5f"></path>
    <path id="Path_414" data-name="Path 414" d="M281.655,68.18h-6.8l-1.735,3.834H270.47l7.947-16.834,7.53,16.834H283.3Zm-.98-2.291L278.311,60.5l-2.45,5.391Z" transform="translate(-91.35 -18.637)" fill="#5e5f5f"></path>
    <path id="Path_415" data-name="Path 415" d="M302.7,71.954V55l11.543,12.093V56.053h2.43V72.934L305.13,60.841V71.954Z" transform="translate(-102.236 -18.576)" fill="#5e5f5f"></path>
    <path id="Path_416" data-name="Path 416" d="M344.925,58.852h-6.344v4.033h6.159V65.17h-6.159v5.013h6.344v2.311H336.15V56.6h8.775Z" transform="translate(-113.533 -19.116)" fill="#5e5f5f"></path>
    <path id="Path_417" data-name="Path 417" d="M154.714,94.777h-5.391v5.8h5.245v.954h-5.245v8.232H148.27V93.87h6.444Z" transform="translate(-50.078 -31.704)" fill="#5e5f5f"></path>
    <path id="Path_418" data-name="Path 418" d="M170.4,93.8v15.894H169.35V93.8Z" transform="translate(-57.197 -31.681)" fill="#5e5f5f"></path>
    <path id="Path_419" data-name="Path 419" d="M184.58,109.623V93.55l13.351,13.974V93.716h1.053v16.311L185.626,96.053v13.57Z" transform="translate(-62.341 -31.596)" fill="#5e5f5f"></path>
    <path id="Path_420" data-name="Path 420" d="M227.246,104.239h-6.775l-2.126,5.225H217.2l6.7-16.384,6.623,16.384h-1.146Zm-.384-.954-2.98-7.536-3.033,7.536Z" transform="translate(-73.358 -31.437)" fill="#5e5f5f"></path>
    <path id="Path_421" data-name="Path 421" d="M248.18,109.623V93.55l13.351,13.974V93.716h1.053v16.311L249.226,96.053v13.57Z" transform="translate(-83.822 -31.596)" fill="#5e5f5f"></path>
    <path id="Path_422" data-name="Path 422" d="M295.216,96.94a7.027,7.027,0,0,0-5.364-2.5,7.238,7.238,0,0,0,0,14.47,7.4,7.4,0,0,0,5.344-2.4v1.384a7.987,7.987,0,0,1-5.3,1.987,8.192,8.192,0,1,1-.053-16.384,7.729,7.729,0,0,1,5.344,2.073Z" transform="translate(-95.136 -31.576)" fill="#5e5f5f"></path>
    <path id="Path_423" data-name="Path 423" d="M322.106,94.781h-6.583v5.8h6.437v.954h-6.437v7.285h6.583v.954H314.47V93.88h7.636Z" transform="translate(-106.211 -31.708)" fill="#5e5f5f"></path>
  </g>
</svg>
