<svg width="122" height="128" viewBox="0 0 122 128" fill="none" xmlns="http://www.w3.org/2000/svg">
<path d="M21.125 4.14996C14.8 6.39996 7.825 8.89996 5.625 9.67496C2.875 10.65 1.4 11.3 0.925 11.775L0.25 12.475L0.3 42.6L0.375 72.75L1.075 73.425L1.75 74.125L10.475 74.2L19.2 74.275L19.375 76.2C19.575 78.45 20.3 81.95 21.05 84.25C25.9 99.275 38.5 110.25 54 112.925C57.25 113.5 64.75 113.5 68 112.925C83.5 110.25 96.1 99.275 100.95 84.25C101.7 81.95 102.425 78.45 102.625 76.2L102.8 74.275L111.525 74.2L120.25 74.125L120.925 73.425L121.625 72.725L121.6 69.3C121.475 57.125 116.6 43.8 108.55 33.75C98.675 21.425 85.05 13.7 69.075 11.35C64.95 10.75 56.825 10.8 52.4 11.475C49.625 11.875 48.825 11.925 48.525 11.675C48.3 11.525 45.55 9.12496 42.375 6.39996C39.225 3.64996 36.25 1.09996 35.8 0.699958C34.4 -0.500042 33.85 -0.375042 21.125 4.14996ZM37.875 9.52496C40.425 11.75 42.475 13.6 42.45 13.65C42.4 13.675 41.3 14.1 40 14.575L37.625 15.425L35.35 13.25C33.9 11.85 32.8 11 32.325 10.9C31.175 10.65 12.2 17.475 11.125 18.525L10.375 19.25L10.25 28.825L10.125 38.375L9.25 39.75C8.775 40.5 7.75 42.35 6.95 43.875L5.525 46.625L5.5 30.975V15.325L19.325 10.425C26.9 7.72496 33.15 5.52496 33.2 5.52496C33.225 5.49996 35.35 7.32496 37.875 9.52496ZM68.75 16.65C88.75 19.475 106 33.45 113.1 52.575C114.725 56.9 115.8 61.875 116.35 67.55L116.5 69H103.75H91L90.9 68.425C90.825 68.125 90.65 67.1 90.5 66.175C89.9 62.375 87.95 57.65 85.575 54.275C83.05 50.7 78.325 46.65 74.375 44.7C69.4 42.225 63.6 41.175 58.2 41.725C52.75 42.3 48.925 43.65 44.275 46.675C41.875 48.225 38.125 51.875 36.425 54.275C34.05 57.65 32.1 62.375 31.5 66.175C31.35 67.1 31.175 68.125 31.1 68.425L31 69H18.275H5.525L5.65 67.55C7.15 50 16.05 34.925 30.7 25.175C33.5 23.3 39.675 20.275 42.9 19.15C51.25 16.3 60.1 15.425 68.75 16.65ZM31.8 17.175L32.5 17.85L30.575 18.975C26.05 21.625 21.925 24.825 18.075 28.625L15.5 31.15V26.65V22.125L23.2 19.325C27.425 17.8 30.925 16.525 30.975 16.525C31.05 16.5 31.425 16.8 31.8 17.175ZM66.25 47.4C74.35 49.075 81.675 55.575 84.375 63.525C85.1 65.625 85.75 69.025 85.75 70.675C85.75 71.275 85.925 72.15 86.125 72.65C86.7 74.05 87.5 74.25 92.875 74.25H97.5V74.825C97.5 76.1 96.65 80.25 95.95 82.5C92.95 92 86.225 99.875 77.2 104.4C71.975 107.025 67.225 108.1 61 108.1C56.25 108.1 53.525 107.7 49.6 106.375C36.725 102.075 27.15 90.975 24.9 77.775C24.25 73.9 23.95 74.25 27.75 74.25C31.45 74.25 30.95 73.9 31.5 77C33.175 86.625 39.825 95.075 48.775 99.025C51.125 100.05 52 100.175 52.95 99.6C54.225 98.85 54.625 97.325 53.85 96.025C53.575 95.575 52.6 94.95 50.775 94.075C42.175 89.975 36.825 82.175 36.325 72.975C35.6 60.025 44.95 48.8 57.9 47.025C60.05 46.725 63.75 46.9 66.25 47.4Z" fill="#1554AD"/>
<path d="M59.5999 24.975C58.1749 25.6 57.5249 27.775 58.4499 28.9C60.0749 30.925 63.2249 29.95 63.2499 27.45C63.2499 25.675 61.1999 24.3 59.5999 24.975Z" fill="#1554AD"/>
<path d="M71.7751 26.85C70.5501 27.525 70.1251 29.35 70.9251 30.5C71.5001 31.35 71.5751 31.4 74.2251 32.275C75.5251 32.7 77.9501 33.75 79.6001 34.6C86.2001 37.95 91.2751 42.425 95.5751 48.75C96.5501 50.2 97.5251 51.5 97.7251 51.675C97.9501 51.85 98.6501 52 99.3001 52C100.3 52 100.55 51.9 101.1 51.225C102.4 49.675 101.8 48.05 98.2751 43.325C92.8251 36.075 84.7751 30.25 76.2251 27.375C73.4251 26.425 72.7001 26.35 71.7751 26.85Z" fill="#1554AD"/>
<path d="M15.575 58.675C14.775 58.825 13.75 60.15 13.75 61.025C13.75 62.625 14.825 63.725 16.4 63.75C19.125 63.75 19.9 59.9 17.375 58.85C16.9 58.65 16.425 58.525 16.325 58.525C16.225 58.55 15.875 58.625 15.575 58.675Z" fill="#1554AD"/>
<path d="M58.2498 58.9C52.0248 60.25 47.6748 66 48.0748 72.375C48.2748 75.675 49.5998 78.55 51.9498 80.875C54.3498 83.25 57.4748 84.5 60.9998 84.5C64.5248 84.5 67.6498 83.25 70.0498 80.875C72.3998 78.55 73.7248 75.675 73.9248 72.375C74.3248 65.95 69.9498 60.225 63.6248 58.875C61.4998 58.425 60.3748 58.425 58.2498 58.9ZM64.1498 64.625C67.7998 66.25 69.6248 70.45 68.2498 74.1C67.5748 75.9 65.9998 77.65 64.3248 78.5C62.5998 79.4 59.3998 79.4 57.6748 78.5C54.8998 77.1 53.0998 74 53.3248 71.075C53.7498 65.675 59.2248 62.425 64.1498 64.625Z" fill="#1554AD"/>
<path d="M59.3249 96.875C58.5249 97.45 58.1499 98.8 58.4999 99.875C58.8749 101.025 59.5999 101.5 61.0249 101.5C62.6499 101.5 63.4999 100.65 63.4999 99C63.4999 97.35 62.6499 96.5 61.0249 96.5C60.3749 96.5 59.6249 96.675 59.3249 96.875Z" fill="#1554AD"/>
<path d="M12.2501 75.575C11.5501 75.925 6.95005 83.275 6.47505 84.8C6.22505 85.55 6.25005 85.85 6.65005 86.65C7.05005 87.45 7.60005 87.85 10.3001 89.35C12.0751 90.325 13.5001 91.275 13.5001 91.45C13.5001 91.625 13.1001 93.15 12.6251 94.825C11.6251 98.3 11.5501 99.175 12.2501 100.05C12.8251 100.8 13.4501 101.075 16.2501 101.75C17.4251 102.05 18.8001 102.4 19.3251 102.525L20.2501 102.775V106.525C20.2501 110.55 20.4501 111.375 21.5501 111.95C21.9001 112.125 23.5501 112.275 25.9751 112.3L29.8251 112.375L30.7501 115.975C32.1251 121.375 32.3751 121.5 38.1251 119.85C39.7751 119.375 41.1751 119 41.2501 119C41.3501 119 42.2001 120.425 43.1501 122.15C45.8251 127.025 46.3501 127.175 51.2501 124.225L54.3001 122.4L57.0501 125.2L59.7751 128H61.0001H62.2251L64.9501 125.2L67.7001 122.4L70.7501 124.225C75.6501 127.175 76.1751 127.025 78.8501 122.15C79.8001 120.425 80.6501 119 80.7501 119C80.8251 119 82.2251 119.375 83.8751 119.85C88.0001 121.025 88.6001 121.05 89.6501 120.175C90.2001 119.675 90.4751 118.95 91.2501 115.975L92.1751 112.375L96.0251 112.3C98.4501 112.275 100.1 112.125 100.45 111.95C101.55 111.375 101.75 110.55 101.75 106.525V102.775L102.7 102.525C103.2 102.4 104.575 102.05 105.75 101.75C108.55 101.075 109.175 100.8 109.75 100.05C110.45 99.175 110.375 98.3 109.375 94.825C108.9 93.15 108.5 91.625 108.5 91.45C108.5 91.275 109.925 90.325 111.65 89.375C116.65 86.6 116.7 86.375 113.075 80.325C111.675 78 110.35 75.95 110.15 75.75C109.925 75.575 109.25 75.375 108.625 75.325C107.65 75.2 107.45 75.275 106.75 75.95C106.05 76.65 105.85 77.35 105.975 78.5C106 78.7 106.75 80.1 107.65 81.575C108.525 83.075 109.25 84.375 109.25 84.45C109.25 84.55 107.95 85.35 106.35 86.25C104.75 87.15 103.275 88.125 103.05 88.45C102.525 89.275 102.625 90.55 103.575 93.775L104.425 96.675L101.1 97.475C97.5751 98.35 96.5251 98.925 96.4751 100.05C96.4501 100.375 96.4501 102.05 96.5001 103.8L96.5501 107H93.0501C91.0501 107 89.2751 107.125 88.9251 107.275C88.0501 107.675 87.6501 108.55 86.8751 111.75C86.5001 113.325 86.1251 114.7 86.0251 114.775C85.9501 114.875 84.5751 114.575 83.0001 114.1C79.7751 113.15 78.7501 113.075 77.8751 113.65C77.5251 113.875 76.5251 115.375 75.6251 117.025L73.9751 119.975L71.8001 118.7C70.6001 118 69.3001 117.2 68.8751 116.95C68.4751 116.7 67.6751 116.5 67.1501 116.5C66.2501 116.5 65.9751 116.7 63.6001 119.05L61.0001 121.6L58.4001 119.05C56.0251 116.7 55.7501 116.5 54.8501 116.5C54.3251 116.5 53.5501 116.7 53.1251 116.95C52.7251 117.2 51.4001 118 50.2001 118.7L48.0251 119.975L46.3751 117.025C45.4751 115.375 44.4751 113.875 44.1251 113.65C43.2501 113.075 42.2251 113.15 39.0001 114.1C37.4251 114.575 36.0501 114.875 35.9751 114.775C35.8751 114.7 35.5001 113.325 35.1251 111.75C34.3501 108.55 33.9501 107.675 33.0751 107.275C32.7251 107.125 30.9501 107 28.9501 107H25.4501L25.5001 103.825C25.5501 102.05 25.5501 100.375 25.5251 100.05C25.4751 98.925 24.4251 98.35 20.9001 97.475L17.5751 96.675L18.4251 93.775C19.3751 90.55 19.4751 89.275 18.9501 88.45C18.7251 88.125 17.2501 87.15 15.6501 86.25C14.0501 85.35 12.7501 84.55 12.7501 84.45C12.7501 84.375 13.4751 83.075 14.3501 81.575C15.2501 80.1 16.0001 78.7 16.0251 78.5C16.1501 77.375 15.9501 76.65 15.2751 75.975C14.4501 75.175 13.3501 75.025 12.2501 75.575Z" fill="#1554AD"/>
</svg>
