<svg width="112" height="114" viewBox="0 0 112 114" fill="none" xmlns="http://www.w3.org/2000/svg">
<path d="M82.6046 0.251013C73.6713 1.53947 65.7401 7.89587 62.5905 16.2852C61.2448 19.8929 60.8726 22.527 61.073 27.4232L61.2734 31.8326L53.4854 39.6492L45.6974 47.4659L40.8012 42.6557C38.1384 40.0215 32.8987 34.8963 29.1765 31.2313C22.906 25.0753 22.3906 24.5027 22.2188 23.386C21.732 20.4369 19.8995 18.4612 11.8825 12.3912C7.07221 8.72621 5.78375 8.64032 2.63418 11.7326C0.458119 13.9087 0 14.6818 0 16.3424C0 17.8886 0.830341 19.2057 5.35427 24.8463C10.0786 30.7446 10.1359 30.7732 14.259 32.0616C15.3184 32.3766 17.0077 34.0087 26.6282 43.8868L37.7662 55.3398L20.644 72.5193C10.4222 82.7411 3.20683 90.2141 2.77735 90.9872C1.23119 93.65 0.744443 97.6013 1.54615 100.608C2.49102 104.158 5.06794 107.193 8.50383 108.825C10.3363 109.684 10.6226 109.741 13.7436 109.741C19.3555 109.741 18.1816 110.629 35.6474 93.2205C44.1226 84.774 50.7653 78.3889 51.0516 78.3889C52.426 78.3889 54.917 80.3646 55.8905 82.197C56.1768 82.7983 56.635 84.2872 56.864 85.4898C57.0931 86.6923 57.5798 88.1812 57.9521 88.8111C58.3529 89.4697 63.5354 94.8526 69.4909 100.779C79.2832 110.515 80.5144 111.66 82.2324 112.462C84.8665 113.693 87.1285 114.065 89.5909 113.693C92.9982 113.149 94.487 112.261 98.3811 108.424C100.299 106.506 102.189 104.359 102.619 103.614C104.68 99.7774 104.68 94.9385 102.59 91.2735C101.674 89.6701 80.7721 68.5966 79.1401 67.6231C78.4815 67.2509 76.9354 66.7355 75.7042 66.5065C72.1537 65.8193 69.72 63.9868 68.9469 61.3813L68.6033 60.2932L73.6713 55.2539L78.7392 50.2432L80.9725 50.5009C82.1751 50.6441 84.9811 50.7586 87.1858 50.73C90.7362 50.7014 91.4806 50.6155 93.6281 49.9283C101.187 47.4659 106.914 42.2548 109.92 35.0681C111.094 32.2334 111.667 29.1125 111.667 25.7052C111.667 22.9852 111.638 22.7847 110.922 22.0689C110.349 21.4963 110.006 21.3818 109.29 21.4963C108.775 21.5822 104.394 23.8441 99.4977 26.5356C91.5665 30.8877 90.5644 31.3745 90.049 31.0309C89.7341 30.8305 88.3311 30.0001 86.9567 29.1698L84.4371 27.6523L84.523 23.93L84.6089 20.2078L93.9144 15.1112C99.011 12.3053 103.363 9.78561 103.564 9.49929C103.764 9.21297 103.936 8.55442 103.936 8.0104C103.936 6.77921 102.619 5.49075 99.4118 3.57238C94.5729 0.680499 88.3024 -0.579328 82.6046 0.251013ZM91.4806 5.23306C93.1127 5.66254 97.3503 7.49502 97.3503 7.78134C97.3503 7.83861 93.5422 9.98604 88.8751 12.5343C82.8336 15.8557 80.3426 17.3732 80.1708 17.8313C79.8559 18.633 79.7413 29.3702 80.0277 30.0574C80.3426 30.8591 89.6195 36.2992 90.6217 36.2992C91.1943 36.2992 94.1435 34.839 99.2114 32.033C103.478 29.6852 106.999 27.7954 107.028 27.8527C107.085 27.9099 106.856 29.0266 106.541 30.3437C104.623 38.0458 98.8105 43.8296 91.0512 45.7766C88.5888 46.4065 88.3311 46.4065 80.8007 45.8625C77.1358 45.6048 76.5631 45.8911 71.4093 50.9591L67.0858 55.1967L66.4273 54.4808C65.2247 53.221 63.0773 52.3334 61.1589 52.3334C58.9828 52.3334 57.2649 53.0779 55.6042 54.7099L54.4016 55.9125L51.7388 53.2497L49.1046 50.6155L56.8927 42.8274C62.9341 36.7574 64.8238 34.6958 65.282 33.6364C65.8546 32.348 65.8832 31.9471 65.7114 27.7668C65.5397 23.7582 65.5683 22.9852 66.1123 20.7805C68.1452 12.2766 74.9025 6.12066 83.7499 4.68904C85.2388 4.45998 89.7054 4.77494 91.4806 5.23306ZM12.0256 18.4612C17.4944 22.8706 17.1795 22.527 17.7521 24.6745C18.0671 25.7339 18.5252 26.9651 18.8115 27.4232C19.0978 27.8527 25.3111 34.0373 32.641 41.1668C39.9709 48.2962 47.5585 55.7407 49.5341 57.6877C54.3444 62.412 54.3444 62.412 57.6657 59.2338C59.7845 57.2009 60.214 56.9146 61.1303 56.9146C62.2756 56.9146 63.4495 57.8595 63.6785 58.9761C64.3371 62.3261 64.5948 63.2424 65.1961 64.4736C66.7708 67.5659 70.579 70.3718 73.8144 70.8013C74.5589 70.9159 75.561 71.1163 76.0191 71.2595C77.2217 71.6317 97.9229 92.3902 98.7819 94.0795C99.6695 95.8547 99.8127 97.7158 99.2114 99.7487C98.7819 101.295 98.4383 101.724 95.2601 104.931C92.0533 108.109 91.6238 108.453 90.0776 108.882C88.9896 109.197 87.9302 109.312 87.1285 109.197C84.208 108.797 83.7499 108.424 72.4114 97.0573L61.6456 86.2629L61.1875 83.8864C60.6149 80.8513 59.8132 79.1906 57.9234 77.215C56.1482 75.3539 53.3136 73.8936 50.9085 73.6073C49.1046 73.4069 47.988 72.8342 47.5585 71.8894C46.8999 70.4291 47.1576 69.8565 49.5341 67.3654C52.7123 64.0727 52.7123 64.1013 48.6179 59.8065C36.9931 47.6663 18.0671 28.5112 17.294 28.139C16.8072 27.9099 15.7765 27.595 15.0034 27.4232C14.2303 27.2514 13.4 26.9651 13.1709 26.7646C12.5983 26.3352 9.01922 22.0403 6.5282 18.8048L4.60982 16.3711L5.66922 15.3117L6.69999 14.2809L7.70213 15.0253C8.27477 15.4548 10.2218 17.001 12.0256 18.4612ZM43.9508 61.7249L46.2128 64.0727L45.0388 65.3039C43.4927 66.8787 42.92 68.1099 42.7482 70.0855C42.5478 72.2043 43.2063 74.2086 44.5521 75.6688L45.5542 76.7855L32.0111 90.3573C23.994 98.3744 18.0098 104.158 17.3226 104.502C15.5474 105.447 12.541 105.532 10.6513 104.731C8.73289 103.9 6.78589 101.782 6.12734 99.806C5.52606 97.9735 5.69786 95.597 6.58546 93.8218C7.5017 91.9893 40.9444 58.4894 41.3739 59.0048C41.5457 59.1766 42.7196 60.4078 43.9508 61.7249Z" fill="#1554AD"/>
<path d="M70.4356 76.4421C69.6053 76.9002 69.1471 78.0168 69.3762 78.9903C69.4907 79.3626 74.1864 84.2873 79.9416 90.0425C89.3903 99.4625 90.4497 100.436 91.28 100.436C92.5398 100.436 93.6279 99.348 93.6279 98.0882C93.6279 97.2578 92.6544 96.1984 83.2629 86.7784C72.354 75.8694 72.039 75.6117 70.4356 76.4421Z" fill="#1554AD"/>
<path d="M11.5961 91.9608C8.84734 93.1633 7.58751 96.4274 8.84734 99.1475C10.8516 103.471 16.6354 103.471 18.6396 99.1475C19.6131 97.0573 19.155 94.8813 17.3798 93.0488C16.0055 91.6172 13.4572 91.1304 11.5961 91.9608Z" fill="#1554AD"/>
</svg>
