<svg width="138" height="138" viewBox="0 0 138 138" fill="none" xmlns="http://www.w3.org/2000/svg">
<path d="M60.9141 4.58203L53.2324 9.13711L43.7719 9.16406H34.3383L29.8102 17.223L25.282 25.282L17.223 29.8102L9.16406 34.3383V43.7449V53.1516L4.58203 60.9141C2.07539 65.1727 0 68.8113 0 69C0 69.1887 2.07539 72.8273 4.58203 77.0859L9.16406 84.8484V94.2551V103.662L17.223 108.19L25.282 112.718L29.8102 120.777L34.3383 128.836H43.7449H53.1516L60.9141 133.418C65.1727 135.925 68.8113 138 69 138C69.1887 138 72.8273 135.925 77.0859 133.418L84.8484 128.836H94.2551H103.662L108.19 120.777L112.718 112.718L120.777 108.19L128.836 103.662V94.2551V84.8484L133.418 77.0859C135.925 72.8273 138 69.1887 138 69C138 68.8113 135.925 65.1727 133.418 60.9141L128.836 53.1516V43.7449V34.3383L120.777 29.8102L112.718 25.282L108.19 17.223L103.662 9.16406H94.2551H84.8484L77.0859 4.58203C72.8273 2.04844 69.1617 -1.90735e-06 68.973 -1.90735e-06C68.7574 0.0269512 65.1457 2.07539 60.9141 4.58203ZM76.1156 13.827L82.6113 17.6543H90.6703H98.7563L102.584 24.5273L106.438 31.4004L113.392 35.3355L120.346 39.2437V47.3297V55.3887L124.254 61.9922C126.383 65.6309 128.135 68.7844 128.135 69C128.135 69.2156 126.383 72.3691 124.254 76.0078L120.346 82.6113V90.6703V98.7562L113.392 102.664L106.438 106.6L102.584 113.473L98.7563 120.346H90.6703H82.6113L76.0078 124.254C72.3691 126.383 69.2156 128.135 69 128.135C68.7844 128.135 65.6309 126.383 61.9922 124.254L55.3887 120.346H47.3297H39.2438L35.4164 113.473L31.5621 106.6L24.6082 102.664L17.6543 98.7562V90.6703V82.6113L13.7461 76.0078C11.6168 72.3691 9.86484 69.2156 9.86484 69C9.86484 68.7844 11.6168 65.6309 13.7461 61.9922L17.6543 55.3887V47.3297V39.2437L24.6082 35.3355L31.5621 31.4004L35.4164 24.5273L39.2438 17.6543H47.3297H55.3887L62.127 13.6652C65.8465 11.482 69.027 9.75703 69.2426 9.83789C69.4582 9.91875 72.5578 11.7246 76.1156 13.827Z" fill="#1554AD"/>
<path d="M65.7387 25.3629C62.3695 25.5785 57.3293 26.6027 54.3105 27.6809C48.8391 29.6484 43.2867 33.0715 39.1629 37.0336C36.6563 39.4055 33.9609 42.4242 33.9609 42.8016C33.9879 43.0172 40.268 47.707 40.5375 47.707C40.6453 47.707 41.0496 47.3027 41.4539 46.8176C48.4348 38.3004 58.1379 33.6914 69 33.6914C79.8621 33.6914 89.5652 38.3004 96.5461 46.8176C96.9504 47.3027 97.3547 47.707 97.4625 47.707C97.732 47.707 104.012 43.0172 104.039 42.8016C104.039 42.4242 101.344 39.4055 98.8371 37.0336C91.9102 30.4031 81.9914 25.9828 73.016 25.4707C71.6145 25.3898 70.132 25.282 69.6738 25.2551C69.2426 25.2012 67.4637 25.2551 65.7387 25.3629Z" fill="#1554AD"/>
<path d="M26.9531 69V80.8594H30.8613H34.7695L34.8234 75.7652L34.9043 70.6711L39.1629 75.7652L43.3945 80.8594H46.7637H50.1328V69V57.1406H46.0898H42.0469V62.2887V67.4098L37.7883 62.3426L33.5566 57.2754L30.2414 57.1945L26.9531 57.1137V69Z" fill="#1554AD"/>
<path d="M52.8281 69V80.8594H62.666H72.5039V77.7598V74.6602H66.709H60.9141V73.1777V71.6953H65.7656H70.6172V68.7305V65.7656H65.7656H60.9141V64.5527V63.3398H66.4395H71.9648V60.2402V57.1406H62.3965H52.8281V69Z" fill="#1554AD"/>
<path d="M72.7734 57.4371C72.7734 57.5988 74.4445 62.9355 76.466 69.2965L80.1586 80.8594L84.4711 80.8055L88.7566 80.7246L89.6461 78.0293C90.1313 76.5469 90.9938 73.8516 91.5598 72.0187L92.6109 68.7035L94.1742 73.9055C95.0637 76.7625 95.8723 79.5117 96.007 79.9969L96.2496 80.8594L100.589 80.8055L104.902 80.7246L108.648 69.027C110.723 62.6121 112.395 57.3023 112.395 57.2484C112.395 57.1945 110.67 57.1406 108.54 57.1406H104.686L102.664 63.4746C101.559 66.9516 100.589 69.8086 100.508 69.8086C100.427 69.8086 99.5109 66.9785 98.4867 63.5285L96.573 57.2754H92.8535H89.107L87.0316 63.6094C85.2527 69.0539 84.9293 69.8355 84.7137 69.2695C84.5789 68.8922 83.6895 66.0082 82.7191 62.8547L80.9941 57.1406H76.8973C74.0672 57.1406 72.7734 57.2215 72.7734 57.4371Z" fill="#1554AD"/>
<path d="M37.5996 92.3414C36.1172 93.4735 34.6617 94.5516 34.3922 94.7403C33.9071 95.0906 33.9071 95.1446 34.3653 95.8723C34.6348 96.2766 36.3598 98.1633 38.2465 100.023C47.4914 109.214 58.8117 113.419 72.2074 112.61C82.0184 112.017 91.6946 107.786 98.8371 100.966C101.344 98.5946 104.039 95.5758 104.039 95.1985C104.012 94.9828 97.7321 90.293 97.4625 90.293C97.3547 90.293 96.9504 90.6973 96.5461 91.1555C89.5653 99.6996 79.8621 104.309 69 104.309C58.1379 104.309 48.4348 99.6996 41.4539 91.1555C41.0496 90.6973 40.6453 90.293 40.5106 90.293C40.4028 90.293 39.0821 91.2364 37.5996 92.3414Z" fill="#1554AD"/>
</svg>
