<svg width="148" height="148" viewBox="0 0 148 148" fill="none" xmlns="http://www.w3.org/2000/svg">
<path d="M73.9948 1.02064C73.0082 1.69892 55.9277 18.5327 36.0725 38.388L0 74.5222L2.03486 76.4954L4.00805 78.5302L12.9491 69.5892L21.8901 60.6481L39.6489 78.4069L57.346 96.104L33.606 119.844L9.86597 143.584L11.9008 145.557L13.874 147.592L48.2816 113.246L82.6275 78.9618L88.4855 78.5302C95.7 78.0369 98.2898 77.297 101.126 75.0155C105.319 71.5007 107.107 65.7661 105.813 59.7232L105.073 56.4551L112.472 48.9939C116.85 44.5543 119.995 40.8545 120.242 39.8063C120.488 38.8197 120.55 36.6615 120.427 34.9966C120.18 32.5301 119.687 31.4818 118.022 29.7553C116.912 28.5837 115.617 27.6588 115.124 27.6588C114.507 27.6588 114.384 27.3505 114.754 26.5488C115.062 25.9939 115.309 23.6507 115.309 21.3692C115.309 17.3612 115.185 17.1145 113.027 14.8947C110.992 12.8598 110.314 12.6132 106.984 12.3665C103.778 12.1199 103.223 11.9349 102.914 10.7016C102.729 9.96168 101.62 8.35846 100.448 7.24853C98.4131 5.27534 97.9815 5.15201 94.1584 5.15201C91.8769 5.15201 89.5337 5.39866 88.9788 5.70697C88.1771 6.07695 87.8688 5.95362 87.8688 5.337C87.8688 4.8437 86.8822 3.54879 85.7107 2.37721C83.7991 0.527337 83.1208 0.280687 79.6677 0.0340378C76.6463 -0.0892869 75.4747 0.0957002 73.9948 1.02064ZM81.8259 6.50858C83.9224 8.42012 83.2442 10.9483 79.7294 14.5247L76.523 17.7928L78.4962 19.766L80.4694 21.8008L86.204 16.0662C92.2469 10.0233 94.1584 9.16007 96.6249 11.4416C98.7214 13.3531 98.0431 15.8813 94.5284 19.4577L91.3219 22.7258L93.2951 24.699L95.2683 26.7338L99.7697 22.2325C103.223 18.7794 104.641 17.7928 105.998 17.7928C108.402 17.7928 110.067 19.396 110.067 21.7392C110.067 23.2807 109.081 24.6373 104.394 29.3237L98.6597 35.0583L100.695 37.0314L102.668 39.0046L105.936 35.7982C108.341 33.455 109.636 32.5918 110.992 32.5918C113.335 32.5918 115 34.195 115 36.5381C115 38.203 112.842 40.6079 96.8099 56.6401L78.6195 74.8305L60.9224 57.0717L43.1636 39.3746L60.1208 22.4175C74.6114 7.92682 77.3246 5.46032 78.8661 5.46032C79.8527 5.46032 81.2093 5.89196 81.8259 6.50858ZM42.2387 46.5891L45.0135 49.5489L38.4156 56.0235L31.7561 62.5597L28.858 59.5999L25.9598 56.6401L32.3727 50.1655C35.9491 46.5891 38.9706 43.691 39.1556 43.691C39.3406 43.691 40.7588 44.9859 42.2387 46.5891ZM55.6194 59.8465C58.7642 62.9913 61.354 65.9511 61.354 66.5061C61.354 67.6776 50.2548 78.8385 49.0216 78.8385C47.85 78.8385 36.6891 67.7393 36.6891 66.5061C36.6891 65.3345 47.7883 54.1736 49.0216 54.1736C49.5149 54.1736 52.4747 56.7634 55.6194 59.8465ZM68.0136 85.4364L61.354 92.0959L57.0377 87.7796C54.6328 85.4364 53.0296 83.3399 53.3996 83.2165C53.7696 83.0932 54.8178 83.7715 55.7428 84.6348C58.3942 87.1629 59.8741 86.7313 64.5605 82.1066C69.2468 77.4203 69.8018 75.6937 67.212 73.2889C66.3487 72.4873 65.6704 71.3774 65.6704 70.8841C65.6704 70.3291 67.5819 71.809 70.1101 74.3988L74.6114 78.8385L68.0136 85.4364Z" fill="#1554AD"/>
<path d="M90.1505 90.4311C55.3729 125.209 46.5552 134.335 46.5552 135.568C46.5552 136.616 47.5418 138.096 49.515 140.069C52.9681 143.461 53.3997 143.522 63.5123 141.981L70.0485 141.056L72.8233 143.584C74.3649 145.002 76.5847 146.544 77.6947 147.037C80.8394 148.332 86.944 148.147 89.9655 146.667C91.4454 145.989 96.625 141.303 102.298 135.691C114.075 123.852 114.014 124.037 110.437 114.603C109.266 111.458 108.341 108.745 108.403 108.621C108.526 108.56 111.116 109.423 114.26 110.595C120.488 112.938 122.831 113.184 125.36 111.89C128.134 110.41 145.708 92.281 146.756 89.7528C147.928 86.9163 147.99 80.6884 146.818 77.9136C146.325 76.8037 144.783 74.5839 143.365 73.0423L140.837 70.2675L141.762 63.7313C143.303 53.4954 143.242 53.0637 139.789 49.6723C137.877 47.8224 136.336 46.7742 135.349 46.7742C134.116 46.7742 124.373 56.2085 90.1505 90.4311ZM133.314 70.9458C137.384 75.1388 141.084 79.1469 141.454 79.8868C142.378 81.7367 142.317 85.9914 141.269 87.9646C140.775 88.8895 136.336 93.6375 131.403 98.5705L122.4 107.512L116.727 105.415C107.169 102.024 107.354 102.024 105.381 102.949C104.394 103.442 103.223 104.675 102.73 105.662C101.928 107.327 101.99 107.882 103.531 112.136C104.518 114.664 105.689 118.117 106.244 119.721L107.231 122.681L98.3515 131.622C93.4186 136.555 88.6706 140.994 87.7456 141.488C85.5874 142.597 81.5177 142.597 79.3595 141.488C78.4346 140.994 74.3649 137.233 70.2952 133.163L62.8957 125.702L94.0352 94.5625C111.177 77.4203 125.298 63.423 125.483 63.423C125.668 63.423 129.183 66.8144 133.314 70.9458Z" fill="#1554AD"/>
<path d="M123.017 86.238V96.104H125.483H127.95V86.238V76.3721H125.483H123.017V86.238Z" fill="#1554AD"/>
<path d="M88.4854 120.769V130.635H90.9518H93.4183V120.769V110.903H90.9518H88.4854V120.769Z" fill="#1554AD"/>
</svg>
