<svg width="134" height="140" viewBox="0 0 134 140" fill="none" xmlns="http://www.w3.org/2000/svg">
<path d="M62.3665 0.642515C59.2712 1.70143 57.8593 2.92325 53.6779 8.0549C49.8767 12.7793 48.9264 13.5938 47.3788 13.5938C46.9715 13.5938 44.3649 12.9693 41.5683 12.2091C38.7446 11.4489 35.595 10.7701 34.4546 10.6886C28.2912 10.227 22.2364 14.5713 20.7702 20.5446C20.553 21.4135 20.2272 24.6445 20.0643 27.7127C19.7384 33.8218 19.5212 34.7178 18.0007 35.7224C17.5392 36.0482 15.0955 37.0528 12.5704 38.0031C6.02688 40.4739 4.39778 41.4785 2.44286 44.2751C0.705161 46.7459 0.189281 48.3479 0.0263713 51.6061C-0.136538 55.6517 0.35219 56.9549 4.45208 63.2541C7.41161 67.8427 7.68312 68.3586 7.68312 69.5261C7.68312 70.6936 7.41161 71.2095 4.45208 75.7981C0.35219 82.0973 -0.136538 83.4006 0.0263713 87.4462C0.189281 90.6772 0.542252 91.8447 2.30711 94.5056C4.26202 97.5194 5.86397 98.524 12.5704 101.049C15.0955 101.999 17.5392 103.004 18.0007 103.33C19.5212 104.334 19.7384 105.23 20.0643 111.34C20.2272 114.408 20.553 117.639 20.7702 118.508C22.2364 124.481 28.2912 128.825 34.4546 128.364C35.595 128.282 38.7446 127.603 41.5683 126.843C44.3649 126.083 46.9715 125.458 47.3788 125.458C48.9264 125.458 49.8767 126.273 53.7051 131.025C57.9136 136.21 59.4612 137.514 62.6108 138.491C65.0002 139.224 68.5299 139.224 70.9192 138.491C74.0688 137.514 75.6164 136.21 79.8249 131.025C83.6533 126.273 84.6036 125.458 86.1513 125.458C86.5585 125.458 89.1651 126.083 91.9617 126.843C94.7855 127.603 97.9351 128.282 99.0754 128.364C105.239 128.825 111.294 124.481 112.76 118.508C112.977 117.639 113.303 114.408 113.466 111.367C113.629 108.027 113.9 105.502 114.117 104.959C114.633 103.737 115.556 103.113 118.435 101.999C119.792 101.484 122.236 100.533 123.838 99.9359C127.367 98.5783 129.485 97.085 131.087 94.7771C132.743 92.4149 133.368 90.5415 133.504 87.3104C133.667 83.4277 133.151 82.043 129.078 75.7981C124.788 69.1732 124.788 69.8791 129.078 63.2541C133.151 57.0092 133.667 55.6245 133.504 51.7418C133.368 48.5108 132.743 46.6373 131.087 44.2751C129.485 41.9673 127.367 40.4739 123.838 39.1163C122.236 38.519 119.792 37.5687 118.435 37.0528C115.556 35.9396 114.633 35.3151 114.117 34.0933C113.9 33.5503 113.629 31.0252 113.466 27.6855C113.303 24.6445 112.977 21.4135 112.76 20.5446C111.294 14.5713 105.239 10.227 99.0754 10.6886C97.9351 10.7701 94.7855 11.4489 91.9617 12.2091C89.1651 12.9693 86.5585 13.5938 86.1513 13.5938C84.6036 13.5938 83.6533 12.7793 79.8249 8.02775C75.6164 2.8418 74.0688 1.53852 70.9192 0.561061C68.3941 -0.226336 64.7829 -0.172033 62.3665 0.642515ZM68.6385 9.81976C69.2087 10.1456 70.9735 12.0462 72.9556 14.517C76.8654 19.3771 77.2455 19.7572 79.3905 21.0605C83.3003 23.3956 86.1784 23.477 93.6723 21.4678C96.5775 20.6804 99.3741 20.0559 99.9443 20.0559C101.329 20.0288 102.849 21.0334 103.42 22.3909C103.8 23.2326 103.963 24.6174 104.098 27.9842C104.207 30.455 104.397 33.3059 104.533 34.3648C105.022 38.0303 107.384 41.75 110.479 43.7321C111.185 44.1937 114.117 45.4698 116.995 46.5559C120.417 47.8863 122.48 48.8366 122.996 49.3253C123.946 50.2485 124.435 51.6332 124.218 52.8279C124.109 53.3166 122.779 55.6788 121.231 58.0682C119.656 60.4575 118.136 62.9011 117.837 63.5256C116.018 67.0553 116.018 71.9969 117.837 75.5266C118.136 76.1511 119.656 78.5948 121.231 80.9841C122.779 83.3734 124.109 85.7356 124.218 86.2244C124.435 87.419 123.946 88.8038 122.996 89.7269C122.48 90.2156 120.417 91.166 116.995 92.4964C114.117 93.5824 111.185 94.8586 110.479 95.3201C107.384 97.3022 105.022 101.022 104.533 104.687C104.397 105.719 104.207 108.597 104.098 111.068C103.963 114.435 103.8 115.82 103.42 116.661C102.849 118.019 101.329 119.023 99.9443 118.996C99.3741 118.996 96.7947 118.426 94.1881 117.72C91.5816 117.014 88.7578 116.335 87.889 116.227C84.5222 115.738 80.3951 116.906 77.7343 119.078C77.1098 119.594 75.0191 121.956 73.0913 124.345C69.5073 128.825 68.367 129.803 66.765 129.803C65.1631 129.803 64.0227 128.825 60.4387 124.345C58.5109 121.956 56.4203 119.594 55.7958 119.078C53.1349 116.906 49.2251 115.792 45.7225 116.227C44.8265 116.335 41.9485 117.014 39.3419 117.72C33.803 119.214 32.9613 119.268 31.4951 118.318C29.9203 117.259 29.6488 116.227 29.323 109.683C28.97 102.38 28.3183 100.316 25.386 97.2751C23.6483 95.4559 22.2092 94.6685 16.5617 92.4964C13.1677 91.1931 11.0228 90.1885 10.534 89.7269C9.58374 88.8038 9.09501 87.419 9.31222 86.2244C9.42083 85.7356 10.7513 83.3734 12.2989 80.9841C13.8737 78.5948 15.3942 76.1511 15.6928 75.5266C17.512 71.9969 17.512 67.0553 15.6928 63.5256C15.3942 62.9011 13.8737 60.4575 12.2989 58.0682C10.7513 55.6788 9.42083 53.3166 9.31222 52.8279C9.09501 51.6332 9.58374 50.2485 10.534 49.3253C11.0228 48.8638 13.1677 47.8592 16.5617 46.5559C19.4398 45.4427 22.3721 44.1665 23.0781 43.705C26.1462 41.75 28.5084 38.0031 28.9971 34.3648C29.1329 33.3059 29.323 30.455 29.4316 27.9842C29.5673 24.6174 29.7302 23.2326 30.1104 22.3909C30.6805 21.0334 32.201 20.0288 33.5858 20.0559C34.1559 20.0559 36.7353 20.6261 39.3419 21.332C41.9485 22.038 44.8265 22.7168 45.7225 22.8254C49.2251 23.2598 53.1349 22.1466 55.7958 19.9745C56.4203 19.4586 58.5109 17.0964 60.4387 14.707C62.3393 12.3177 64.3485 10.1184 64.8644 9.81976C66.0862 9.11382 67.3895 9.11382 68.6385 9.81976Z" fill="#1554AD"/>
<path d="M47.0529 45.1168C43.9033 45.5241 40.971 47.7777 39.8849 50.7101C39.0975 52.855 39.179 56.3033 40.1021 58.1767C40.9438 59.8601 42.5458 61.4621 44.2835 62.3581C46.347 63.417 49.4423 63.5799 51.6687 62.7382C53.6236 61.978 55.66 60.1588 56.6646 58.2582C57.3162 57.0635 57.3977 56.602 57.3977 54.1855C57.3977 51.8504 57.2891 51.2802 56.7189 50.1127C54.954 46.5287 51.2071 44.6009 47.0529 45.1168Z" fill="#1554AD"/>
<path d="M85.2009 45.0896C84.6579 45.1711 83.8705 45.5241 83.436 45.8227C83.0016 46.1486 72.9827 56.1132 61.1446 67.9513C40.6994 88.4507 39.6405 89.5368 39.4233 90.7043C39.1246 92.1977 39.369 93.7996 40.0749 94.7499C40.6994 95.5916 42.7086 96.6777 43.6861 96.6777C45.7496 96.6777 45.5324 96.8677 68.4484 73.9518C90.3868 51.9861 90.6312 51.7146 90.7941 50.4657C91.31 47.0174 88.622 44.438 85.2009 45.0896Z" fill="#1554AD"/>
<path d="M78.9562 78.6219C74.8563 79.9252 72.1954 83.8893 72.5484 88.1521C72.7928 91.4646 74.7477 94.2613 77.843 95.7817C79.1734 96.4334 79.7164 96.542 81.6985 96.542C83.6806 96.542 84.2236 96.4334 85.554 95.7817C87.509 94.8314 89.0837 93.2566 90.0341 91.3017C90.6857 89.9713 90.7943 89.4283 90.7943 87.4462C90.7943 84.6767 90.0069 82.7218 88.2149 80.9298C85.9342 78.6491 81.97 77.6445 78.9562 78.6219Z" fill="#1554AD"/>
</svg>
