<svg width="124" height="158" viewBox="0 0 124 158" fill="none" xmlns="http://www.w3.org/2000/svg">
<path d="M75.6401 0.833375C75.3315 1.32713 74.0972 3.36384 72.9554 5.40056C71.7827 7.43728 70.6409 9.28884 70.4249 9.50486C70.2089 9.72087 70.0237 10.0295 70.0237 10.1838C70.0237 10.5541 64.469 20.1513 64.1296 20.3674C64.0061 20.4599 63.7593 20.892 63.605 21.324C63.4198 21.756 56.3839 34.0381 47.9593 48.6345C39.5038 63.2002 30.4929 78.815 27.9007 83.3205C25.3085 87.8259 18.18 100.17 12.039 110.785C0.775285 130.288 0.188956 131.43 1.29989 132.325C1.51591 132.51 11.6069 138.343 23.7347 145.317C45.5831 157.877 46.8175 158.525 48.021 157.753C48.237 157.63 65.2097 128.437 85.762 92.8869C126.188 22.8978 124.151 26.6935 122.269 25.3666C121.775 25.058 118.504 23.1138 114.924 21.0771C79.9913 1.01853 78.2014 0.000172041 77.2448 0.000172041C76.5042 0.000172041 76.0722 0.216188 75.6401 0.833375ZM93.446 14.1029C99.6179 17.6517 104.679 20.6142 104.71 20.7068C104.741 20.8611 33.3936 144.422 33.0542 144.792C32.8382 145.008 6.73114 130.165 6.66942 129.764C6.66942 129.64 7.25575 128.468 7.99638 127.172L9.32333 124.765L16.7604 129.054C25.3085 133.961 26.4503 134.269 27.0983 131.893C27.6229 129.98 27.2835 129.671 19.3218 125.135C15.2175 122.79 11.8229 120.845 11.7612 120.815C11.6378 120.722 15.094 114.735 15.5261 114.303C15.7729 114.026 16.9147 114.519 19.8772 116.217C24.2593 118.716 25.4936 119.025 26.3268 117.821C26.6046 117.451 26.8206 116.679 26.8206 116.124C26.8206 114.951 26.5737 114.766 21.6671 112.051C19.7538 110.97 18.18 109.983 18.18 109.829C18.18 109.644 19.0749 108.008 20.1241 106.156L22.0991 102.793L29.4745 107.082C37.9608 112.051 39.1026 112.359 39.7507 109.983C40.2753 108.07 39.905 107.792 32.0667 103.194C27.9933 100.849 24.6604 98.7502 24.6604 98.5959C24.6604 98.4107 25.5245 96.806 26.6046 95.0162L28.5179 91.7451L32.5296 93.9978C36.9116 96.4974 38.146 96.806 38.9792 95.6025C39.2569 95.2322 39.4729 94.4607 39.4729 93.9052C39.4729 92.7326 39.2261 92.5474 34.3194 89.8318C32.4061 88.7517 30.8323 87.8568 30.8323 87.7951C30.8323 87.5173 34.628 81.1295 34.8749 80.9752C35.0292 80.8826 38.3929 82.7033 42.3429 84.9869C50.5823 89.8318 51.755 90.1404 52.403 87.7642C52.9276 85.8818 52.5573 85.5732 44.7808 81.006C40.769 78.6607 37.4054 76.7166 37.3745 76.6548C37.2819 76.5931 40.7073 70.483 41.2011 69.8041C41.2319 69.7423 43.0526 70.7607 45.2436 72.0259C50.1811 74.9267 51.7858 75.1427 52.403 72.9517C52.8659 71.1927 52.3722 70.6373 47.9593 68.0451C45.6757 66.6873 43.7933 65.5146 43.7933 65.422C43.7933 65.3295 44.6573 63.7865 45.7374 61.9966L47.6507 58.7256L55.0569 62.8298C62.9569 67.2427 64.0061 67.5822 64.9011 66.2861C65.1788 65.9158 65.3948 65.1443 65.3948 64.5888C65.3948 63.3545 65.4874 63.4162 56.8159 58.633C53.0511 56.5654 49.996 54.7447 50.0268 54.6213C50.0886 54.4978 51.0143 52.8623 52.0944 50.9798C53.9768 47.7088 54.1003 47.5545 54.7175 47.9248C57.5257 49.7455 62.3706 52.1525 63.1729 52.1525C64.3147 52.1525 65.0862 51.2267 65.0862 49.7763C65.0862 48.6037 64.8393 48.4185 59.9018 45.7029C58.0194 44.6228 56.4456 43.697 56.4456 43.6353C56.4456 43.2033 60.3647 36.7228 60.6116 36.7228C60.7968 36.7228 64.0987 38.6052 68.0179 40.8888C76.1956 45.7029 77.3682 46.0115 78.0163 43.6353C78.5409 41.7529 78.1706 41.4443 70.394 36.8771C66.3823 34.5318 63.0186 32.5877 62.9569 32.5259C62.9261 32.4951 63.7284 30.9213 64.8085 29.0388C66.6292 25.7986 66.7835 25.6443 67.3698 26.0146C67.7401 26.2615 69.4991 27.2799 71.289 28.3291C75.4858 30.767 77.1214 30.8904 77.7077 28.8228C78.1706 27.0947 77.6768 26.5084 73.2948 23.9162L69.1597 21.4474L71.1655 18.0529C72.2765 16.1705 73.2331 14.5967 73.264 14.5349C73.3257 14.4732 76.6276 16.3248 80.5776 18.6392C87.6444 22.7744 88.8788 23.299 90.0206 22.5584C90.6069 22.1881 90.9464 20.6451 90.6378 19.7502C90.3909 18.9787 89.5886 18.4541 78.4792 11.9736L75.6401 10.3381L77.0288 7.93103L78.4175 5.524L80.3307 6.60408C81.3491 7.19041 87.2741 10.5541 93.446 14.1029ZM113.505 25.6443C117.578 27.9896 117.825 28.1748 117.516 28.792C116.652 30.3658 46.1694 152.013 45.9843 152.199C45.8608 152.322 43.8241 151.304 41.4171 149.915C37.2511 147.508 37.0659 147.354 37.4054 146.706C39.3186 143.157 108.814 23.1756 108.937 23.1447C109.061 23.1447 111.098 24.2556 113.505 25.6443Z" fill="#1554AD"/>
</svg>
