<svg width="127" height="111" viewBox="0 0 127 111" fill="none" xmlns="http://www.w3.org/2000/svg">
<path d="M5.58792 93.103C5.40707 93.103 5.22625 93.083 5.04205 93.0428C3.68907 92.7414 2.8317 91.4017 3.13311 90.042C3.55508 88.1499 3.91346 86.2309 4.2785 84.3153C5.0856 80.0353 5.91946 75.6013 7.4198 71.3816C14.9115 50.283 14.7407 49.3888 1.04675 39.4424C0.400393 38.9668 0.00857093 38.2133 0.00857093 37.4095L0.00519824 30.8757C-0.00149972 25.8957 -0.00487976 20.9058 0.0152141 15.9225C0.0520529 4.87087 3.25364 1.42812 13.7091 1.19034C21.6965 1.00279 29.6872 0.895624 37.6712 0.77841C49.5935 0.604263 61.9143 0.430126 74.0209 0.0148532C85.9031 -0.390373 88.2541 7.58016 88.9105 13.615C89.5033 19.0102 90.2367 24.4021 90.9601 29.7873C91.2916 32.222 91.6165 34.6533 91.938 37.0914C92.1155 38.4678 91.1476 39.727 89.7712 39.9045C88.3746 40.082 87.1355 39.1142 86.9547 37.7411C86.6399 35.3097 86.3117 32.8884 85.9835 30.4604C85.2468 25.0317 84.5167 19.6063 83.9206 14.1643C83.157 7.21178 80.6653 4.83738 74.1951 5.03832C62.0416 5.45694 49.6939 5.63105 37.7448 5.8052C29.7709 5.91571 21.7969 6.02958 13.8264 6.21713C6.13377 6.39462 5.06882 7.57346 5.03868 15.9459C5.01859 20.9225 5.02197 25.9024 5.02867 30.8757L5.03204 36.1402C20.0522 47.2354 19.8211 51.4786 12.1553 73.0661C10.7855 76.9174 10.022 80.9663 9.21489 85.253C8.84315 87.2189 8.47137 89.1881 8.03935 91.1338C7.77478 92.306 6.73997 93.103 5.58792 93.103Z" fill="#1554AD"/>
<path d="M59.2726 111H3.53224C2.14576 111 1.02051 109.875 1.02051 108.488V91.6127C1.02051 90.2262 2.14576 89.1009 3.53224 89.1009H47.5176C45.4814 86.9944 43.7266 84.5195 42.3703 81.77C38.7768 74.5027 38.3883 66.3144 41.2718 58.7089C47.6751 41.8267 58.5525 40.6948 70.0831 40.9962C86.0409 41.368 96.8582 35.7986 103.184 23.8394C100.348 10.5674 95.5822 8.85606 86.7677 10.2392C85.4013 10.4468 84.112 9.50911 83.901 8.14607C83.69 6.77299 84.6277 5.487 85.9975 5.27602C98.9714 3.25658 105.231 8.41735 108.292 23.7088C108.402 24.258 108.325 24.8273 108.074 25.3297C100.853 39.7303 88.3618 46.4718 69.9592 46.0197C57.4976 45.6948 50.7963 47.7779 45.9771 60.4939C43.5927 66.7766 43.9175 73.5416 46.8847 79.5429C49.6643 85.1625 54.5673 89.4827 59.9993 91.1036C61.0643 91.4217 61.7943 92.3997 61.7943 93.5115V108.495C61.7843 109.875 60.659 111 59.2726 111ZM6.04725 105.976H56.7642V95.2999C55.5318 94.821 54.3295 94.2449 53.1842 93.5651C52.7521 93.9134 52.2062 94.121 51.6068 94.121H6.04725V105.976Z" fill="#1554AD"/>
<path d="M59.7849 62.7411C59.7079 62.7411 59.6175 62.7377 59.5371 62.7277L46.2383 61.388C44.8585 61.2507 43.8505 60.0183 43.9911 58.6385C44.1318 57.2554 45.3709 56.2407 46.7406 56.3914L57.2732 57.453V45.5943C57.2732 44.2078 58.3984 43.0825 59.7849 43.0825C61.1714 43.0825 62.2967 44.2078 62.2967 45.5943V60.2293C62.2967 60.9393 61.9952 61.6158 61.4694 62.0914C61.0073 62.5133 60.4045 62.7411 59.7849 62.7411Z" fill="#1554AD"/>
<path d="M124.215 25.6079H106.834C105.447 25.6079 104.322 24.4827 104.322 23.0962C104.322 21.7097 105.447 20.5845 106.834 20.5845H124.215C125.601 20.5845 126.726 21.7097 126.726 23.0962C126.726 24.4827 125.601 25.6079 124.215 25.6079Z" fill="#1554AD"/>
<path d="M28.0829 32.7677C27.5036 32.7677 26.9208 32.5701 26.4486 32.1616C25.4004 31.254 25.2731 29.6733 26.1806 28.615L38.4547 14.3014C39.3623 13.2499 40.9397 13.126 41.9979 14.0302C43.0462 14.9344 43.1734 16.5185 42.2692 17.5734L29.9952 31.8903C29.4895 32.4696 28.7862 32.7677 28.0829 32.7677Z" fill="#1554AD"/>
<path d="M15.8065 30.7184C15.3076 30.7184 14.7918 30.5677 14.3464 30.2495C13.2178 29.4424 12.96 27.8751 13.7637 26.7465L23.9948 12.4296C24.7986 11.3043 26.3692 11.0364 27.4978 11.8469C28.6264 12.654 28.8911 14.2213 28.084 15.3499L17.8527 29.6701C17.3605 30.3567 16.5902 30.7184 15.8065 30.7184Z" fill="#1554AD"/>
</svg>
