<svg width="52" height="35" viewBox="0 0 52 35" fill="none" xmlns="http://www.w3.org/2000/svg">
<path d="M47.4902 0H4.32999C3.21631 0 2.14825 0.442408 1.36076 1.2299C0.573267 2.01739 0.130859 3.08545 0.130859 4.19913L0.130859 30.8009C0.130859 31.3523 0.239473 31.8983 0.450499 32.4078C0.661526 32.9173 0.970832 33.3802 1.36076 33.7701C1.75068 34.16 2.21359 34.4693 2.72305 34.6804C3.23252 34.8914 3.77856 35 4.32999 35H47.4902C48.6038 35 49.6719 34.5576 50.4594 33.7701C51.2469 32.9826 51.6893 31.9145 51.6893 30.8009V4.19913C51.6893 3.08545 51.2469 2.01739 50.4594 1.2299C49.6719 0.442408 48.6038 0 47.4902 0ZM2.29536 8.07359H49.5032V13.1818H2.29536V8.07359ZM4.32999 2.1645H47.4902C48.0298 2.1645 48.5473 2.37886 48.9289 2.76043C49.3104 3.142 49.5248 3.65952 49.5248 4.19913V5.90909H2.29536V4.19913C2.29536 3.65952 2.50972 3.142 2.89129 2.76043C3.27286 2.37886 3.79038 2.1645 4.32999 2.1645ZM47.4902 32.8355H4.32999C3.79038 32.8355 3.27286 32.6211 2.89129 32.2396C2.50972 31.858 2.29536 31.3405 2.29536 30.8009V15.3463H49.5032V30.7792C49.506 31.0464 49.4562 31.3116 49.3566 31.5595C49.257 31.8075 49.1095 32.0333 48.9226 32.2243C48.7356 32.4152 48.5129 32.5675 48.2672 32.6724C48.0214 32.7772 47.7574 32.8327 47.4902 32.8355Z" fill="#FFF"/>
<path d="M42.1871 21.1906C41.5975 21.1906 41.0147 21.316 40.4773 21.5586C39.9399 21.8012 39.4603 22.1553 39.0703 22.5975C38.5045 21.9582 37.7573 21.5065 36.9282 21.3027C36.0992 21.0989 35.2278 21.1526 34.43 21.4567C33.6323 21.7608 32.9462 22.3008 32.4632 23.0047C31.9802 23.7087 31.7233 24.5431 31.7266 25.3968C31.7299 26.2505 31.9934 27.0829 32.4819 27.7831C32.9704 28.4832 33.6607 29.0179 34.4607 29.3157C35.2608 29.6135 36.1327 29.6604 36.9601 29.4501C37.7875 29.2399 38.5311 28.7824 39.0919 28.1386C39.5571 28.6563 40.1443 29.0496 40.8001 29.2827C41.4559 29.5158 42.1596 29.5813 42.8472 29.4733C43.5348 29.3654 44.1845 29.0873 44.7373 28.6644C45.2901 28.2415 45.7285 27.6872 46.0127 27.0518C46.2968 26.4165 46.4177 25.7202 46.3643 25.0262C46.311 24.3322 46.0851 23.6626 45.7072 23.0781C45.3293 22.4937 44.8113 22.0129 44.2003 21.6795C43.5894 21.346 42.9048 21.1706 42.2088 21.1689L42.1871 21.1906ZM35.975 27.4027C35.5726 27.4027 35.1792 27.2834 34.8446 27.0598C34.51 26.8362 34.2493 26.5185 34.0953 26.1467C33.9413 25.7749 33.901 25.3658 33.9795 24.9711C34.058 24.5765 34.2518 24.2139 34.5363 23.9294C34.8209 23.6448 35.1834 23.451 35.5781 23.3725C35.9728 23.294 36.3819 23.3343 36.7536 23.4883C37.1254 23.6423 37.4432 23.9031 37.6668 24.2377C37.8903 24.5723 38.0097 24.9657 38.0097 25.3681C38.0097 25.9077 37.7953 26.4252 37.4137 26.8068C37.0322 27.1884 36.5146 27.4027 35.975 27.4027ZM42.1871 27.4027C41.7847 27.4027 41.3914 27.2834 41.0568 27.0598C40.7222 26.8362 40.4614 26.5185 40.3074 26.1467C40.1534 25.7749 40.1131 25.3658 40.1916 24.9711C40.2701 24.5765 40.4639 24.2139 40.7484 23.9294C41.033 23.6448 41.3955 23.451 41.7902 23.3725C42.1849 23.294 42.594 23.3343 42.9658 23.4883C43.3375 23.6423 43.6553 23.9031 43.8789 24.2377C44.1024 24.5723 44.2218 24.9657 44.2218 25.3681C44.2218 25.9077 44.0074 26.4252 43.6258 26.8068C43.2443 27.1884 42.7268 27.4027 42.1871 27.4027Z" fill="#FFF"/>
</svg>
