<svg width="33" height="32" viewBox="0 0 33 32" fill="none" xmlns="http://www.w3.org/2000/svg">
<path d="M15.1878 18.3269C15.5261 17.9885 16.1089 17.9885 16.4472 18.3269L21.2717 23.1514C22.1614 24.0411 23.3456 24.5298 24.5988 24.5298H25.5449L19.461 30.6137C17.5625 32.4621 14.4798 32.4621 12.5813 30.6137L6.47234 24.511H7.05504C8.30817 24.511 9.49237 24.0223 10.3821 23.1326L15.1878 18.3269ZM16.4472 13.7154C16.0462 14.06 15.5324 14.0663 15.1878 13.7154L10.3821 8.90966C9.49237 7.96356 8.30817 7.53123 7.05504 7.53123H6.47234L12.575 1.42602C14.4798 -0.47534 17.5625 -0.47534 19.461 1.42602L25.5511 7.51243H24.5988C23.3456 7.51243 22.1614 8.00115 21.2717 8.89087L16.4472 13.7154ZM7.05504 8.94099C7.9197 8.94099 8.71543 9.29187 9.37958 9.9059L14.1853 14.7116C14.6364 15.1064 15.2254 15.3883 15.8206 15.3883C16.4096 15.3883 16.9986 15.1064 17.4497 14.7116L22.2742 9.8871C22.8882 9.27934 23.7341 8.92846 24.5988 8.92846H26.9609L30.6137 12.5813C32.5122 14.4798 32.5122 17.5625 30.6137 19.461L26.9609 23.1138H24.5988C23.7341 23.1138 22.8882 22.7629 22.2742 22.1489L17.4497 17.3244C16.5788 16.4535 15.0562 16.4535 14.1853 17.3306L9.37958 22.1301C8.71543 22.7441 7.9197 23.095 7.05504 23.095H5.06133L1.42602 19.461C-0.47534 17.5625 -0.47534 14.4798 1.42602 12.5813L5.06133 8.94099H7.05504Z" fill="#FFF"/>
</svg>
