<svg width="42" height="42" viewBox="0 0 42 42" fill="none" xmlns="http://www.w3.org/2000/svg">
<path d="M28.582 12.992H35.5C35.7586 12.9906 36.0115 13.0675 36.2256 13.2124C36.4398 13.3572 36.6051 13.5635 36.7 13.804L38.974 19.488" stroke="#FFF" stroke-width="2" stroke-linecap="round" stroke-linejoin="round"/>
<path d="M2.59766 23.385H28.5807" stroke="#FFF" stroke-width="2" stroke-linecap="round" stroke-linejoin="round"/>
<path d="M30.2044 35.076C32.5362 35.076 34.4264 33.3312 34.4264 31.179C34.4264 29.0267 32.5362 27.282 30.2044 27.282C27.8727 27.282 25.9824 29.0267 25.9824 31.179C25.9824 33.3312 27.8727 35.076 30.2044 35.076Z" stroke="#FFF" stroke-width="2" stroke-linecap="round" stroke-linejoin="round"/>
<path d="M11.3665 35.076C13.6983 35.076 15.5885 33.3312 15.5885 31.179C15.5885 29.0267 13.6983 27.282 11.3665 27.282C9.03479 27.282 7.14453 29.0267 7.14453 31.179C7.14453 33.3312 9.03479 35.076 11.3665 35.076Z" stroke="#FFF" stroke-width="2" stroke-linecap="round" stroke-linejoin="round"/>
<path d="M25.9828 31.1799H15.5898" stroke="#FFF" stroke-width="2" stroke-linecap="round" stroke-linejoin="round"/>
<path d="M7.14466 31.1801H3.89766C3.55287 31.1801 3.22222 31.0431 2.97842 30.7993C2.73462 30.5555 2.59766 30.2248 2.59766 29.8801V11.6931C2.59766 11.3483 2.73462 11.0176 2.97842 10.7738C3.22222 10.53 3.55287 10.3931 3.89766 10.3931H28.5807V27.8021" stroke="#FFF" stroke-width="2" stroke-linecap="round" stroke-linejoin="round"/>
<path d="M28.582 19.4871H38.975V29.8801C38.975 30.0508 38.9414 30.2198 38.8761 30.3775C38.8107 30.5353 38.715 30.6786 38.5943 30.7993C38.4736 30.92 38.3302 31.0158 38.1725 31.0811C38.0148 31.1464 37.8458 31.1801 37.675 31.1801H34.427" stroke="#FFF" stroke-width="2" stroke-linecap="round" stroke-linejoin="round"/>
</svg>
