<svg xmlns="http://www.w3.org/2000/svg" width="68" height="68" viewBox="0 0 68 68">
  <g id="Grupo_17739" data-name="Grupo 17739" transform="translate(-1369.75 -758.138)">
    <path id="Caminho_4672" data-name="Caminho 4672" d="M34,0A34,34,0,1,1,0,34,34,34,0,0,1,34,0Z" transform="translate(1369.75 758.138)" fill="#43e5db"/>
    <g id="_172472_gift_present_icon" data-name="172472_gift_present_icon" transform="translate(1387.172 774.138)">
      <path id="Caminho_4994" data-name="Caminho 4994" d="M14.3,20.148H2V14H33.424v6.148h-12.3" transform="translate(-0.634 -4.436)" fill="none" stroke="#fff" stroke-linecap="round" stroke-miterlimit="10" stroke-width="2"/>
      <rect id="Ret창ngulo_6470" data-name="Ret창ngulo 6470" width="6" height="23" transform="translate(14.078 10)" fill="none" stroke="#fff" stroke-linecap="round" stroke-miterlimit="10" stroke-width="2"/>
      <rect id="Ret창ngulo_6471" data-name="Ret창ngulo 6471" width="34" height="34" transform="translate(0.078)" fill="none"/>
      <path id="Caminho_4995" data-name="Caminho 4995" d="M14.93,23H4V40.078H32.691V23H21.761" transform="translate(-1.267 -7.288)" fill="none" stroke="#fff" stroke-linecap="round" stroke-miterlimit="10" stroke-width="2"/>
      <path id="Caminho_4996" data-name="Caminho 4996" d="M19.613,9.514H14.148C11.13,9.514,8,7.751,8,4.733,8,3.484,8.6,2,10.95,2,15.676,2,15.762,9.514,19.613,9.514Z" transform="translate(-2.535 -0.634)" fill="none" stroke="#fff" stroke-linecap="round" stroke-linejoin="round" stroke-miterlimit="10" stroke-width="2"/>
      <path id="Caminho_4997" data-name="Caminho 4997" d="M25,9.514h5.465c3.018,0,6.148-1.763,6.148-4.782,0-1.249-.6-2.733-2.95-2.733C28.938,2,28.851,9.514,25,9.514Z" transform="translate(-7.922 -0.634)" fill="none" stroke="#fff" stroke-linecap="round" stroke-linejoin="round" stroke-miterlimit="10" stroke-width="2"/>
    </g>
  </g>
</svg>
