<svg width="39" height="43" viewBox="0 0 39 43" fill="none" xmlns="http://www.w3.org/2000/svg">
<path d="M16.3962 0.253089C12.8004 1.44109 10.3242 4.82909 10.2596 8.67909L10.2381 9.95509L8.70929 6.76509C7.05133 3.31109 6.6207 2.82709 5.09193 2.65109C3.26172 2.43109 1.73295 3.66309 1.53916 5.53309C1.40997 6.63309 1.66835 7.22709 3.84308 10.7251L5.35031 13.1451L4.51057 14.0471C3.43397 15.1691 2.37891 17.2591 2.20665 18.6671L2.07746 19.7231L1.06546 19.7891C0.161121 19.8551 0.0749929 19.9211 0.0103972 20.4491C-0.0326667 20.8671 0.053461 21.0651 0.354908 21.1531C0.677887 21.2631 0.807078 21.5931 0.914738 22.4511C1.17312 24.4751 1.68989 26.1911 2.65882 28.2151C4.42444 31.9551 7.30972 34.8151 11.207 36.7731L13.5324 37.9171L12.908 38.4011C11.6807 39.3251 10.841 42.3611 11.7238 42.7131C11.9175 42.7791 15.3411 42.8451 19.3461 42.8451C26.1071 42.8451 26.6669 42.8231 26.8607 42.4491C27.2913 41.6131 26.387 39.1051 25.3535 38.3791C24.9874 38.0931 25.0735 38.0271 26.4085 37.4991C30.3919 35.8931 33.9447 32.3951 35.818 28.2591C36.6362 26.4551 37.4329 23.4191 37.4329 22.1431C37.4329 21.5051 37.5405 21.3071 37.885 21.2191C38.2296 21.1311 38.3157 20.9551 38.2511 20.4711C38.1865 19.8991 38.1004 19.8551 37.196 19.7891L36.184 19.7231L36.0548 18.6891C35.6027 15.2351 32.5882 12.0891 29.057 11.3631L27.8512 11.1211L27.9158 9.40509C28.088 5.57709 26.1501 2.25509 22.7912 0.649089C21.8007 0.165089 21.2409 0.0550894 19.4537 0.0110894C18.0541 -0.0329106 16.9775 0.0550894 16.3962 0.253089ZM21.8007 1.92509C23.2003 2.47509 24.9013 4.03709 25.5688 5.37909L26.021 6.32509H24.4061C23.5017 6.32509 22.5758 6.43509 22.3175 6.56709C21.8007 6.85309 21.2839 8.04109 21.2839 8.94309C21.2839 9.58109 20.9825 9.86709 20.4872 9.66909C20.2935 9.60309 20.2073 9.09709 20.2073 8.17309C20.2073 7.38109 20.0781 6.41309 19.9059 5.99509C19.0231 3.83909 15.6856 4.27909 15.3196 6.58909C15.1258 7.95309 14.609 8.04109 13.4032 6.91909L12.3697 5.95109L12.9511 4.93909C13.7047 3.64109 15.0397 2.47509 16.4177 1.94709C17.925 1.35309 20.2504 1.35309 21.8007 1.92509ZM5.73789 4.49909C6.36231 5.04909 9.29065 11.3851 8.90308 11.3851C8.75236 11.3851 8.19253 11.5831 7.65423 11.8031L6.70682 12.2211L4.91967 9.36109C3.92921 7.77709 3.08946 6.25909 3.0464 5.99509C2.9818 5.70909 3.15406 5.26909 3.5201 4.82909C4.18759 4.01509 5.04887 3.90509 5.73789 4.49909ZM18.2264 6.36909C18.3341 6.52309 18.4848 7.42509 18.5278 8.34909C18.5924 9.75709 18.6786 10.1311 19.1092 10.5931C19.7982 11.3411 20.8318 11.5171 21.6715 11.0771C22.5328 10.6151 22.662 10.3951 22.7912 9.07509L22.8988 7.97509L24.686 7.90909L26.4516 7.84309V9.05309C26.4516 10.5931 26.1501 11.3851 25.6118 11.3851C24.7936 11.3851 22.7912 12.3091 21.7146 13.1671C21.1117 13.6511 20.315 14.5311 19.9274 15.1251C19.5614 15.7191 19.1953 16.2251 19.1307 16.2251C19.0661 16.2251 18.7001 15.7191 18.3341 15.1251C17.9465 14.5311 17.1498 13.6511 16.5469 13.1671C15.4703 12.3091 13.4678 11.3851 12.6496 11.3851C12.0898 11.3851 11.8099 10.5931 11.8099 9.03109V7.82109L12.542 8.48109C13.4678 9.29509 14.0061 9.49309 14.932 9.31709C15.7718 9.14109 16.4608 8.37109 16.6546 7.35909C16.8484 6.47909 17.1283 6.10509 17.6235 6.10509C17.8388 6.10509 18.0972 6.23709 18.2264 6.36909ZM14.0923 13.4751C14.7167 13.7831 15.621 14.4431 16.1163 14.9271C17.1067 15.8951 18.2695 18.1831 18.2695 19.1291V19.7451H10.9486C2.5727 19.7451 3.24018 19.9431 4.10146 17.6111C4.79048 15.7191 6.74989 13.7831 8.60163 13.1671C10.4318 12.5511 12.4774 12.6611 14.0923 13.4751ZM29.2507 13.0571C31.4901 13.7391 33.4064 15.5211 34.2031 17.6771C35.0213 19.9431 35.6673 19.7451 27.3129 19.7451H19.992V19.1291C19.992 18.4471 20.8102 16.5771 21.5208 15.5651C22.2098 14.6191 24.1046 13.3431 25.3104 13.0131C26.7315 12.6391 27.8942 12.6391 29.2507 13.0571ZM35.9256 21.9011C35.9256 23.1331 35.0428 26.0591 34.0524 28.1051C33.2126 29.8651 32.7604 30.5031 31.1025 32.1751C28.9493 34.3751 27.0114 35.5631 24.0831 36.5091C22.705 36.9491 22.0375 37.0151 19.3461 37.0151C16.3962 36.9931 16.1163 36.9711 14.1999 36.2891C11.1855 35.2331 9.41985 34.0671 7.07287 31.6471C5.30725 29.8431 4.85508 29.2271 4.01533 27.4451C3.0464 25.3991 2.33584 23.0671 2.33584 21.8791V21.2851H19.1307H35.9256V21.9011ZM23.9539 39.3031C24.3199 39.5451 24.7936 40.0291 25.009 40.4031L25.3965 41.0851H19.1307H12.865L13.2095 40.4251C13.92 39.0391 14.4583 38.8851 19.1092 38.8851C22.8558 38.8851 23.351 38.9291 23.9539 39.3031Z" fill="#13284C"/>
<path d="M33.2768 22.6491C32.5447 25.5751 31.2959 28.1711 29.7456 29.9311C29.315 30.4371 29.0566 30.9211 29.1212 31.1191C29.1858 31.2951 29.2504 31.4931 29.2504 31.5371C29.2504 31.5811 29.5087 31.6251 29.8533 31.6251C30.9299 31.6251 33.2338 28.1931 34.2027 25.2011C34.8056 23.2871 34.741 22.5171 33.9228 22.4291C33.5783 22.3851 33.3199 22.4731 33.2768 22.6491Z" fill="#13284C"/>
</svg>
