<svg width="25" height="36" viewBox="0 0 25 36" fill="none" xmlns="http://www.w3.org/2000/svg">
<path fill-rule="evenodd" clip-rule="evenodd" d="M14.2857 35.8696H10.7143V29.3478H3.24675C1.45362 29.3478 0 27.8879 0 26.087V11.413C0 5.10979 5.59644 0 12.5 0C19.4036 0 25 5.10979 25 11.413V26.087C25 27.8879 23.5464 29.3478 21.7532 29.3478H14.2857V35.8696ZM20.8054 20.1144C20.7116 20.1705 20.2453 20.4681 20.098 20.555C19.3878 20.9741 18.7128 21.1957 17.8571 21.1957C16.7715 21.1957 16.0843 20.9571 14.4324 20.2117C13.8648 19.9556 13.5886 19.8387 13.2957 19.7371C12.9529 19.6183 12.6936 19.5652 12.5 19.5652C12.1688 19.5652 11.7308 19.7047 10.8995 20.083C10.7675 20.1433 10.7675 20.1433 10.6307 20.2062C9.04662 20.9346 8.28397 21.1957 7.14286 21.1957C6.00304 21.1957 5.22867 20.9321 3.64572 20.2075C3.62056 20.196 3.5958 20.1847 3.57143 20.1736V26.087H21.4286V19.8121C21.2104 19.8922 21.0093 19.9926 20.8054 20.1144ZM21.4286 11.413C21.4286 6.91072 17.4311 3.26087 12.5 3.26087C7.56889 3.26087 3.57143 6.91072 3.57143 11.413V16.5996C4.02281 16.7464 4.52379 16.9617 5.24639 17.2925C6.31713 17.7826 6.76422 17.9348 7.14286 17.9348C7.51885 17.9348 7.95508 17.7855 9.02422 17.2938C9.16302 17.23 9.16302 17.23 9.30652 17.1645C10.6096 16.5715 11.4484 16.3043 12.5 16.3043C13.1824 16.3043 13.8479 16.4406 14.5635 16.6886C14.9975 16.8391 15.3463 16.9867 16.0147 17.2883C17.1229 17.7883 17.5447 17.9348 17.8571 17.9348C17.9409 17.9348 17.9811 17.9216 18.1593 17.8164C18.2365 17.7709 18.692 17.4801 18.8502 17.3856C19.6289 16.9205 20.4409 16.604 21.4286 16.4389V11.413Z" fill="#13284C"/>
</svg>
