<svg width="43" height="37" viewBox="0 0 43 37" fill="none" xmlns="http://www.w3.org/2000/svg">
<mask id="path-1-outside-1_95_3475" maskUnits="userSpaceOnUse" x="0" y="0.25415" width="43" height="37" fill="black">
<rect fill="white" y="0.25415" width="43" height="37"/>
<path d="M37.9858 1.19082C35.5454 1.82833 33.3439 3.59146 32.3179 5.72315C32.1287 6.10168 31.8099 6.58977 31.6007 6.81888C31.3816 7.03803 31.1425 7.31694 31.0628 7.44644L30.9034 7.67554L30.5448 7.18745C30.1464 6.63958 29.3694 6.06183 28.6921 5.8128C28.4032 5.70323 27.945 5.64346 27.3971 5.64346C26.391 5.6335 25.7336 5.86261 24.9267 6.47024L24.3988 6.87865L23.8011 6.4304C23.0341 5.85265 22.3667 5.62354 21.4204 5.62354C20.5139 5.62354 19.8465 5.84269 19.0795 6.38059L18.5117 6.76908L18.0834 6.29094C16.7287 4.77684 14.1986 4.57762 12.7343 5.87257L12.286 6.26106L11.7979 6.01203C9.2877 4.77684 6.31927 6.49016 6.11008 9.30918L6.05032 10.0563H5.63195C4.5661 10.0563 3.31099 10.7237 2.59379 11.67C1.67736 12.8852 1.55783 14.6384 2.30491 15.9134C2.40453 16.0927 2.49418 16.2621 2.49418 16.292C2.49418 16.3119 2.1555 16.3318 1.74709 16.3318H1V19.8083V23.2947L1.41837 23.3245L1.83674 23.3544L2.06585 24.4502C2.3846 26.0141 2.83286 27.4883 2.98227 27.4883C3.01216 27.4883 3.10181 27.4485 3.1815 27.3987C3.30103 27.319 3.29107 27.1696 3.06196 26.4225C2.76313 25.4264 2.39456 23.8027 2.39456 23.5038C2.39456 23.3046 2.42445 23.3046 21.53 23.3046H40.6754L40.6056 23.7728C40.506 24.5697 39.9781 26.5121 39.5996 27.558C38.5337 30.4269 36.6311 33.3056 34.6289 35.0987L33.8918 35.7561H21.52H9.14824L8.54061 35.2281C7.31538 34.1723 5.45265 31.8015 4.7454 30.397C4.45653 29.8292 4.45653 29.8292 4.18758 29.9786C4.00827 30.0782 4.0282 30.1181 4.40672 30.8054C5.4128 32.5884 6.9269 34.4811 8.2617 35.6266L8.9789 36.2542H21.5399H34.101L34.9278 35.4971C37.8962 32.8076 40.0777 28.8231 40.9842 24.4502L41.2033 23.3544L41.6217 23.3245L42.04 23.2947V19.8083V16.3318H41.1435C40.247 16.3318 40.1076 16.272 40.4064 16.023C40.6355 15.8337 41.0041 15.0568 41.1435 14.4491C41.4025 13.3435 41.1037 12.168 40.2371 10.9528C40.1574 10.8332 40.2271 10.6539 40.5757 10.1459C41.5818 8.65174 42.0998 6.69935 42.0002 4.77684C41.9404 3.51177 41.801 2.89418 41.3627 1.95783C40.9244 1.00156 40.8945 0.991595 39.7191 1.00156C39.0616 1.00156 38.454 1.07128 37.9858 1.19082ZM40.9244 2.18694C41.1037 2.54554 41.3129 3.17309 41.4025 3.5815C41.6117 4.57762 41.542 6.33078 41.2531 7.40659C41.0041 8.33298 40.3865 9.66778 39.9781 10.126L39.6992 10.4547L39.0417 10.126L38.3843 9.80723L38.3444 9.15976C38.1751 6.70931 35.5254 5.00595 33.1646 5.8128C32.9455 5.89249 32.7761 5.93234 32.7761 5.90245C32.7761 5.77296 33.2244 5.04579 33.6129 4.5577C34.4098 3.55162 35.8043 2.52562 37.0395 2.02756C38.0755 1.60919 38.6532 1.49961 39.6494 1.51954L40.5957 1.53946L40.9244 2.18694ZM16.5892 5.8128C17.3064 6.14152 17.934 6.73919 18.2926 7.43647C18.5516 7.95446 18.5815 8.11383 18.5815 8.96053C18.5815 9.76739 18.5416 9.97657 18.3324 10.4049C18.0834 10.893 18.0735 10.903 17.5156 10.9727C16.7586 11.0623 15.9816 11.4508 15.3839 12.0087L14.8958 12.4669L14.3779 12.3473C13.6308 12.188 12.7641 11.5903 12.3358 10.9428C11.8676 10.2256 11.7182 9.74747 11.7182 8.91073C11.7282 7.36675 12.8339 5.98214 14.3978 5.56377C14.9257 5.42432 16.0015 5.54385 16.5892 5.8128ZM11.1006 6.28098C11.4692 6.39055 11.788 6.53997 11.8178 6.61966C11.8477 6.68939 11.7581 6.9683 11.6186 7.23725C11.27 7.92457 11.1405 8.77127 11.26 9.5084C11.3098 9.83712 11.3596 10.116 11.3596 10.126C11.3596 10.1459 11.2799 10.1559 11.1803 10.1559C10.8416 10.1559 9.8256 10.7436 9.35743 11.2018C9.09844 11.4508 8.78964 11.8592 8.66014 12.0983C8.53065 12.3473 8.36131 12.5466 8.29158 12.5466C8.03259 12.5466 7.26558 11.7098 6.94682 11.0623C6.66791 10.4846 6.62806 10.3153 6.62806 9.5582C6.62806 8.80116 6.65795 8.64178 6.95678 8.04411C7.74372 6.45032 9.38731 5.74307 11.1006 6.28098ZM22.4265 6.27102C23.1038 6.4802 24.0103 7.07787 24.0103 7.30698C24.0103 7.37671 23.9007 7.6855 23.7712 7.97438C23.6318 8.27321 23.4923 8.72147 23.4624 8.98046C23.3927 9.43867 23.3728 9.46855 22.8548 9.69766C22.2073 9.9965 21.4005 10.7336 21.0419 11.3512C20.9024 11.6002 20.7829 11.8094 20.7729 11.8294C20.763 11.8393 20.494 11.6999 20.1852 11.5106C19.8764 11.3213 19.4083 11.1221 19.1393 11.0524L18.6711 10.9428L18.9002 10.2754C19.1692 9.46855 19.1891 8.65174 18.96 7.82496L18.7907 7.23725L19.1393 6.94838C20.1055 6.1216 21.2311 5.89249 22.4265 6.27102ZM28.3036 6.23117C29.0507 6.44036 29.8077 6.98822 30.2161 7.59585L30.5548 8.11383L30.5349 9.5084L30.515 10.903L30.0269 10.9727C29.7579 11.0125 29.23 11.2018 28.8514 11.3911C28.4729 11.5903 28.1542 11.7397 28.1442 11.7198C28.1342 11.7098 28.0147 11.4907 27.8653 11.2416C27.2377 10.136 26.0822 9.44863 24.7275 9.3789L23.8908 9.3291L23.9605 8.9705C24.3191 6.9683 26.3711 5.67335 28.3036 6.23117ZM35.3661 6.23117C36.6809 6.61966 37.6272 7.69546 37.8464 9.03026C37.8962 9.34902 37.9261 9.61797 37.9062 9.63789C37.8962 9.64785 37.5177 9.67774 37.0794 9.69766C36.3821 9.71758 36.1729 9.77735 35.5254 10.0861C34.7584 10.4746 34.101 11.0922 33.7922 11.7198C33.7025 11.8991 33.6029 12.0485 33.573 12.0485C33.5332 12.0485 33.3041 11.8891 33.0551 11.6999C32.6367 11.3711 31.6705 10.9528 31.3517 10.9528C30.9433 10.9528 30.8736 9.01034 31.2521 8.15368C31.9394 6.6097 33.7623 5.75304 35.3661 6.23117ZM25.7436 10.0662C26.4209 10.3153 27.168 10.9727 27.5266 11.6401L27.8055 12.1481L27.5665 12.4669C26.9389 13.3036 26.6401 14.3695 26.7496 15.3357C26.8094 15.8935 26.8094 15.9134 26.5205 16.1226C26.2416 16.3119 26.0922 16.3318 24.4785 16.3318H22.7353L22.3368 16.0031C20.6932 14.6782 20.5837 12.3075 22.0978 10.8233C23.0341 9.89688 24.4984 9.59805 25.7436 10.0662ZM38.7927 10.5444C39.5398 10.9129 40.0677 11.4508 40.4363 12.2378C40.6554 12.7059 40.6953 12.935 40.6953 13.6423C40.6953 14.6085 40.4961 15.1663 39.8884 15.9035L39.5398 16.3318H37.2587H34.9776L34.6289 15.9035C34.0313 15.1663 33.832 14.6085 33.832 13.6423C33.832 12.9749 33.8818 12.686 34.0512 12.3075C34.9078 10.4248 36.9798 9.64785 38.7927 10.5444ZM6.44876 11.1719C6.7974 11.909 7.15601 12.3573 7.74372 12.7856L8.17205 13.0944L8.21189 14.0905C8.23181 14.8277 8.29158 15.2062 8.45096 15.5548C8.78964 16.3218 8.77968 16.3318 5.75148 16.3318H3.19146L2.89262 15.9134C1.3586 13.8017 3.02212 10.5842 5.65187 10.5543H6.15989L6.44876 11.1719ZM12.7841 12.1182C13.063 12.3274 13.5909 12.5964 13.9495 12.7159C14.3081 12.8354 14.587 12.9749 14.5771 13.0147C14.5572 13.0645 14.4575 13.3634 14.338 13.6921C14.1687 14.1802 14.1388 14.4392 14.1786 15.0867C14.2085 15.5249 14.2583 15.9832 14.2982 16.1027L14.3679 16.3318H11.9274H9.49688L9.23789 15.9533C8.441 14.738 8.50076 12.945 9.37735 11.8692C9.76583 11.401 10.4432 10.9328 10.9911 10.7436L11.4991 10.5742L11.8876 11.152C12.0967 11.4807 12.4952 11.909 12.7841 12.1182ZM18.691 11.4608C19.3186 11.5704 20.1055 11.9489 20.3944 12.2676C20.5339 12.427 20.5637 12.6063 20.5438 13.1243C20.504 13.9013 20.7729 14.8775 21.1714 15.4552C21.3507 15.7242 21.4104 15.9035 21.3606 16.0828L21.3009 16.3318H18.1233H14.9456L14.8261 16.0529C14.7564 15.9035 14.7066 15.3755 14.7066 14.8874C14.6966 14.1204 14.7365 13.9112 14.9656 13.4231C15.4437 12.3971 16.4398 11.6401 17.5356 11.4508C17.7846 11.411 18.0137 11.3711 18.0436 11.3612C18.0735 11.3612 18.3623 11.401 18.691 11.4608ZM31.8996 11.6202C32.1486 11.7098 32.5769 11.9489 32.8459 12.1481L33.324 12.5167V13.5028C33.334 14.3595 33.3639 14.5687 33.6129 15.1365C33.7723 15.4951 33.9018 15.8935 33.9117 16.033L33.9217 16.282L30.7142 16.3119L27.5166 16.3318L27.3772 15.9632C27.3075 15.7541 27.2477 15.246 27.2577 14.8376C27.2577 13.9411 27.5565 13.204 28.184 12.5266C29.1403 11.4807 30.505 11.152 31.8996 11.6202ZM41.542 19.8182V22.8066H21.52H1.49806V19.8182V16.8299H21.52H41.542V19.8182Z"/>
</mask>
<path d="M37.9858 1.19082C35.5454 1.82833 33.3439 3.59146 32.3179 5.72315C32.1287 6.10168 31.8099 6.58977 31.6007 6.81888C31.3816 7.03803 31.1425 7.31694 31.0628 7.44644L30.9034 7.67554L30.5448 7.18745C30.1464 6.63958 29.3694 6.06183 28.6921 5.8128C28.4032 5.70323 27.945 5.64346 27.3971 5.64346C26.391 5.6335 25.7336 5.86261 24.9267 6.47024L24.3988 6.87865L23.8011 6.4304C23.0341 5.85265 22.3667 5.62354 21.4204 5.62354C20.5139 5.62354 19.8465 5.84269 19.0795 6.38059L18.5117 6.76908L18.0834 6.29094C16.7287 4.77684 14.1986 4.57762 12.7343 5.87257L12.286 6.26106L11.7979 6.01203C9.2877 4.77684 6.31927 6.49016 6.11008 9.30918L6.05032 10.0563H5.63195C4.5661 10.0563 3.31099 10.7237 2.59379 11.67C1.67736 12.8852 1.55783 14.6384 2.30491 15.9134C2.40453 16.0927 2.49418 16.2621 2.49418 16.292C2.49418 16.3119 2.1555 16.3318 1.74709 16.3318H1V19.8083V23.2947L1.41837 23.3245L1.83674 23.3544L2.06585 24.4502C2.3846 26.0141 2.83286 27.4883 2.98227 27.4883C3.01216 27.4883 3.10181 27.4485 3.1815 27.3987C3.30103 27.319 3.29107 27.1696 3.06196 26.4225C2.76313 25.4264 2.39456 23.8027 2.39456 23.5038C2.39456 23.3046 2.42445 23.3046 21.53 23.3046H40.6754L40.6056 23.7728C40.506 24.5697 39.9781 26.5121 39.5996 27.558C38.5337 30.4269 36.6311 33.3056 34.6289 35.0987L33.8918 35.7561H21.52H9.14824L8.54061 35.2281C7.31538 34.1723 5.45265 31.8015 4.7454 30.397C4.45653 29.8292 4.45653 29.8292 4.18758 29.9786C4.00827 30.0782 4.0282 30.1181 4.40672 30.8054C5.4128 32.5884 6.9269 34.4811 8.2617 35.6266L8.9789 36.2542H21.5399H34.101L34.9278 35.4971C37.8962 32.8076 40.0777 28.8231 40.9842 24.4502L41.2033 23.3544L41.6217 23.3245L42.04 23.2947V19.8083V16.3318H41.1435C40.247 16.3318 40.1076 16.272 40.4064 16.023C40.6355 15.8337 41.0041 15.0568 41.1435 14.4491C41.4025 13.3435 41.1037 12.168 40.2371 10.9528C40.1574 10.8332 40.2271 10.6539 40.5757 10.1459C41.5818 8.65174 42.0998 6.69935 42.0002 4.77684C41.9404 3.51177 41.801 2.89418 41.3627 1.95783C40.9244 1.00156 40.8945 0.991595 39.7191 1.00156C39.0616 1.00156 38.454 1.07128 37.9858 1.19082ZM40.9244 2.18694C41.1037 2.54554 41.3129 3.17309 41.4025 3.5815C41.6117 4.57762 41.542 6.33078 41.2531 7.40659C41.0041 8.33298 40.3865 9.66778 39.9781 10.126L39.6992 10.4547L39.0417 10.126L38.3843 9.80723L38.3444 9.15976C38.1751 6.70931 35.5254 5.00595 33.1646 5.8128C32.9455 5.89249 32.7761 5.93234 32.7761 5.90245C32.7761 5.77296 33.2244 5.04579 33.6129 4.5577C34.4098 3.55162 35.8043 2.52562 37.0395 2.02756C38.0755 1.60919 38.6532 1.49961 39.6494 1.51954L40.5957 1.53946L40.9244 2.18694ZM16.5892 5.8128C17.3064 6.14152 17.934 6.73919 18.2926 7.43647C18.5516 7.95446 18.5815 8.11383 18.5815 8.96053C18.5815 9.76739 18.5416 9.97657 18.3324 10.4049C18.0834 10.893 18.0735 10.903 17.5156 10.9727C16.7586 11.0623 15.9816 11.4508 15.3839 12.0087L14.8958 12.4669L14.3779 12.3473C13.6308 12.188 12.7641 11.5903 12.3358 10.9428C11.8676 10.2256 11.7182 9.74747 11.7182 8.91073C11.7282 7.36675 12.8339 5.98214 14.3978 5.56377C14.9257 5.42432 16.0015 5.54385 16.5892 5.8128ZM11.1006 6.28098C11.4692 6.39055 11.788 6.53997 11.8178 6.61966C11.8477 6.68939 11.7581 6.9683 11.6186 7.23725C11.27 7.92457 11.1405 8.77127 11.26 9.5084C11.3098 9.83712 11.3596 10.116 11.3596 10.126C11.3596 10.1459 11.2799 10.1559 11.1803 10.1559C10.8416 10.1559 9.8256 10.7436 9.35743 11.2018C9.09844 11.4508 8.78964 11.8592 8.66014 12.0983C8.53065 12.3473 8.36131 12.5466 8.29158 12.5466C8.03259 12.5466 7.26558 11.7098 6.94682 11.0623C6.66791 10.4846 6.62806 10.3153 6.62806 9.5582C6.62806 8.80116 6.65795 8.64178 6.95678 8.04411C7.74372 6.45032 9.38731 5.74307 11.1006 6.28098ZM22.4265 6.27102C23.1038 6.4802 24.0103 7.07787 24.0103 7.30698C24.0103 7.37671 23.9007 7.6855 23.7712 7.97438C23.6318 8.27321 23.4923 8.72147 23.4624 8.98046C23.3927 9.43867 23.3728 9.46855 22.8548 9.69766C22.2073 9.9965 21.4005 10.7336 21.0419 11.3512C20.9024 11.6002 20.7829 11.8094 20.7729 11.8294C20.763 11.8393 20.494 11.6999 20.1852 11.5106C19.8764 11.3213 19.4083 11.1221 19.1393 11.0524L18.6711 10.9428L18.9002 10.2754C19.1692 9.46855 19.1891 8.65174 18.96 7.82496L18.7907 7.23725L19.1393 6.94838C20.1055 6.1216 21.2311 5.89249 22.4265 6.27102ZM28.3036 6.23117C29.0507 6.44036 29.8077 6.98822 30.2161 7.59585L30.5548 8.11383L30.5349 9.5084L30.515 10.903L30.0269 10.9727C29.7579 11.0125 29.23 11.2018 28.8514 11.3911C28.4729 11.5903 28.1542 11.7397 28.1442 11.7198C28.1342 11.7098 28.0147 11.4907 27.8653 11.2416C27.2377 10.136 26.0822 9.44863 24.7275 9.3789L23.8908 9.3291L23.9605 8.9705C24.3191 6.9683 26.3711 5.67335 28.3036 6.23117ZM35.3661 6.23117C36.6809 6.61966 37.6272 7.69546 37.8464 9.03026C37.8962 9.34902 37.9261 9.61797 37.9062 9.63789C37.8962 9.64785 37.5177 9.67774 37.0794 9.69766C36.3821 9.71758 36.1729 9.77735 35.5254 10.0861C34.7584 10.4746 34.101 11.0922 33.7922 11.7198C33.7025 11.8991 33.6029 12.0485 33.573 12.0485C33.5332 12.0485 33.3041 11.8891 33.0551 11.6999C32.6367 11.3711 31.6705 10.9528 31.3517 10.9528C30.9433 10.9528 30.8736 9.01034 31.2521 8.15368C31.9394 6.6097 33.7623 5.75304 35.3661 6.23117ZM25.7436 10.0662C26.4209 10.3153 27.168 10.9727 27.5266 11.6401L27.8055 12.1481L27.5665 12.4669C26.9389 13.3036 26.6401 14.3695 26.7496 15.3357C26.8094 15.8935 26.8094 15.9134 26.5205 16.1226C26.2416 16.3119 26.0922 16.3318 24.4785 16.3318H22.7353L22.3368 16.0031C20.6932 14.6782 20.5837 12.3075 22.0978 10.8233C23.0341 9.89688 24.4984 9.59805 25.7436 10.0662ZM38.7927 10.5444C39.5398 10.9129 40.0677 11.4508 40.4363 12.2378C40.6554 12.7059 40.6953 12.935 40.6953 13.6423C40.6953 14.6085 40.4961 15.1663 39.8884 15.9035L39.5398 16.3318H37.2587H34.9776L34.6289 15.9035C34.0313 15.1663 33.832 14.6085 33.832 13.6423C33.832 12.9749 33.8818 12.686 34.0512 12.3075C34.9078 10.4248 36.9798 9.64785 38.7927 10.5444ZM6.44876 11.1719C6.7974 11.909 7.15601 12.3573 7.74372 12.7856L8.17205 13.0944L8.21189 14.0905C8.23181 14.8277 8.29158 15.2062 8.45096 15.5548C8.78964 16.3218 8.77968 16.3318 5.75148 16.3318H3.19146L2.89262 15.9134C1.3586 13.8017 3.02212 10.5842 5.65187 10.5543H6.15989L6.44876 11.1719ZM12.7841 12.1182C13.063 12.3274 13.5909 12.5964 13.9495 12.7159C14.3081 12.8354 14.587 12.9749 14.5771 13.0147C14.5572 13.0645 14.4575 13.3634 14.338 13.6921C14.1687 14.1802 14.1388 14.4392 14.1786 15.0867C14.2085 15.5249 14.2583 15.9832 14.2982 16.1027L14.3679 16.3318H11.9274H9.49688L9.23789 15.9533C8.441 14.738 8.50076 12.945 9.37735 11.8692C9.76583 11.401 10.4432 10.9328 10.9911 10.7436L11.4991 10.5742L11.8876 11.152C12.0967 11.4807 12.4952 11.909 12.7841 12.1182ZM18.691 11.4608C19.3186 11.5704 20.1055 11.9489 20.3944 12.2676C20.5339 12.427 20.5637 12.6063 20.5438 13.1243C20.504 13.9013 20.7729 14.8775 21.1714 15.4552C21.3507 15.7242 21.4104 15.9035 21.3606 16.0828L21.3009 16.3318H18.1233H14.9456L14.8261 16.0529C14.7564 15.9035 14.7066 15.3755 14.7066 14.8874C14.6966 14.1204 14.7365 13.9112 14.9656 13.4231C15.4437 12.3971 16.4398 11.6401 17.5356 11.4508C17.7846 11.411 18.0137 11.3711 18.0436 11.3612C18.0735 11.3612 18.3623 11.401 18.691 11.4608ZM31.8996 11.6202C32.1486 11.7098 32.5769 11.9489 32.8459 12.1481L33.324 12.5167V13.5028C33.334 14.3595 33.3639 14.5687 33.6129 15.1365C33.7723 15.4951 33.9018 15.8935 33.9117 16.033L33.9217 16.282L30.7142 16.3119L27.5166 16.3318L27.3772 15.9632C27.3075 15.7541 27.2477 15.246 27.2577 14.8376C27.2577 13.9411 27.5565 13.204 28.184 12.5266C29.1403 11.4807 30.505 11.152 31.8996 11.6202ZM41.542 19.8182V22.8066H21.52H1.49806V19.8182V16.8299H21.52H41.542V19.8182Z" fill="#13284C"/>
<path d="M37.9858 1.19082C35.5454 1.82833 33.3439 3.59146 32.3179 5.72315C32.1287 6.10168 31.8099 6.58977 31.6007 6.81888C31.3816 7.03803 31.1425 7.31694 31.0628 7.44644L30.9034 7.67554L30.5448 7.18745C30.1464 6.63958 29.3694 6.06183 28.6921 5.8128C28.4032 5.70323 27.945 5.64346 27.3971 5.64346C26.391 5.6335 25.7336 5.86261 24.9267 6.47024L24.3988 6.87865L23.8011 6.4304C23.0341 5.85265 22.3667 5.62354 21.4204 5.62354C20.5139 5.62354 19.8465 5.84269 19.0795 6.38059L18.5117 6.76908L18.0834 6.29094C16.7287 4.77684 14.1986 4.57762 12.7343 5.87257L12.286 6.26106L11.7979 6.01203C9.2877 4.77684 6.31927 6.49016 6.11008 9.30918L6.05032 10.0563H5.63195C4.5661 10.0563 3.31099 10.7237 2.59379 11.67C1.67736 12.8852 1.55783 14.6384 2.30491 15.9134C2.40453 16.0927 2.49418 16.2621 2.49418 16.292C2.49418 16.3119 2.1555 16.3318 1.74709 16.3318H1V19.8083V23.2947L1.41837 23.3245L1.83674 23.3544L2.06585 24.4502C2.3846 26.0141 2.83286 27.4883 2.98227 27.4883C3.01216 27.4883 3.10181 27.4485 3.1815 27.3987C3.30103 27.319 3.29107 27.1696 3.06196 26.4225C2.76313 25.4264 2.39456 23.8027 2.39456 23.5038C2.39456 23.3046 2.42445 23.3046 21.53 23.3046H40.6754L40.6056 23.7728C40.506 24.5697 39.9781 26.5121 39.5996 27.558C38.5337 30.4269 36.6311 33.3056 34.6289 35.0987L33.8918 35.7561H21.52H9.14824L8.54061 35.2281C7.31538 34.1723 5.45265 31.8015 4.7454 30.397C4.45653 29.8292 4.45653 29.8292 4.18758 29.9786C4.00827 30.0782 4.0282 30.1181 4.40672 30.8054C5.4128 32.5884 6.9269 34.4811 8.2617 35.6266L8.9789 36.2542H21.5399H34.101L34.9278 35.4971C37.8962 32.8076 40.0777 28.8231 40.9842 24.4502L41.2033 23.3544L41.6217 23.3245L42.04 23.2947V19.8083V16.3318H41.1435C40.247 16.3318 40.1076 16.272 40.4064 16.023C40.6355 15.8337 41.0041 15.0568 41.1435 14.4491C41.4025 13.3435 41.1037 12.168 40.2371 10.9528C40.1574 10.8332 40.2271 10.6539 40.5757 10.1459C41.5818 8.65174 42.0998 6.69935 42.0002 4.77684C41.9404 3.51177 41.801 2.89418 41.3627 1.95783C40.9244 1.00156 40.8945 0.991595 39.7191 1.00156C39.0616 1.00156 38.454 1.07128 37.9858 1.19082ZM40.9244 2.18694C41.1037 2.54554 41.3129 3.17309 41.4025 3.5815C41.6117 4.57762 41.542 6.33078 41.2531 7.40659C41.0041 8.33298 40.3865 9.66778 39.9781 10.126L39.6992 10.4547L39.0417 10.126L38.3843 9.80723L38.3444 9.15976C38.1751 6.70931 35.5254 5.00595 33.1646 5.8128C32.9455 5.89249 32.7761 5.93234 32.7761 5.90245C32.7761 5.77296 33.2244 5.04579 33.6129 4.5577C34.4098 3.55162 35.8043 2.52562 37.0395 2.02756C38.0755 1.60919 38.6532 1.49961 39.6494 1.51954L40.5957 1.53946L40.9244 2.18694ZM16.5892 5.8128C17.3064 6.14152 17.934 6.73919 18.2926 7.43647C18.5516 7.95446 18.5815 8.11383 18.5815 8.96053C18.5815 9.76739 18.5416 9.97657 18.3324 10.4049C18.0834 10.893 18.0735 10.903 17.5156 10.9727C16.7586 11.0623 15.9816 11.4508 15.3839 12.0087L14.8958 12.4669L14.3779 12.3473C13.6308 12.188 12.7641 11.5903 12.3358 10.9428C11.8676 10.2256 11.7182 9.74747 11.7182 8.91073C11.7282 7.36675 12.8339 5.98214 14.3978 5.56377C14.9257 5.42432 16.0015 5.54385 16.5892 5.8128ZM11.1006 6.28098C11.4692 6.39055 11.788 6.53997 11.8178 6.61966C11.8477 6.68939 11.7581 6.9683 11.6186 7.23725C11.27 7.92457 11.1405 8.77127 11.26 9.5084C11.3098 9.83712 11.3596 10.116 11.3596 10.126C11.3596 10.1459 11.2799 10.1559 11.1803 10.1559C10.8416 10.1559 9.8256 10.7436 9.35743 11.2018C9.09844 11.4508 8.78964 11.8592 8.66014 12.0983C8.53065 12.3473 8.36131 12.5466 8.29158 12.5466C8.03259 12.5466 7.26558 11.7098 6.94682 11.0623C6.66791 10.4846 6.62806 10.3153 6.62806 9.5582C6.62806 8.80116 6.65795 8.64178 6.95678 8.04411C7.74372 6.45032 9.38731 5.74307 11.1006 6.28098ZM22.4265 6.27102C23.1038 6.4802 24.0103 7.07787 24.0103 7.30698C24.0103 7.37671 23.9007 7.6855 23.7712 7.97438C23.6318 8.27321 23.4923 8.72147 23.4624 8.98046C23.3927 9.43867 23.3728 9.46855 22.8548 9.69766C22.2073 9.9965 21.4005 10.7336 21.0419 11.3512C20.9024 11.6002 20.7829 11.8094 20.7729 11.8294C20.763 11.8393 20.494 11.6999 20.1852 11.5106C19.8764 11.3213 19.4083 11.1221 19.1393 11.0524L18.6711 10.9428L18.9002 10.2754C19.1692 9.46855 19.1891 8.65174 18.96 7.82496L18.7907 7.23725L19.1393 6.94838C20.1055 6.1216 21.2311 5.89249 22.4265 6.27102ZM28.3036 6.23117C29.0507 6.44036 29.8077 6.98822 30.2161 7.59585L30.5548 8.11383L30.5349 9.5084L30.515 10.903L30.0269 10.9727C29.7579 11.0125 29.23 11.2018 28.8514 11.3911C28.4729 11.5903 28.1542 11.7397 28.1442 11.7198C28.1342 11.7098 28.0147 11.4907 27.8653 11.2416C27.2377 10.136 26.0822 9.44863 24.7275 9.3789L23.8908 9.3291L23.9605 8.9705C24.3191 6.9683 26.3711 5.67335 28.3036 6.23117ZM35.3661 6.23117C36.6809 6.61966 37.6272 7.69546 37.8464 9.03026C37.8962 9.34902 37.9261 9.61797 37.9062 9.63789C37.8962 9.64785 37.5177 9.67774 37.0794 9.69766C36.3821 9.71758 36.1729 9.77735 35.5254 10.0861C34.7584 10.4746 34.101 11.0922 33.7922 11.7198C33.7025 11.8991 33.6029 12.0485 33.573 12.0485C33.5332 12.0485 33.3041 11.8891 33.0551 11.6999C32.6367 11.3711 31.6705 10.9528 31.3517 10.9528C30.9433 10.9528 30.8736 9.01034 31.2521 8.15368C31.9394 6.6097 33.7623 5.75304 35.3661 6.23117ZM25.7436 10.0662C26.4209 10.3153 27.168 10.9727 27.5266 11.6401L27.8055 12.1481L27.5665 12.4669C26.9389 13.3036 26.6401 14.3695 26.7496 15.3357C26.8094 15.8935 26.8094 15.9134 26.5205 16.1226C26.2416 16.3119 26.0922 16.3318 24.4785 16.3318H22.7353L22.3368 16.0031C20.6932 14.6782 20.5837 12.3075 22.0978 10.8233C23.0341 9.89688 24.4984 9.59805 25.7436 10.0662ZM38.7927 10.5444C39.5398 10.9129 40.0677 11.4508 40.4363 12.2378C40.6554 12.7059 40.6953 12.935 40.6953 13.6423C40.6953 14.6085 40.4961 15.1663 39.8884 15.9035L39.5398 16.3318H37.2587H34.9776L34.6289 15.9035C34.0313 15.1663 33.832 14.6085 33.832 13.6423C33.832 12.9749 33.8818 12.686 34.0512 12.3075C34.9078 10.4248 36.9798 9.64785 38.7927 10.5444ZM6.44876 11.1719C6.7974 11.909 7.15601 12.3573 7.74372 12.7856L8.17205 13.0944L8.21189 14.0905C8.23181 14.8277 8.29158 15.2062 8.45096 15.5548C8.78964 16.3218 8.77968 16.3318 5.75148 16.3318H3.19146L2.89262 15.9134C1.3586 13.8017 3.02212 10.5842 5.65187 10.5543H6.15989L6.44876 11.1719ZM12.7841 12.1182C13.063 12.3274 13.5909 12.5964 13.9495 12.7159C14.3081 12.8354 14.587 12.9749 14.5771 13.0147C14.5572 13.0645 14.4575 13.3634 14.338 13.6921C14.1687 14.1802 14.1388 14.4392 14.1786 15.0867C14.2085 15.5249 14.2583 15.9832 14.2982 16.1027L14.3679 16.3318H11.9274H9.49688L9.23789 15.9533C8.441 14.738 8.50076 12.945 9.37735 11.8692C9.76583 11.401 10.4432 10.9328 10.9911 10.7436L11.4991 10.5742L11.8876 11.152C12.0967 11.4807 12.4952 11.909 12.7841 12.1182ZM18.691 11.4608C19.3186 11.5704 20.1055 11.9489 20.3944 12.2676C20.5339 12.427 20.5637 12.6063 20.5438 13.1243C20.504 13.9013 20.7729 14.8775 21.1714 15.4552C21.3507 15.7242 21.4104 15.9035 21.3606 16.0828L21.3009 16.3318H18.1233H14.9456L14.8261 16.0529C14.7564 15.9035 14.7066 15.3755 14.7066 14.8874C14.6966 14.1204 14.7365 13.9112 14.9656 13.4231C15.4437 12.3971 16.4398 11.6401 17.5356 11.4508C17.7846 11.411 18.0137 11.3711 18.0436 11.3612C18.0735 11.3612 18.3623 11.401 18.691 11.4608ZM31.8996 11.6202C32.1486 11.7098 32.5769 11.9489 32.8459 12.1481L33.324 12.5167V13.5028C33.334 14.3595 33.3639 14.5687 33.6129 15.1365C33.7723 15.4951 33.9018 15.8935 33.9117 16.033L33.9217 16.282L30.7142 16.3119L27.5166 16.3318L27.3772 15.9632C27.3075 15.7541 27.2477 15.246 27.2577 14.8376C27.2577 13.9411 27.5565 13.204 28.184 12.5266C29.1403 11.4807 30.505 11.152 31.8996 11.6202ZM41.542 19.8182V22.8066H21.52H1.49806V19.8182V16.8299H21.52H41.542V19.8182Z" stroke="#13284C" mask="url(#path-1-outside-1_95_3475)"/>
</svg>
