<svg width="36" height="38" viewBox="0 0 36 38" fill="none" xmlns="http://www.w3.org/2000/svg">
<path d="M31.6156 0.116405C31.4043 0.189434 29.5115 1.1315 27.3989 2.20502L23.5541 4.15487L22.7006 4.10375C22.1767 4.07454 21.6781 4.08915 21.4161 4.13296C21.0021 4.21329 20.9514 4.20599 20.3599 3.9723C19.5486 3.65098 18.5093 3.37347 17.5544 3.22011C16.5065 3.05214 14.4362 3.05945 13.3631 3.22741C8.41965 4.00882 4.57479 7.36812 3.72131 11.6549C3.3664 13.466 3.60301 14.5541 4.51564 15.3063C4.7776 15.5254 4.80295 15.5765 4.71844 15.7518C4.65929 15.9051 4.48184 16.0074 4.00862 16.1972C2.40307 16.818 0.873579 17.9353 0.349664 18.8555C-0.148901 19.7391 -0.165802 19.4981 0.636972 25.764C1.03413 28.875 1.39749 31.65 1.4482 31.9275C1.5834 32.6797 1.95521 33.2859 2.69883 33.9577C4.59169 35.6739 8.1577 36.857 12.6279 37.2659C14.0644 37.3901 17.3854 37.412 18.6952 37.3024C24.3991 36.8058 28.5989 35.1481 29.8917 32.8842L30.2044 32.3365L30.9818 26.2605C31.8353 19.615 31.8353 19.7245 31.3959 18.9285C30.7199 17.687 29.2242 16.723 26.4356 15.7299L26.1145 15.6203L26.4694 15.3063C26.6637 15.131 26.9426 14.7805 27.0863 14.5176C27.3398 14.0502 27.3482 14.021 27.3482 12.984C27.3398 11.8521 27.2722 11.4723 26.8666 10.3112C26.6215 9.60279 26.613 9.56627 26.7482 9.32528C26.8666 9.10619 27.3905 8.82138 30.7706 7.10522C32.9085 6.01709 34.8098 5.0093 34.9957 4.85594C35.7478 4.24251 36.052 3.57065 35.9928 2.62128C35.9675 2.13199 35.9083 1.8983 35.7224 1.56967C35.4182 1.02196 34.8267 0.503455 34.1929 0.240553C33.7535 0.0506798 33.5761 0.0214685 32.8409 0.00686283C32.1733 -0.0150457 31.9114 0.0141657 31.6156 0.116405ZM33.5507 1.46743C34.4126 1.85448 34.7337 2.75273 34.2774 3.48301C34.1422 3.68749 33.9394 3.90658 33.8211 3.9796C33.7028 4.04533 31.9114 4.96549 29.841 6.01709C27.7707 7.0687 25.937 8.05458 25.768 8.20064C25.5906 8.354 25.3793 8.63881 25.2779 8.8798C24.8723 9.82917 24.4751 10.2016 23.1738 10.8589C22.6921 11.1072 22.2865 11.297 22.2781 11.2897C22.2696 11.2751 22.1006 10.9246 21.9063 10.501C21.2978 9.18652 20.6303 8.25906 19.2106 6.77659L19.0163 6.57941L19.8866 6.13394C20.3683 5.88564 20.9007 5.63735 21.0781 5.57162C21.5175 5.41826 22.2696 5.35984 22.8696 5.44747C23.7907 5.57892 23.8583 5.55702 28.0749 3.41729C30.2213 2.32186 32.055 1.40901 32.1564 1.37249C32.5113 1.24834 33.1789 1.29216 33.5507 1.46743ZM16.5741 4.43968C17.3262 4.52001 18.5769 4.76831 18.9149 4.89976C19.1008 4.97279 19.067 4.9947 18.4163 5.32333L17.7149 5.67386L17.4361 5.5205C16.8699 5.22109 16.2361 5.49859 16.2361 6.04631C16.2361 6.36763 16.3375 6.48448 17.0136 6.91534C17.7741 7.41194 18.8642 8.44163 19.3796 9.15731C20.5035 10.7347 20.9598 11.8301 21.1035 13.3491C21.1795 14.1086 21.3316 14.2985 21.8556 14.2985C22.0837 14.2985 22.2865 14.2474 22.4133 14.1598C22.5992 14.0283 22.6161 13.9626 22.6161 13.3564V12.6992L23.6724 12.1661C24.247 11.874 24.9061 11.5088 25.1258 11.3628L25.523 11.0853L25.6075 11.3628C25.9117 12.334 25.9539 13.5025 25.7089 13.9188C25.354 14.5103 24.6188 15.0069 23.2245 15.5765C21.5513 16.263 21.5598 16.2411 21.5598 19.3667C21.5598 21.5867 21.5513 21.7255 21.3908 21.9519C21.1542 22.2805 20.6979 22.4485 20.2923 22.3389C20.1233 22.2951 19.8951 22.1783 19.7768 22.0687C19.574 21.8788 19.574 21.8788 19.5317 19.8633L19.4895 17.8404L19.2529 17.4898C18.9402 17.0371 18.4924 16.7815 17.9177 16.7377C17.6642 16.7157 16.8615 16.7303 16.1263 16.7669C14.8418 16.8326 14.7742 16.8399 14.4362 17.0444C14.2419 17.1685 13.9884 17.4095 13.8701 17.5848C13.6842 17.8769 13.6588 18.023 13.6166 18.9504L13.5743 19.9947L13.2954 20.2284C13.0588 20.4329 12.9659 20.4694 12.6025 20.4694C12.2392 20.4694 12.1462 20.4329 11.9096 20.2284L11.6307 19.9947L11.5885 18.6583C11.5378 17.1977 11.504 17.0882 10.9716 16.6427C10.735 16.4528 10.4731 16.3506 9.67029 16.1461C7.69293 15.6495 6.36624 15.058 5.63952 14.3642C5.13251 13.8822 5.048 13.6193 5.10716 12.8087C5.27616 10.6179 6.36624 8.57309 8.2084 6.99567C10.4055 5.10424 13.5997 4.12566 16.5741 4.43968ZM8.47881 17.2269C9.02807 17.3803 9.55199 17.5118 9.63649 17.5118C9.9745 17.5118 10.0252 17.6943 10.0675 19.038C10.1182 20.5278 10.1858 20.6958 10.9125 21.2581C11.411 21.6452 11.935 21.8204 12.6025 21.8204C13.287 21.8204 13.8025 21.6452 14.3348 21.2216C14.9855 20.7104 15.1376 20.3233 15.1376 19.206C15.1376 18.6218 15.1714 18.3078 15.2475 18.2274C15.3235 18.1398 15.6108 18.1033 16.5995 18.0668L17.8417 18.0156L17.9262 18.2055C17.9769 18.3151 18.0107 19.1695 18.0107 20.17C18.0107 22.1856 18.0529 22.3973 18.6107 22.9451C19.3627 23.6826 20.6472 23.909 21.6612 23.4782C22.1767 23.2591 22.5485 22.9378 22.8442 22.4558C23.0301 22.1564 23.0386 22.0687 23.0808 19.6296L23.1231 17.1101L23.9259 16.7669C24.3653 16.5843 24.7709 16.4236 24.83 16.4236C24.9568 16.4163 25.3962 17.3949 25.6244 18.1909C25.7427 18.5999 25.8103 19.133 25.8441 19.8852C25.8948 21.1486 25.7765 21.9373 25.3455 23.0327L25.092 23.7192L24.5258 23.8579C23.0977 24.2231 21.3063 24.5298 19.5317 24.7123C17.9853 24.873 13.794 24.9022 12.3913 24.7562C10.3294 24.5444 8.52951 24.2231 6.75495 23.7411L5.77472 23.4782L5.59727 22.9889C4.9635 21.2654 4.92125 19.4616 5.47897 17.8039C5.58882 17.4606 5.77472 17.0006 5.89303 16.7815L6.10428 16.3725L6.78876 16.6573C7.16057 16.8107 7.92109 17.0663 8.47881 17.2269ZM28.489 18.1179C29.0636 18.4538 29.7819 19.1257 30.0016 19.52C30.3903 20.243 30.1875 20.9295 29.3678 21.6744C28.827 22.1637 27.1285 23.1495 27.0102 23.0473C26.9933 23.0327 27.0609 22.7625 27.1539 22.4412C27.4074 21.6159 27.4243 19.0965 27.1877 18.1763C27.1032 17.8331 27.0102 17.5045 26.9849 17.446C26.9342 17.3292 27.8045 17.7235 28.489 18.1179ZM3.85652 17.928C3.83117 18.001 3.74666 18.3881 3.67061 18.7897C3.51851 19.6442 3.56921 21.4188 3.76357 22.1856C3.82272 22.4485 3.87342 22.6676 3.86497 22.6822C3.79737 22.7333 2.70728 22.0395 2.33547 21.7109C0.983433 20.5132 1.26229 19.3156 3.17205 18.1617C3.79737 17.782 3.94947 17.7308 3.85652 17.928ZM29.7565 23.8725C29.6636 24.5371 29.6467 24.5736 29.3087 24.873C27.6524 26.3555 23.7062 27.4947 18.8642 27.8818C17.6135 27.984 14.2165 27.984 12.856 27.8818C8.16615 27.5312 4.11003 26.3774 2.43688 24.9095C2.04816 24.559 2.03971 24.5371 1.94676 23.909C1.89606 23.5585 1.87071 23.2518 1.89606 23.2372C1.91296 23.2226 2.19182 23.3613 2.51293 23.5439C3.80582 24.2961 5.52122 24.8876 7.83659 25.3915C10.2196 25.91 12.104 26.1218 14.8418 26.1802C17.7656 26.2459 20.1571 26.0707 22.7259 25.6106C25.6835 25.0775 27.6862 24.4348 29.2157 23.5074C29.5368 23.3175 29.8072 23.1641 29.8241 23.1714C29.8326 23.1861 29.8072 23.5001 29.7565 23.8725ZM3.94102 27.3341C7.00001 28.6267 10.9632 29.2766 15.8559 29.2766C21.3992 29.2766 25.9286 28.4076 29.0636 26.7498L29.427 26.5527L29.3847 26.801C29.3509 26.9324 29.1988 28.1228 29.0298 29.4519C28.6918 32.1977 28.6411 32.3438 27.8806 33.0376C26.3764 34.4178 23.5794 35.3891 19.6585 35.893C18.1881 36.0829 13.5067 36.0829 12.0533 35.893C8.16615 35.3891 5.39446 34.447 3.88187 33.1179C3.15515 32.4826 2.98614 32.1247 2.83404 30.8686C2.76644 30.2917 2.61433 29.1013 2.50448 28.225C2.38617 27.3487 2.29322 26.6184 2.29322 26.5965C2.29322 26.5746 2.41998 26.6257 2.57208 26.7133C2.71573 26.801 3.34105 27.0785 3.94102 27.3341Z" fill="#13284C"/>
<path d="M13.4472 5.5862C12.9233 5.76147 12.7627 6.3384 13.1514 6.66702C13.3796 6.8715 13.8951 6.91532 14.1317 6.75466C14.495 6.51366 14.5373 5.98056 14.2246 5.72496C14.0556 5.59351 13.6415 5.52048 13.4472 5.5862Z" fill="#13284C"/>
<path d="M10.3718 6.92991C9.13802 7.63829 7.89583 8.90898 7.28742 10.0701C6.93251 10.7493 6.61985 11.6695 6.55225 12.2026C6.50154 12.6261 6.51844 12.6845 6.7128 12.8744C6.88181 13.0497 6.99166 13.0935 7.27052 13.0935C7.76908 13.0935 7.91274 12.9255 8.11554 12.1295C8.5465 10.4134 9.70419 8.92359 11.3182 7.98883C12.1379 7.52144 12.2815 7.1563 11.8168 6.71813C11.521 6.44062 11.1154 6.49905 10.3718 6.92991Z" fill="#13284C"/>
<path d="M4.95479 31.4966C4.74353 31.6719 4.67593 32.0297 4.79423 32.2999C4.82803 32.3584 5.08154 32.5555 5.36885 32.7308C6.86454 33.651 9.35737 34.3812 12.0699 34.7026C13.3628 34.8559 13.6923 34.7391 13.7008 34.1183C13.7008 33.6729 13.4811 33.5341 12.6023 33.4319C9.89818 33.1252 7.58281 32.4606 6.18852 31.5989C5.63081 31.2556 5.259 31.2264 4.95479 31.4966Z" fill="#13284C"/>
</svg>
