<svg width="19" height="32" viewBox="0 0 19 32" fill="none" xmlns="http://www.w3.org/2000/svg">
<path d="M6.23698 1.14715C6.08932 1.1709 5.94472 1.21084 5.8058 1.26623C5.71501 1.30226 5.63964 1.36883 5.59268 1.45448C5.54572 1.54012 5.53012 1.63947 5.54856 1.73539C5.56701 1.83131 5.61835 1.91778 5.69372 1.9799C5.7691 2.04202 5.86379 2.07589 5.96146 2.07567C6.01479 2.07539 6.0676 2.0651 6.11712 2.04532C6.19775 2.01277 6.28184 1.98953 6.36774 1.97605C6.42216 1.96741 6.47436 1.94814 6.52133 1.91933C6.56831 1.89053 6.60916 1.85275 6.64153 1.80816C6.67391 1.76356 6.69719 1.71303 6.71004 1.65944C6.72289 1.60585 6.72506 1.55026 6.71642 1.49583C6.70778 1.44141 6.68851 1.38922 6.6597 1.34224C6.6309 1.29526 6.59312 1.25442 6.54853 1.22204C6.50393 1.18966 6.4534 1.16638 6.39981 1.15353C6.34622 1.14068 6.29063 1.13852 6.2362 1.14715H6.23698Z" fill="#13284C"/>
<path d="M19.0048 11.1305C19.0036 10.5116 18.7572 9.91841 18.3196 9.4808C17.8819 9.04318 17.2888 8.79679 16.6699 8.79555H16.4675C16.7532 8.45497 16.9357 8.03992 16.9937 7.59917C17.0516 7.15842 16.9825 6.7103 16.7945 6.30748C16.6065 5.90466 16.3074 5.56388 15.9323 5.32519C15.5573 5.0865 15.122 4.95983 14.6774 4.96006H14.0143C14.2854 4.76251 14.522 4.52164 14.7148 4.24713C15.2705 3.45015 15.4246 2.40644 15.1724 1.14325C15.1251 0.896603 15.0124 0.667207 14.846 0.479072C14.6797 0.290938 14.4658 0.150983 14.2268 0.0738567C13.9814 -0.00785047 13.7185 -0.0220623 13.4658 0.03271C13.213 0.0874823 12.9796 0.209223 12.79 0.385179C12.1472 0.969687 11.2451 1.10044 10.7579 1.12613H8.12254C8.01128 1.12613 7.90457 1.17032 7.8259 1.249C7.74723 1.32767 7.70303 1.43437 7.70303 1.54563C7.70303 1.65689 7.74723 1.7636 7.8259 1.84227C7.90457 1.92094 8.01128 1.96514 8.12254 1.96514H10.7898C11.3868 1.93479 12.5145 1.77056 13.3582 1.00549C13.4383 0.930414 13.5372 0.878296 13.6444 0.854605C13.7517 0.830913 13.8633 0.836522 13.9676 0.870842C14.0654 0.9019 14.1529 0.959039 14.2206 1.03611C14.2884 1.11318 14.3338 1.20727 14.3521 1.30825C14.5576 2.33873 14.4486 3.16684 14.0291 3.76847C13.6096 4.3701 12.8469 4.76315 11.7806 4.93749C11.768 4.93828 11.7556 4.93984 11.7432 4.94216C11.6843 4.95194 11.6247 4.95714 11.565 4.95773C11.4537 4.95773 11.347 5.00192 11.2683 5.0806C11.1897 5.15927 11.1455 5.26597 11.1455 5.37723C11.1455 5.48849 11.1897 5.5952 11.2683 5.67387C11.347 5.75254 11.4537 5.79674 11.565 5.79674H14.672C15.0693 5.79674 15.4504 5.95459 15.7314 6.23556C16.0124 6.51654 16.1702 6.89762 16.1702 7.29498C16.1702 7.69234 16.0124 8.07342 15.7314 8.35439C15.4504 8.63537 15.0693 8.79322 14.672 8.79322H13.7435C13.6322 8.79322 13.5255 8.83741 13.4468 8.91609C13.3682 8.99476 13.324 9.10146 13.324 9.21272C13.324 9.32398 13.3682 9.43069 13.4468 9.50936C13.5255 9.58803 13.6322 9.63223 13.7435 9.63223H16.6676C17.0649 9.63223 17.446 9.79008 17.727 10.0711C18.0079 10.352 18.1658 10.7331 18.1658 11.1305C18.1658 11.5278 18.0079 11.9089 17.727 12.1899C17.446 12.4709 17.0649 12.6287 16.6676 12.6287H2.41755C2.30629 12.6287 2.19959 12.6729 2.12092 12.7516C2.04224 12.8302 1.99805 12.937 1.99805 13.0482V15.6166C1.99846 16.0633 2.17601 16.4915 2.49176 16.8074C2.80751 17.1233 3.23566 17.301 3.6823 17.3017H14.6253L12.2616 29.8176C12.2094 30.0928 12.0628 30.3412 11.8472 30.5199C11.6315 30.6986 11.3602 30.7965 11.0801 30.7967H7.92952C7.64941 30.7965 7.37813 30.6986 7.16246 30.5199C6.94679 30.3412 6.80023 30.0928 6.74805 29.8176L4.6583 18.7532C4.64808 18.699 4.62728 18.6474 4.59711 18.6013C4.56694 18.5551 4.52797 18.5154 4.48244 18.4843C4.43691 18.4532 4.3857 18.4314 4.33175 18.4201C4.27779 18.4089 4.22213 18.4083 4.16796 18.4185C4.11379 18.4287 4.06217 18.4495 4.01603 18.4797C3.96989 18.5099 3.93015 18.5488 3.89908 18.5944C3.868 18.6399 3.84619 18.6911 3.83491 18.7451C3.82362 18.799 3.82307 18.8547 3.83329 18.9089L5.92382 29.9733C6.01227 30.4405 6.26102 30.8623 6.62718 31.1658C6.99334 31.4693 7.45393 31.6355 7.92952 31.6357H11.0801C11.5557 31.6355 12.0163 31.4693 12.3824 31.1658C12.7486 30.8623 12.9973 30.4405 13.0858 29.9733L15.4806 17.2946C15.8984 17.2555 16.2865 17.062 16.5691 16.752C16.8518 16.442 17.0087 16.0377 17.0092 15.6182V14.6733C17.0092 14.5621 16.965 14.4554 16.8864 14.3767C16.8077 14.298 16.701 14.2538 16.5897 14.2538C16.4785 14.2538 16.3718 14.298 16.2931 14.3767C16.2144 14.4554 16.1702 14.5621 16.1702 14.6733V15.6182C16.17 15.8424 16.0809 16.0573 15.9225 16.2159C15.764 16.3745 15.5492 16.4638 15.325 16.4642H3.68464C3.46046 16.4638 3.24559 16.3745 3.08714 16.2159C2.92869 16.0573 2.8396 15.8424 2.8394 15.6182V13.4677H16.6676C17.2872 13.4671 17.8814 13.2207 18.3196 12.7825C18.7577 12.3443 19.0042 11.7502 19.0048 11.1305Z" fill="#13284C"/>
<path d="M2.33974 9.63225H6.38693C6.4985 9.63225 6.6055 9.58793 6.68439 9.50904C6.76328 9.43015 6.8076 9.32315 6.8076 9.21158C6.8076 9.10001 6.76328 8.99301 6.68439 8.91411C6.6055 8.83522 6.4985 8.7909 6.38693 8.7909H4.33765C3.94029 8.7909 3.55921 8.63305 3.27823 8.35208C2.99726 8.0711 2.83941 7.69002 2.83941 7.29266C2.83941 6.8953 2.99726 6.51422 3.27823 6.23325C3.55921 5.95227 3.94029 5.79442 4.33765 5.79442H9.24642C9.35768 5.79442 9.46439 5.75023 9.54306 5.67155C9.62173 5.59288 9.66593 5.48618 9.66593 5.37492C9.66593 5.26366 9.62173 5.15695 9.54306 5.07828C9.46439 4.99961 9.35768 4.95541 9.24642 4.95541H6.55193C5.82655 4.95541 5.23581 4.28373 5.23581 3.45717C5.2353 3.32616 5.25019 3.19555 5.28018 3.06802C5.29275 3.01436 5.29463 2.95875 5.28571 2.90436C5.27679 2.84998 5.25724 2.79788 5.22819 2.75105C5.19914 2.70422 5.16114 2.66356 5.11638 2.63142C5.07162 2.59927 5.02096 2.57625 4.9673 2.56368C4.91364 2.55111 4.85803 2.54923 4.80364 2.55815C4.74926 2.56707 4.69716 2.58661 4.65033 2.61566C4.55575 2.67434 4.48835 2.76819 4.46296 2.87656C4.41903 3.06565 4.39683 3.25915 4.3968 3.45328C4.39396 3.99458 4.57079 4.52152 4.89959 4.95152H4.33765C3.89311 4.95129 3.45775 5.07796 3.08273 5.31665C2.70771 5.55533 2.40862 5.89612 2.22061 6.29894C2.03261 6.70176 1.9635 7.14988 2.02142 7.59063C2.07933 8.03138 2.26186 8.44643 2.54755 8.78701H2.33974C1.94563 8.7862 1.55772 8.88515 1.21216 9.07467C0.866605 9.26418 0.574638 9.53807 0.363466 9.87083C0.152294 10.2036 0.0287883 10.5844 0.00445514 10.9778C-0.0198781 11.3711 0.0557534 11.7642 0.224303 12.1205C0.25818 12.1928 0.311972 12.254 0.379378 12.2969C0.446784 12.3398 0.525011 12.3625 0.604895 12.3625C0.666214 12.3622 0.726746 12.3487 0.782348 12.3229C0.832298 12.2995 0.87716 12.2666 0.914368 12.2259C0.951575 12.1852 0.9804 12.1376 0.999194 12.0858C1.01799 12.0339 1.02638 11.9789 1.0239 11.9238C1.02141 11.8688 1.00809 11.8147 0.984708 11.7648C0.891427 11.5664 0.843314 11.3497 0.843835 11.1305C0.84404 10.7336 1.00164 10.353 1.28206 10.0721C1.56249 9.79126 1.94285 9.63307 2.33974 9.63225Z" fill="#13284C"/>
<path d="M8.45898 9.21272C8.45898 9.32398 8.50318 9.43068 8.58185 9.50936C8.66053 9.58803 8.76723 9.63223 8.87849 9.63223H10.1565C10.2677 9.63223 10.3744 9.58803 10.4531 9.50936C10.5318 9.43068 10.576 9.32398 10.576 9.21272C10.576 9.10146 10.5318 8.99476 10.4531 8.91608C10.3744 8.83741 10.2677 8.79321 10.1565 8.79321H8.87771C8.76659 8.79342 8.66008 8.83771 8.58158 8.91636C8.50308 8.99501 8.45898 9.10159 8.45898 9.21272Z" fill="#13284C"/>
<path d="M6.5521 18.7867H6.46882C6.35756 18.7867 6.25086 18.8309 6.17219 18.9096C6.09351 18.9883 6.04932 19.095 6.04932 19.2063C6.04932 19.3175 6.09351 19.4242 6.17219 19.5029C6.25086 19.5816 6.35756 19.6258 6.46882 19.6258H6.5521C6.66336 19.6258 6.77006 19.5816 6.84874 19.5029C6.92741 19.4242 6.97161 19.3175 6.97161 19.2063C6.97161 19.095 6.92741 18.9883 6.84874 18.9096C6.77006 18.8309 6.66336 18.7867 6.5521 18.7867Z" fill="#13284C"/>
<path d="M8.58746 19.6258C8.69872 19.6258 8.80542 19.5816 8.88409 19.5029C8.96277 19.4242 9.00696 19.3175 9.00696 19.2063C9.00696 19.095 8.96277 18.9883 8.88409 18.9096C8.80542 18.8309 8.69872 18.7867 8.58746 18.7867H8.50496C8.3937 18.7867 8.28699 18.8309 8.20832 18.9096C8.12965 18.9883 8.08545 19.095 8.08545 19.2063C8.08545 19.3175 8.12965 19.4242 8.20832 19.5029C8.28699 19.5816 8.3937 19.6258 8.50496 19.6258H8.58746Z" fill="#13284C"/>
<path d="M6.61035 21.0422C6.61035 21.1534 6.65455 21.2602 6.73322 21.3388C6.81189 21.4175 6.9186 21.4617 7.02986 21.4617H7.11236C7.22362 21.4617 7.33032 21.4175 7.40899 21.3388C7.48767 21.2602 7.53187 21.1534 7.53187 21.0422C7.53187 20.9309 7.48767 20.8242 7.40899 20.7456C7.33032 20.6669 7.22362 20.6227 7.11236 20.6227H7.02986C6.9186 20.6227 6.81189 20.6669 6.73322 20.7456C6.65455 20.8242 6.61035 20.9309 6.61035 21.0422Z" fill="#13284C"/>
</svg>
