<svg width="22" height="32" viewBox="0 0 22 32" fill="none" xmlns="http://www.w3.org/2000/svg">
<path d="M9.44328 0.723676C8.43021 1.08549 7.59081 1.62821 6.75864 2.45314C5.72386 3.49515 5.04366 4.79768 4.75421 6.31005C4.68908 6.68633 4.63119 6.79487 4.50818 6.84553C4.22596 6.95407 3.58917 7.42443 3.19842 7.82966C2.7353 8.29277 2.42414 8.92233 2.27218 9.68213C2.17087 10.1814 2.17087 10.2827 2.27942 10.8327C2.34454 11.1656 2.41691 11.5129 2.43861 11.6142C2.46032 11.7662 2.35902 11.9109 1.83077 12.4464C1.04202 13.2424 0.58614 13.9298 0.332872 14.6824C-0.0795935 15.9198 0.231564 16.9835 1.317 18.0689L1.88142 18.6333H1.0782C0.636793 18.6333 0.217092 18.6695 0.137493 18.7057C0.00724124 18.7781 5.01124e-06 18.8721 5.01124e-06 20.153C5.01124e-06 21.687 -0.0072312 21.6726 0.52825 21.6726C0.694683 21.6726 0.79599 21.716 0.824935 21.7956C0.85388 21.8607 0.96966 22.5192 1.09268 23.2573C1.38212 25.0519 1.41831 25.269 1.54856 26.1952C1.61368 26.6294 1.71499 27.2517 1.76564 27.5701C1.82353 27.8885 1.91037 28.395 1.95379 28.6917C2.03339 29.2344 2.06233 29.3864 2.28665 30.754C2.35178 31.152 2.43861 31.5355 2.4748 31.6007C2.53269 31.7237 2.8945 31.7309 8.46639 31.7309C15.0441 31.7309 14.5738 31.7671 14.6534 31.2389C14.6751 31.0941 14.7257 30.7757 14.7619 30.5369C14.8415 30.0376 15.1454 28.1128 15.3046 27.0997C15.4855 25.9709 15.9125 23.2573 15.9921 22.7942C16.0283 22.5554 16.0789 22.208 16.1079 22.0127L16.144 21.6726H16.4552C16.6867 21.6726 16.8025 21.6291 16.9183 21.5061C17.0703 21.3469 17.0775 21.2673 17.0775 20.1457C17.0775 18.9879 17.0703 18.9445 16.9111 18.7925C16.7881 18.6768 16.6506 18.6333 16.4045 18.6333C16.2164 18.6333 16.0644 18.5972 16.0644 18.561C16.0644 18.5176 16.0861 18.4886 16.1223 18.4886C16.1513 18.4886 16.2092 18.4163 16.2598 18.3222C16.6795 17.4973 16.8894 16.8243 16.8459 16.3974C16.7953 15.8908 16.4697 15.254 16.0934 14.8995L15.7605 14.5955L15.9125 14.1903C15.9921 13.966 16.0644 13.6765 16.0644 13.5463C16.0644 13.3437 16.3539 13.0253 18.8793 10.4926C20.7029 8.66182 21.7449 7.56191 21.8462 7.36654C22.0488 6.96131 22.0488 6.2015 21.8607 5.77457C21.4482 4.88451 20.4351 4.46481 19.5089 4.81215C19.1181 4.96411 18.901 5.15949 16.6144 7.44614L14.1396 9.91369L14.1685 9.26967C14.1975 8.56775 14.0817 7.98885 13.7778 7.41719C13.6186 7.11327 12.6272 6.04231 12.5114 6.04231C12.4825 6.04231 12.4101 5.99889 12.3595 5.94824C12.3088 5.90482 12.0773 5.72391 11.8457 5.55024C10.8905 4.84109 10.4057 4.14641 10.2103 3.23465C10.109 2.75706 10.109 1.6065 10.2031 1.25192C10.261 1.06378 10.261 0.933527 10.2031 0.83222C10.0656 0.578952 9.9064 0.557243 9.44328 0.723676ZM9.34921 2.16369C9.32027 2.80771 9.46499 3.66159 9.70379 4.21878C10.0149 4.94964 10.5721 5.55748 11.672 6.38241C12.7502 7.19287 13.1121 7.60533 13.3002 8.25659C13.4087 8.62564 13.416 9.73278 13.3147 9.73278C13.2134 9.73278 11.3175 9.21901 10.6734 9.0164C10.5577 8.98022 10.0656 8.82826 9.58801 8.68353C9.11042 8.53881 8.59665 8.37237 8.45192 8.31448C8.29996 8.25659 8.05393 8.16976 7.9092 8.11187C7.75724 8.05398 7.43885 7.9382 7.20005 7.84413C6.62839 7.62704 5.68768 7.16392 5.55019 7.02643C5.32587 6.80211 5.6515 5.53577 6.20869 4.45757C6.76588 3.37937 7.88749 2.2867 8.96569 1.75846C9.19002 1.64991 9.37092 1.55584 9.37092 1.55584C9.37092 1.55584 9.35645 1.83082 9.34921 2.16369ZM20.7463 5.60813C21.014 5.76733 21.1804 5.99889 21.2745 6.33176C21.4337 6.88171 21.3035 7.02643 16.6216 11.6793L16.0789 12.2076L15.8473 11.7372C15.7026 11.4478 15.4421 11.086 15.1744 10.8255L14.7402 10.384L17.0124 8.10463C18.2642 6.84553 19.4003 5.73839 19.5378 5.63708C19.8562 5.41275 20.4062 5.39828 20.7463 5.60813ZM5.31863 7.779C5.7311 8.04674 6.28105 8.32896 6.77312 8.50262C8.148 9.00916 8.87162 9.25519 9.51565 9.45057C10.4491 9.73278 12.3016 10.2683 12.7719 10.384C13.4522 10.5577 14.1975 10.9485 14.61 11.3465C15.1382 11.8602 15.3408 12.3016 15.3408 12.9674C15.3408 13.3871 15.1961 14.0818 15.0875 14.2048C15.0731 14.2192 14.827 14.1469 14.5448 14.0456C13.3291 13.6042 11.3464 13.3509 9.07424 13.3509C7.88026 13.3509 6.67904 13.17 5.68044 12.8371C5.04366 12.6273 4.48647 12.403 4.26938 12.2655C4.21149 12.2293 4.03058 12.128 3.87139 12.0484C3.29973 11.7372 3.18395 11.5563 3.03922 10.7603C2.92344 10.1452 3.01028 9.53017 3.29249 8.94403C3.56023 8.39408 4.72526 7.40995 4.95682 7.54744C5.00024 7.56915 5.15944 7.67046 5.31863 7.779ZM3.27078 12.5911C3.9148 12.9674 4.83381 13.3726 5.46336 13.568C6.831 13.9805 7.44608 14.0745 8.92951 14.0745C11.1727 14.0745 13.1121 14.3278 14.4218 14.7909C14.9139 14.9646 15.6881 15.4928 15.8908 15.7895C15.9921 15.9415 16.0283 16.1224 16.0283 16.5348C16.0283 17.1499 15.8473 17.6203 15.3698 18.2643L15.0948 18.6333H9.24791H3.40827L2.84384 18.2932C1.29529 17.3525 0.651266 16.1079 1.08544 14.856C1.17227 14.61 1.29529 14.3133 1.36042 14.212C1.42554 14.1107 1.55579 13.9226 1.64263 13.7851C1.78012 13.5752 2.88002 12.4102 2.93791 12.4102C2.95239 12.4102 3.10435 12.4898 3.27078 12.5911ZM15.7967 19.4004L16.2815 19.451V20.1602V20.8766H8.4881H0.687447L0.701919 20.276C0.709155 19.9503 0.716392 19.6247 0.716392 19.5596C0.723628 19.451 0.824935 19.4293 1.46896 19.4149C3.08987 19.3714 15.3336 19.357 15.7967 19.4004ZM4.50818 22.0127C4.53712 22.208 4.58777 22.8665 4.63119 23.4816C4.66737 24.0967 4.71803 24.7841 4.73973 25.0012C4.76144 25.2183 4.82657 26.0143 4.88446 26.7741C4.94235 27.5267 5.02195 28.5253 5.06537 28.9812C5.10155 29.437 5.1522 30.0811 5.17391 30.4139L5.21733 31.0145L4.14636 30.9928L3.0754 30.9711L2.98133 30.4284C2.93791 30.1317 2.82937 29.4587 2.74254 28.945C2.66294 28.424 2.56887 27.8234 2.53269 27.6063C2.4965 27.3892 2.43138 26.9984 2.38796 26.7379C2.30836 26.2314 2.13469 25.0881 2.01891 24.3861C1.98273 24.1474 1.92484 23.7421 1.88142 23.4816C1.78735 22.8014 1.67881 22.1791 1.62092 21.9041L1.5775 21.6726H3.01751H4.46476L4.50818 22.0127ZM8.09011 26.3182L8.0684 30.9711H7.01915H5.96989L5.91924 30.356C5.89753 30.0159 5.83964 29.2995 5.79622 28.7641C5.75281 28.2286 5.68044 27.3964 5.64426 26.9188C5.60085 26.4412 5.53572 25.6091 5.49954 25.0736C5.46336 24.5381 5.39823 23.7204 5.35481 23.2645C5.31863 22.8086 5.28245 22.2587 5.28245 22.0488V21.6726H6.69352H8.10458L8.09011 26.3182ZM11.701 22.3745C11.6214 23.5467 11.4332 25.9998 11.3609 26.8465C11.2596 27.8957 11.1366 29.4298 11.0787 30.2837L11.0353 30.9711H9.986H8.93675L8.91504 26.3182L8.90057 21.6726H10.3189H11.7444L11.701 22.3745ZM15.377 21.9403C15.348 22.0923 15.2902 22.4613 15.2323 22.758C15.1744 23.0547 15.102 23.525 15.0586 23.8072C14.9501 24.5453 14.6244 26.6366 14.5448 27.0997C14.5086 27.3168 14.4435 27.7438 14.4001 28.0404C14.3567 28.3371 14.2916 28.7424 14.2554 28.945C14.2192 29.1404 14.1324 29.6903 14.06 30.1534L13.9297 31.0001H12.8588H11.7878L11.8312 30.4067C11.8747 29.8278 11.9325 29.0608 12.0845 27.2806C12.2582 25.1098 12.3016 24.5309 12.374 23.4454C12.4174 22.8086 12.468 22.1502 12.4897 21.9765L12.5259 21.6726H13.9732H15.4204L15.377 21.9403Z" fill="#13284C"/>
<path d="M5.22415 10.1814C4.94194 10.4636 5.30375 10.9918 6.00567 11.3175C6.3313 11.4694 6.5122 11.4984 7.01874 11.5056C8.03905 11.5056 8.39362 11.3754 8.39362 10.9991C8.39362 10.7313 8.12588 10.5866 7.81472 10.6734C7.45291 10.7748 6.62075 10.7603 6.33853 10.6445C6.20828 10.5939 5.99119 10.4419 5.84647 10.3189C5.57873 10.0801 5.36888 10.0367 5.22415 10.1814Z" fill="#13284C"/>
<path d="M2.95906 15.2105C2.6262 15.2974 2.68409 15.8184 3.07484 16.39C3.39324 16.8532 4.18922 17.3669 4.83325 17.5261C5.10822 17.5985 5.16611 17.5913 5.28913 17.4682C5.58581 17.1716 5.44109 16.9689 4.71023 16.6795C4.1458 16.4624 3.79123 16.144 3.5452 15.6664C3.37876 15.3336 3.16891 15.1092 3.08932 15.1671C3.08208 15.1744 3.02419 15.1888 2.95906 15.2105Z" fill="#13284C"/>
</svg>
