<?xml version="1.0" standalone="no"?>
<!DOCTYPE svg PUBLIC "-//W3C//DTD SVG 20010904//EN"
 "http://www.w3.org/TR/2001/REC-SVG-20010904/DTD/svg10.dtd">
<svg version="1.0" xmlns="http://www.w3.org/2000/svg"
 width="512.000000pt" height="512.000000pt" viewBox="0 0 512.000000 512.000000"
 preserveAspectRatio="xMidYMid meet">
<metadata>
Created by potrace 1.16, written by Peter Selinger 2001-2019
</metadata>
<g transform="translate(0.000000,512.000000) scale(0.100000,-0.100000)"
fill="#000000" stroke="none">
<path d="M1228 5083 c-36 -39 -1180 -1438 -1211 -1483 -26 -37 -23 -105 7
-135 54 -54 110 -45 181 29 l50 53 381 102 c209 55 388 101 396 101 9 0 18 -7
22 -15 3 -8 21 -22 40 -31 66 -32 134 2 153 75 9 35 9 35 132 68 68 19 125 32
126 31 2 -2 28 -97 59 -213 31 -115 59 -218 62 -227 5 -17 -13 -18 -286 -18
-189 0 -298 -4 -311 -11 -18 -9 -282 -357 -546 -718 l-83 -113 0 -302 c0 -337
14 -472 69 -680 80 -300 232 -589 439 -836 287 -343 704 -600 1146 -705 191
-46 320 -58 561 -52 267 6 398 27 632 104 l111 36 38 -33 c21 -18 72 -49 113
-69 74 -35 79 -36 196 -36 115 0 123 1 186 32 38 19 90 56 120 85 l53 53 53
-52 c29 -28 83 -66 120 -85 65 -32 72 -33 188 -33 117 0 122 1 195 36 175 84
280 241 280 419 0 74 -26 173 -60 229 -12 18 -20 34 -18 36 2 1 26 14 53 28
161 81 245 219 245 401 0 44 -6 104 -14 131 -29 110 -103 215 -193 274 -56 37
-159 71 -215 71 -33 0 -39 3 -34 16 47 123 88 800 56 914 -11 37 -559 785
-610 833 -23 20 -41 27 -70 27 l-40 0 0 323 0 322 190 190 190 190 0 49 0 48
-156 158 c-86 87 -169 164 -185 170 -64 27 -78 16 -346 -252 -157 -159 -260
-270 -275 -298 -23 -45 -23 -46 -26 -472 l-3 -428 -769 0 -768 0 -11 33 c-5
17 -35 127 -66 242 -31 116 -58 217 -60 226 -4 13 19 22 120 49 l125 32 35
-31 c49 -43 104 -43 146 -2 19 20 29 40 29 60 0 25 5 31 33 39 17 5 198 53
400 107 l369 99 48 -17 c97 -34 169 -11 183 59 7 39 -11 92 -36 108 -12 8
-427 168 -921 355 -655 249 -910 341 -940 341 -35 0 -48 -6 -78 -37z m924
-495 c263 -100 476 -183 474 -185 -5 -5 -558 -153 -572 -153 -10 0 -403 499
-413 523 -2 6 4 7 15 3 11 -4 234 -89 496 -188z m-538 -131 c114 -148 206
-270 204 -272 -4 -4 -532 -145 -534 -142 -1 1 20 157 47 347 26 190 48 349 49
355 0 14 10 2 234 -288z m-508 -150 c-24 -175 -46 -320 -49 -323 -2 -3 -121
-36 -263 -75 -143 -38 -274 -74 -291 -79 -31 -8 -28 -3 58 103 51 62 203 248
338 414 135 166 247 297 249 290 1 -7 -18 -155 -42 -330z m2962 250 l62 -62
-156 -155 c-85 -85 -162 -167 -170 -182 -11 -22 -14 -93 -14 -383 l0 -355 -95
0 -96 0 3 405 3 405 195 195 c107 107 197 195 200 195 3 0 34 -28 68 -63z
m-2200 -1624 c-38 -153 -73 -294 -79 -314 -9 -36 -11 -37 -117 -72 -167 -56
-269 -71 -482 -71 -200 0 -304 13 -457 60 l-82 24 176 238 c97 130 205 276
241 325 l64 87 403 0 403 0 -70 -277z m1167 245 c20 -120 95 -602 93 -603 -12
-10 -130 -46 -203 -63 -236 -54 -494 -54 -730 0 -132 30 -198 56 -193 77 3 9
38 152 78 319 l74 302 438 0 437 0 6 -32z m1192 -290 l240 -323 -31 -14 c-54
-23 -177 -51 -301 -67 -140 -19 -348 -14 -490 11 -101 18 -305 83 -305 97 0
10 -89 574 -94 601 -4 16 19 17 369 17 l373 0 239 -322z m-2234 -537 c349
-123 855 -116 1184 16 l65 26 122 -41 c189 -64 323 -85 561 -85 237 -1 339 13
574 79 l24 7 -7 -174 c-3 -96 -11 -217 -18 -269 l-11 -95 -21 30 c-125 175
-323 251 -521 200 -184 -48 -305 -179 -337 -364 -10 -58 -15 -70 -28 -65 -34
14 -169 16 -221 4 -285 -67 -438 -401 -307 -670 39 -80 106 -146 192 -191 36
-19 65 -36 63 -39 -50 -87 -71 -151 -75 -230 -2 -47 0 -102 6 -122 l10 -36
-42 -15 c-328 -119 -733 -142 -1081 -62 -666 155 -1216 660 -1423 1307 -67
209 -92 372 -92 612 0 163 1 178 17 172 35 -14 172 -46 263 -63 70 -12 148
-17 300 -16 242 0 377 20 553 82 62 21 123 38 137 36 14 -2 65 -17 113 -34z
m2171 -521 c170 -64 203 -284 79 -522 -34 -66 -106 -158 -123 -158 -4 0 -10
10 -14 23 -17 67 -176 258 -266 320 -23 16 -25 23 -24 100 0 59 5 92 18 117
63 122 196 170 330 120z m-601 -433 c128 -47 239 -134 309 -241 46 -71 48 -86
10 -86 -84 0 -263 -68 -367 -140 l-43 -30 -62 19 c-75 23 -117 51 -152 101
-74 102 -50 256 54 344 71 61 146 71 251 33z m1178 11 c106 -36 172 -138 170
-265 -1 -141 -123 -232 -329 -249 -90 -7 -194 12 -279 51 l-56 25 56 58 c70
75 123 157 163 256 18 43 36 82 41 87 17 17 118 48 159 49 23 0 56 -5 75 -12z
m-833 -600 c-15 -76 -3 -270 20 -350 19 -67 19 -68 0 -100 -30 -49 -88 -107
-130 -129 -49 -25 -139 -25 -194 0 -141 64 -201 212 -138 338 32 65 133 167
209 213 65 38 175 79 216 80 26 0 26 0 17 -52z m425 -97 c42 -11 114 -23 162
-27 82 -6 87 -8 117 -42 78 -89 97 -190 52 -280 -68 -136 -228 -193 -350 -123
-64 37 -134 135 -171 241 -27 78 -41 217 -29 282 l6 34 69 -33 c37 -18 102
-42 144 -52z"/>
<path d="M1104 1505 c-51 -35 -55 -122 -8 -166 19 -18 37 -24 71 -24 38 0 49
5 74 33 33 37 37 77 14 122 -8 16 -24 34 -34 40 -28 15 -93 12 -117 -5z"/>
<path d="M1378 1145 c-36 -20 -48 -44 -48 -97 0 -41 4 -47 81 -120 114 -108
243 -198 394 -273 227 -113 415 -162 655 -172 l145 -6 26 27 c44 44 46 107 3
149 -26 26 -77 37 -169 37 -29 0 -92 7 -141 15 -298 51 -539 170 -772 381 -81
73 -123 88 -174 59z"/>
</g>
</svg>
