<svg width="48" height="48" viewBox="0 0 48 48" fill="none" xmlns="http://www.w3.org/2000/svg">
<path fill-rule="evenodd" clip-rule="evenodd" d="M1.25753 46.7403C2.145 47.6258 3.01582 48.0176 3.89252 47.997C5.13753 47.9686 6.45601 47.0606 7.92534 45.27C13.403 38.5963 20.1717 30.3455 28.2716 22.0585C30.2885 20.3443 32.1663 19.6596 34.3203 18.8035C37.6772 17.4683 41.6934 15.7473 47.8587 9.43896C48.0458 9.24697 48.0438 8.94037 47.8548 8.75033L39.2475 0.143019C39.0574 -0.0460344 38.7508 -0.0479854 38.5588 0.139109C32.2505 6.3044 30.5295 10.3206 29.1943 13.6775C28.3382 15.8315 27.6545 17.7093 25.9403 19.7252C17.6523 27.8261 9.40152 34.5948 2.72784 40.0725C0.937216 41.5418 0.0291753 42.8603 0.000768315 44.1053C-0.0198023 44.982 0.372014 45.8528 1.25753 46.7403ZM1.95008 46.0477C1.2977 45.3934 0.964647 44.7743 0.98032 44.1278C1.00383 43.0895 1.85603 42.0551 3.34887 40.8297C10.0461 35.3334 18.3252 28.5402 26.6406 20.4109C26.6504 20.4001 26.6612 20.3894 26.671 20.3786C28.4753 18.2618 29.2061 16.2997 30.1053 14.0399C31.3817 10.828 33.0273 7.00086 38.8987 1.17939L46.8184 9.09906C40.9969 14.9705 37.1698 16.6161 33.9579 17.8925C31.6981 18.7917 29.736 19.5225 27.6192 21.3278C27.6084 21.3366 27.5977 21.3474 27.5869 21.3572C19.4576 29.6726 12.6644 37.9517 7.16815 44.6489C5.94273 46.1418 4.90832 46.994 3.87 47.0185C3.22349 47.0332 2.60442 46.7001 1.95008 46.0477ZM6.37079 41.628C5.65278 40.91 4.48809 40.91 3.77106 41.628C3.05403 42.345 3.05403 43.5097 3.77106 44.2267C4.48809 44.9438 5.65278 44.9438 6.37079 44.2267C7.08782 43.5097 7.08782 42.345 6.37079 41.628ZM5.67726 42.3205C6.01227 42.6555 6.01227 43.1992 5.67726 43.5342C5.34226 43.8692 4.7986 43.8692 4.4636 43.5342C4.12859 43.1992 4.12859 42.6555 4.4636 42.3205C4.7986 41.9855 5.34226 41.9855 5.67726 42.3205ZM33.0116 12.8067C33.7189 11.2188 34.6984 9.41447 36.4665 7.20852C36.636 6.99694 36.6017 6.68839 36.3911 6.51991C36.1805 6.35044 35.8719 6.38472 35.7025 6.59532C33.8668 8.88551 32.851 10.7594 32.1163 12.408C32.0066 12.6548 32.1173 12.9448 32.3642 13.0555C32.611 13.1652 32.901 13.0535 33.0116 12.8067ZM37.6949 5.75781C37.9819 5.43554 38.2865 5.10445 38.6068 4.76553C38.793 4.56962 38.7851 4.25909 38.5882 4.07298C38.3923 3.88686 38.0828 3.89569 37.8967 4.0916C37.5675 4.43836 37.257 4.7763 36.9631 5.10641C36.7839 5.3082 36.8015 5.61773 37.0033 5.79797C37.2051 5.97722 37.5146 5.9596 37.6949 5.75781Z" fill="#13284C"/>
</svg>
