<svg width="77" height="47" viewBox="0 0 77 47" fill="none" xmlns="http://www.w3.org/2000/svg">
<path fill-rule="evenodd" clip-rule="evenodd" d="M20.8101 6.66348L19.6426 8.9987L25.1384 11.7466H30.6696V9.13635H25.7552L20.8101 6.66348Z" fill="#13284C"/>
<path fill-rule="evenodd" clip-rule="evenodd" d="M34.7691 6.52615C32.5883 6.52615 30.5495 7.61716 29.3396 9.43204L29.3657 9.39539L23.0851 18.164C22.946 18.3596 22.8635 18.5897 22.8465 18.829C22.8296 19.0684 22.8788 19.3075 22.9888 19.5208C23.0989 19.734 23.2655 19.9127 23.4704 20.0376C23.6753 20.1624 23.9106 20.2288 24.1505 20.2288H30.5842C31.8927 20.2288 33.1163 19.5734 33.842 18.4849L34.9022 16.8946C35.145 16.5305 35.5509 16.3134 35.9881 16.3134H37.7165C37.975 16.3134 38.2237 16.3917 38.4354 16.5327L58.3993 29.8434C59.3489 30.4763 59.5634 31.7288 58.8785 32.6419L58.8028 32.7489C58.1949 33.5594 57.1023 33.7752 56.2333 33.2536L45.7059 26.9375C45.5586 26.8491 45.3953 26.7904 45.2254 26.7651C45.0555 26.7398 44.8823 26.7483 44.7156 26.7899C44.549 26.8316 44.3922 26.9059 44.2542 27.0082C44.1162 27.1105 43.9997 27.2388 43.9113 27.3861C43.8229 27.5334 43.7645 27.6967 43.7392 27.8666C43.7139 28.0365 43.7223 28.2094 43.764 28.3761C43.8057 28.5427 43.8798 28.6998 43.982 28.8378C44.0843 28.9758 44.2127 29.0922 44.36 29.1806L54.8875 35.4968C56.8861 36.6962 59.4948 36.1841 60.8931 34.3191L60.9688 34.2172C62.532 32.1332 62.0149 29.1169 59.8472 27.6716L39.8833 14.3657C39.2378 13.9337 38.4829 13.7083 37.7116 13.7083H35.9831C34.6749 13.7083 33.4512 14.3634 32.7256 15.4519L31.6705 17.0425C31.4278 17.4066 31.0219 17.6236 30.5844 17.6236H26.6897L31.492 10.9197C31.5009 10.9077 31.5096 10.8957 31.5181 10.8834C32.2445 9.79337 33.4658 9.13953 34.7756 9.13953H42.9936C43.3567 9.13953 43.7195 9.19195 44.0695 9.29375L51.5279 11.4247C52.4699 11.6941 53.4809 11.5968 54.3574 11.1593L56.06 10.3083C56.2195 10.235 56.3626 10.1305 56.4808 10.0008C56.599 9.87105 56.6899 9.71872 56.748 9.55311C56.8061 9.38751 56.8303 9.21176 56.8191 9.03662C56.8079 8.86147 56.7615 8.69067 56.6827 8.53382C56.604 8.37698 56.4945 8.23735 56.3607 8.12375C56.2269 8.01014 56.0716 7.92466 55.9041 7.87235C55.7365 7.82004 55.5602 7.80215 55.3855 7.81946C55.2109 7.83676 55.0415 7.88887 54.8875 7.97304L53.1846 8.82473C52.8928 8.9709 52.5602 9.00212 52.2468 8.91076L44.7881 6.77977C44.2058 6.61272 43.6007 6.52933 42.9936 6.52933L34.7691 6.52615Z" fill="#13284C"/>
<path fill-rule="evenodd" clip-rule="evenodd" d="M65.1583 22.4212L58.6328 26.9891L60.1316 29.1303L66.6571 24.5624L65.1583 22.4212Z" fill="#13284C"/>
<path fill-rule="evenodd" clip-rule="evenodd" d="M12.0158 21.9165L10.1704 23.762L15.3908 28.9824L17.2362 27.1369L12.0158 21.9165Z" fill="#13284C"/>
<path d="M24.5727 25.5309C23.5999 25.7319 22.7041 26.3018 22.1204 27.1877L16.946 35.0384C15.78 36.8081 16.2819 39.228 18.0522 40.3911C18.0532 40.3918 18.0509 40.3911 18.0522 40.3911L18.1853 40.4774C19.961 41.6387 22.3809 41.1328 23.5485 39.3613L28.7229 31.5103C29.8889 29.7408 29.3875 27.3207 27.6167 26.1576L27.4784 26.0662C26.5904 25.4851 25.5403 25.3234 24.5675 25.5255L24.5727 25.5309ZM26.0561 28.2583L26.1892 28.3447C26.7914 28.7383 26.9438 29.4745 26.5463 30.078L21.3716 37.9338C20.974 38.5373 20.2202 38.6896 19.618 38.2958L19.4849 38.2097C18.883 37.8159 18.7306 37.0748 19.1281 36.4713L24.3026 28.6152C24.7004 28.012 25.4547 27.8597 26.0564 28.2536L26.0561 28.2583Z" fill="#13284C"/>
<path d="M27.5349 30.6239C26.5514 30.8301 25.6452 31.4081 25.0573 32.306L21.4837 37.766C20.3081 39.5623 20.8194 42.0095 22.6155 43.1849C24.4113 44.3603 26.8592 43.8489 28.0345 42.0531L31.6084 36.5934C32.7838 34.7973 32.2727 32.3496 30.4766 31.1745C29.5785 30.587 28.5187 30.4185 27.5349 30.6239ZM29.0491 33.3562C29.6727 33.7641 29.8348 34.5422 29.4263 35.1663L25.8527 40.6257C25.4442 41.2495 24.6663 41.4112 24.0428 41.0032C23.4187 40.5947 23.2571 39.8175 23.6656 39.1934L27.2392 33.7334C27.6477 33.1093 28.425 32.9477 29.0491 33.3562Z" fill="#13284C"/>
<path d="M31.0064 34.6716C30.024 34.8831 29.1206 35.4621 28.539 36.3642L26.2144 39.9736C25.0508 41.7773 25.5749 44.221 27.3767 45.3877C29.1785 46.5545 31.6274 46.029 32.7908 44.2254L35.1154 40.6157C36.2791 38.812 35.7547 36.3686 33.9531 35.2018C33.0523 34.6185 31.9889 34.4605 31.0064 34.6716ZM32.5308 37.3943C33.1565 37.7994 33.3274 38.5771 32.9234 39.2038L30.5935 42.8081C30.1892 43.4348 29.4202 43.6009 28.7938 43.1953C28.1681 42.7902 28.0021 42.0125 28.4064 41.3858L30.7311 37.7815C31.1351 37.155 31.9049 36.989 32.5308 37.3943Z" fill="#13284C"/>
<path d="M18.3731 25.5004C17.3906 25.7119 16.4872 26.2909 15.9054 27.193L13.5808 30.8024C12.4177 32.6061 12.9465 35.0495 14.7483 36.2162C16.5496 37.3793 18.9948 36.8562 20.1574 35.0539L22.4821 31.4495C23.6454 29.6459 23.1213 27.1974 21.3198 26.0309C20.4187 25.4473 19.3553 25.2895 18.3731 25.5004ZM19.9024 28.2228C20.5281 28.6279 20.6941 29.4056 20.2898 30.0326L17.9651 33.6366C17.5608 34.2633 16.7913 34.4294 16.1657 34.0241C15.5397 33.619 15.374 32.841 15.778 32.2142L18.1027 28.6102C18.507 27.9835 19.2762 27.8172 19.9024 28.2228Z" fill="#13284C"/>
<path fill-rule="evenodd" clip-rule="evenodd" d="M42.3651 31.9646C42.0838 31.9733 41.8128 32.0725 41.5924 32.2475C41.372 32.4226 41.214 32.6641 41.1418 32.9361C41.0697 33.2081 41.0872 33.4963 41.1919 33.7575C41.2966 34.0188 41.4828 34.2392 41.7228 34.3862L49.064 38.9795C51.38 40.4269 54.4538 39.8287 56.0585 37.6183L57.1799 36.0736C57.2864 35.9351 57.3641 35.7766 57.4084 35.6075C57.4527 35.4384 57.4625 35.2624 57.4375 35.0894C57.4125 34.9164 57.353 34.7502 57.2626 34.6006C57.1722 34.451 57.0528 34.3212 56.9113 34.2186C56.7698 34.116 56.6092 34.0427 56.439 34.0032C56.2687 33.9637 56.0922 33.9586 55.92 33.9885C55.7479 34.0184 55.5834 34.0826 55.4364 34.1772C55.2894 34.2717 55.1629 34.3948 55.0643 34.5391L53.9427 36.0838C53.1304 37.2028 51.623 37.4946 50.4505 36.7619L43.1093 32.1739C42.888 32.0309 42.6286 31.9576 42.3651 31.9646Z" fill="#13284C"/>
<path fill-rule="evenodd" clip-rule="evenodd" d="M39.7037 37.1849C39.4208 37.2025 39.1512 37.3117 38.9357 37.4959C38.7202 37.68 38.5703 37.9291 38.5087 38.2058C38.4472 38.4825 38.4772 38.7719 38.5944 39.0301C38.7115 39.2882 38.9094 39.5012 39.1582 39.637L45.1178 43.0422C47.4931 44.3995 50.5361 43.7469 52.1432 41.5332L53.3003 39.9378C53.4069 39.7993 53.4846 39.6411 53.5288 39.472C53.5731 39.3029 53.583 39.1266 53.5579 38.9536C53.5329 38.7806 53.4734 38.6144 53.383 38.4648C53.2927 38.3152 53.1732 38.1854 53.0317 38.0828C52.8902 37.9802 52.7296 37.9069 52.5594 37.8674C52.3891 37.8279 52.2127 37.8231 52.0405 37.853C51.8683 37.8829 51.7038 37.9468 51.5568 38.0414C51.4098 38.1359 51.2833 38.259 51.1847 38.4033L50.0274 39.9942C49.1913 41.1456 47.6536 41.48 46.418 40.7739L40.4531 37.3633C40.2268 37.2302 39.9657 37.1675 39.7037 37.1849Z" fill="#13284C"/>
<path fill-rule="evenodd" clip-rule="evenodd" d="M33.7439 41.2531L32.811 43.6948L40.6416 46.6873C42.6207 47.4435 44.8806 46.7137 46.0406 44.939L47.1825 43.1904L44.9955 41.7575L43.8483 43.5065C43.3534 44.2629 42.4192 44.5683 41.5745 44.2457L33.7439 41.2531Z" fill="#13284C"/>
<path fill-rule="evenodd" clip-rule="evenodd" d="M14.9477 0.00100356C14.7384 0.0111747 14.5346 0.0716175 14.3535 0.177205C14.1725 0.282792 14.0195 0.430158 13.9076 0.607353L0.204007 22.1409C0.108124 22.2916 0.0441914 22.4603 0.0161664 22.6367C-0.0118587 22.8131 -0.00337949 22.9936 0.0410788 23.1666C0.0855371 23.3395 0.165028 23.5016 0.274632 23.6426C0.384236 23.7836 0.521621 23.9006 0.678281 23.9864L7.86652 27.9017C8.15488 28.0588 8.49189 28.1015 8.81032 28.0212C9.12876 27.9409 9.40521 27.7435 9.58455 27.4684L23.2727 6.43411C23.3672 6.28839 23.4317 6.12553 23.4624 5.95457C23.4931 5.78361 23.4893 5.6082 23.4513 5.43871C23.4134 5.26923 23.3419 5.10899 23.2413 4.96746C23.1406 4.82593 23.0127 4.70589 22.865 4.61442L15.6919 0.194411C15.4689 0.0567742 15.2096 -0.0107836 14.9477 0.00100356ZM15.4165 3.09042L20.3566 6.13364L8.05497 25.0315L3.15589 22.3601L15.4165 3.09042Z" fill="#13284C"/>
<path fill-rule="evenodd" clip-rule="evenodd" d="M61.9971 0.000957691C61.7543 8.04826e-05 61.516 0.0669068 61.3091 0.194046L54.136 4.61374C53.9883 4.7052 53.8604 4.82525 53.7597 4.96678C53.659 5.10831 53.5876 5.26854 53.5496 5.43803C53.5117 5.60752 53.5079 5.78293 53.5386 5.95389C53.5692 6.12485 53.6337 6.28803 53.7283 6.43374L67.4164 27.4677C67.5958 27.7428 67.8722 27.9402 68.1906 28.0205C68.5091 28.1008 68.8461 28.0582 69.1345 27.901L76.3177 23.9857C76.4748 23.9003 76.6127 23.7837 76.7228 23.6429C76.8329 23.502 76.9129 23.3402 76.9578 23.1671C77.0027 22.9941 77.0116 22.8136 76.984 22.6369C76.9563 22.4603 76.8927 22.2912 76.797 22.1402L63.0934 0.606989C62.9762 0.422044 62.8144 0.269464 62.6228 0.163458C62.4312 0.0574524 62.2161 0.00200764 61.9971 0.000957691ZM61.5792 3.09038L73.8451 22.3601L68.946 25.0314L56.6444 6.1336L61.5792 3.09038Z" fill="#13284C"/>
</svg>
