<svg width="51" height="56" viewBox="0 0 51 56" fill="none" xmlns="http://www.w3.org/2000/svg">
<path d="M48.5826 39.8836V15.9614C48.5808 15.6159 48.4878 15.2769 48.3132 14.9788C48.1385 14.6806 47.8884 14.4338 47.5879 14.2631L26.2375 2.25354C25.9498 2.08744 25.6235 2 25.2913 2C24.9591 2 24.6328 2.08744 24.3451 2.25354L2.99473 14.2631C2.69425 14.4338 2.44408 14.6806 2.26943 14.9788C2.09479 15.2769 2.00186 15.6159 2 15.9614V39.8836C2.00186 40.2291 2.09479 40.5681 2.26943 40.8662C2.44408 41.1644 2.69425 41.4112 2.99473 41.5819L24.3451 53.5915C24.6328 53.7576 24.9591 53.845 25.2913 53.845C25.6235 53.845 25.9498 53.7576 26.2375 53.5915L47.5879 41.5819C47.8884 41.4112 48.1385 41.1644 48.3132 40.8662C48.4878 40.5681 48.5808 40.2291 48.5826 39.8836Z" stroke="#13284C" stroke-width="3.88189" stroke-linecap="round" stroke-linejoin="round"/>
<path d="M37.1794 33.8666V21.2505L13.6455 8.27045" stroke="#13284C" stroke-width="3.88189" stroke-linecap="round" stroke-linejoin="round"/>
<path d="M48.3159 14.9667L25.5099 27.9225L2.26709 14.9667" stroke="#13284C" stroke-width="3.88189" stroke-linecap="round" stroke-linejoin="round"/>
<path d="M25.5099 27.9225L25.2915 53.8341" stroke="#13284C" stroke-width="3.88189" stroke-linecap="round" stroke-linejoin="round"/>
</svg>
