<svg width="58" height="57" viewBox="0 0 58 57" fill="none" xmlns="http://www.w3.org/2000/svg">
<path d="M56.6486 34.4332L51.8523 31.1924V21.4701L56.6486 18.2941C56.9079 18.0997 57.1023 17.8404 57.1023 17.5163C57.1023 17.1923 56.9079 16.8682 56.6486 16.7386L31.954 0.145835C31.6299 -0.0486115 31.1762 -0.0486115 30.8521 0.145835L0.388892 20.4979C0.259261 20.5627 0.194446 20.6275 0.129631 20.7571C0.129631 20.7571 0.129631 20.7571 0.129631 20.8219C-1.25557e-07 21.0164 0 21.146 0 21.3405V39.1647C0 39.4887 0.194446 39.8128 0.453707 39.9425L25.1484 56.4056C25.3428 56.5352 25.4724 56.6 25.6669 56.6C25.8613 56.6 26.0558 56.5352 26.1854 56.4056L56.7134 36.0535C56.9727 35.8591 57.1671 35.5998 57.1671 35.2758C57.1023 34.8869 56.9079 34.5628 56.6486 34.4332ZM31.4354 2.15511L54.3801 17.4515L50.6208 19.9145C50.4263 19.9793 50.2319 20.109 50.1023 20.2386L25.6021 36.5721L7.1945 24.322C7.12969 24.2571 7.06487 24.2571 7.06487 24.1923L2.65743 21.2756L31.4354 2.15511ZM7.51858 26.9146L25.0187 38.5813C25.3428 38.7758 25.7965 38.7758 26.1206 38.5813L49.9078 22.7016V30.6739L25.7317 46.6184L7.51858 34.9517V26.9146ZM25.6021 54.3963L1.87964 38.5813V23.1553L5.63894 25.6183V35.4702C5.63894 35.7943 5.83338 36.1184 6.09264 36.3128L25.278 48.6277C25.4076 48.7573 25.6021 48.7573 25.7965 48.7573C25.991 48.7573 26.1854 48.6925 26.315 48.6277L50.556 32.6831L54.3801 35.2758L25.6021 54.3963Z" fill="#13284C"/>
<path d="M27.2225 11.0348L38.7596 18.9423C38.9541 19.0719 39.1485 19.1367 39.2781 19.1367C39.6022 19.1367 39.8615 19.0071 40.0559 18.683C40.38 18.2293 40.2504 17.646 39.7967 17.3219L28.3243 9.41443C27.8706 9.09035 27.2873 9.21998 26.9632 9.67369C26.6391 10.1274 26.7688 10.7107 27.2225 11.0348Z" fill="#13284C"/>
</svg>
