<svg width="41" height="52" viewBox="0 0 41 52" fill="none" xmlns="http://www.w3.org/2000/svg">
<path d="M12.5087 0.182411C12.0527 0.466159 11.5663 1.06406 11.4548 1.48968C11.394 1.70249 11.3433 2.15851 11.3433 2.50306V3.1415H8.00927C4.73604 3.1415 4.64483 3.1415 3.87466 3.39484C2.23298 3.91167 0.895309 5.19867 0.26701 6.84035L0.0440653 7.44838L0.0136638 27.0574C-0.0167378 48.7236 -0.0572732 47.1224 0.631829 47.8318C1.02705 48.2371 1.64521 48.531 2.10124 48.5412H2.42552V49.6255C2.42552 50.8618 2.55726 51.2165 3.15516 51.5813C3.44904 51.7536 3.67198 51.784 4.81711 51.784C6.02304 51.784 6.17505 51.7637 6.47906 51.5509C7.12763 51.1152 7.21883 50.8922 7.2695 49.6559L7.32017 48.5412H20.2712H33.2324V49.5343C33.2324 50.3855 33.273 50.6085 33.4655 50.9733C33.8303 51.6725 34.1546 51.784 35.7254 51.784C36.9414 51.784 37.0833 51.7637 37.3974 51.5509C37.9548 51.1861 38.0967 50.7807 38.0967 49.5748V48.5412H38.4311C39.2013 48.531 40.2045 47.7203 40.4275 46.9299C40.4883 46.6968 40.5288 39.6943 40.5288 27.2702C40.5288 6.03978 40.5693 7.46865 39.9106 6.16139C39.485 5.31014 38.4412 4.25622 37.6001 3.81033C36.3942 3.18203 36.1003 3.1415 32.4521 3.1415H29.1789V2.45239C29.1789 1.57075 28.8242 0.81071 28.1858 0.334419C27.7602 0.0101359 27.7196 2.06195e-06 26.7468 2.06195e-06C25.7739 2.06195e-06 25.7334 0.0101359 25.3078 0.334419C24.6693 0.81071 24.3146 1.57075 24.3146 2.45239V3.1415H23.5141H22.7236L22.673 2.35106C22.6223 1.38834 22.3487 0.830978 21.7001 0.334419C21.2745 0.0101359 21.2238 2.06195e-06 20.3016 2.06195e-06C19.2579 2.06195e-06 18.9741 0.0912067 18.5181 0.577632C18.0722 1.05392 17.829 1.69236 17.829 2.45239V3.1415H17.0284H16.238L16.1873 2.39159C16.1265 1.42888 15.8225 0.800577 15.2043 0.344553C14.7483 0.0202698 14.7078 2.06195e-06 13.7754 2.06195e-06C13.0154 2.06195e-06 12.7519 0.0405375 12.5087 0.182411ZM14.1301 1.58088C14.5659 1.75316 14.5861 2.00651 14.5861 6.32353C14.5861 8.68472 14.5456 10.5291 14.4848 10.6811C14.3733 10.9851 13.8666 11.2688 13.6032 11.1776C13.5018 11.1472 13.3194 11.0256 13.1978 10.9142L12.9647 10.7115V6.34379C12.9647 2.01664 12.9647 1.98624 13.1877 1.75316C13.4005 1.52008 13.7856 1.44914 14.1301 1.58088ZM20.7678 1.72276C20.8793 1.83423 20.9907 2.02677 21.0211 2.14838C21.0515 2.28012 21.0617 4.26635 21.0515 6.55661C21.0211 10.7014 21.0211 10.7419 20.7982 10.9547C20.5043 11.2587 20.028 11.2486 19.7037 10.9446L19.4504 10.7115V6.38433C19.4504 2.15851 19.4504 2.04704 19.6632 1.78356C19.9267 1.44914 20.4638 1.41874 20.7678 1.72276ZM27.3041 1.77343L27.5575 2.01664V6.32353V10.6304L27.3244 10.904C27.1521 11.1067 26.99 11.1776 26.7468 11.1776C26.5036 11.1776 26.3414 11.1067 26.1691 10.904L25.9361 10.6304V6.32353V2.01664L26.1894 1.77343C26.3414 1.61128 26.5542 1.52008 26.7468 1.52008C26.9393 1.52008 27.1521 1.61128 27.3041 1.77343ZM11.3433 7.87401C11.3433 10.6811 11.3636 11.0358 11.5359 11.4006C11.7487 11.8769 12.2554 12.4038 12.6708 12.566C12.9647 12.6876 12.9647 12.6977 12.9647 13.5895V14.4914H7.2391H1.51347V11.7755C1.52361 10.2859 1.56414 8.76579 1.60468 8.39083C1.81749 6.74915 2.84101 5.50268 4.44216 4.91492C4.71577 4.81358 5.64809 4.77305 8.08021 4.77305L11.3433 4.76291V7.87401ZM17.829 7.77267C17.829 9.6069 17.8695 10.9446 17.9405 11.1878C18.0621 11.6438 18.7208 12.3937 19.1464 12.566L19.4504 12.6876V13.5895V14.4914H17.0183H14.5861V13.5895C14.5861 12.7585 14.6064 12.6775 14.799 12.6167C15.1334 12.5052 15.6907 11.9579 15.9339 11.5121C16.1468 11.1168 16.1569 10.9648 16.1873 7.92468L16.2177 4.76291H17.0284H17.829V7.77267ZM24.3146 7.76253C24.3146 9.77917 24.3552 10.904 24.4363 11.1675C24.5781 11.6539 25.2064 12.3937 25.632 12.566L25.9361 12.6876V13.5895V14.4914H23.5039H21.0718V13.5895C21.0718 12.7585 21.0921 12.6775 21.2846 12.6167C21.619 12.5052 22.1764 11.9579 22.4196 11.5121C22.6324 11.1168 22.6426 10.9648 22.673 7.92468L22.7034 4.76291H23.5141H24.3146V7.76253ZM36.5969 5.148C37.4481 5.56349 38.2892 6.44513 38.6236 7.26598C38.8466 7.83347 38.8567 7.96521 38.8871 11.1675L38.9175 14.4914H38.4007C38.117 14.4914 37.7927 14.5421 37.6812 14.6029C37.1542 14.8765 37.2454 15.8088 37.8129 16.0014C37.9852 16.0622 38.2994 16.1128 38.5122 16.1128H38.9074V29.0842V42.0555H36.0699H33.2324V41.488C33.2324 41.1739 33.1818 40.7381 33.1108 40.5253C32.9588 40.0085 32.4116 39.37 31.8745 39.0863L31.459 38.8633H20.2611C9.46855 38.8633 9.05306 38.8735 8.67811 39.0559C7.76606 39.5018 7.2999 40.2922 7.28977 41.3563V42.0352L6.26625 42.0758C5.34407 42.1062 5.22246 42.1366 5.05019 42.3494C4.79684 42.6635 4.79684 43.2108 5.06032 43.4742C5.263 43.6769 5.39474 43.6769 22.0852 43.6769H38.9074V45.0348C38.9074 46.2509 38.8871 46.4131 38.6946 46.6563L38.4919 46.9197H20.2712H2.05057L1.80736 46.6563C1.58441 46.4131 1.56414 46.3117 1.53374 45.0348L1.49321 43.6769H2.11137C2.94235 43.6769 3.20583 43.4337 3.13489 42.7142C3.10449 42.3291 2.78021 42.1264 2.12151 42.0758L1.51347 42.0352V29.074V16.1128H4.40162H7.27964L7.31004 19.832L7.34044 23.5612L7.61405 24.078C7.93834 24.6861 8.56664 25.284 9.20507 25.5677C9.60029 25.7501 9.91444 25.7907 11.323 25.8211L12.9647 25.8616V26.4494C12.9647 26.9662 12.9951 27.0675 13.2282 27.2499C13.897 27.7769 14.5861 27.3006 14.5861 26.3075V25.8413H17.0183H19.4504V26.3987C19.4504 26.8648 19.4909 27.0067 19.7037 27.2094C19.9976 27.5134 20.4435 27.5438 20.7779 27.2702C20.9603 27.1283 21.011 26.9561 21.0515 26.4595L21.0921 25.8413H23.5141H25.9361V26.3987C25.9361 27.0777 26.2299 27.4627 26.7468 27.4627C27.2636 27.4627 27.5575 27.0777 27.5575 26.3987V25.8413H28.9559C29.8072 25.8413 30.547 25.7805 30.8611 25.6995C31.5299 25.5272 32.2089 25.061 32.6143 24.5037C33.1919 23.7132 33.2324 23.4295 33.2324 19.5989V16.1331L34.256 16.0926C35.1883 16.0622 35.2997 16.0419 35.472 15.8189C35.7254 15.5048 35.7152 15.0184 35.4416 14.7245L35.2288 14.4914H31.3881H27.5575V13.5895V12.6876L27.8615 12.566C28.2871 12.3937 28.9154 11.6539 29.0573 11.1675C29.1384 10.904 29.1789 9.76904 29.1789 7.76253V4.75278L32.5535 4.78318L35.9179 4.81358L36.5969 5.148ZM11.3433 16.8019C11.3433 18.3727 12.5391 19.4874 14.0186 19.305C15.3158 19.1429 16.0758 18.2815 16.1772 16.8627L16.238 16.1128H17.0183H17.7986L17.8492 16.8931C17.8999 17.7545 18.0621 18.1497 18.5282 18.6159C19.4707 19.5583 21.1022 19.5482 21.994 18.5754C22.4399 18.1092 22.6223 17.6329 22.673 16.8425L22.7236 16.1128H23.5141H24.3146V16.6803C24.3146 17.4505 24.4869 17.9572 24.9024 18.4436C25.4192 19.0516 25.9563 19.2949 26.7468 19.2949C27.5372 19.2949 28.0743 19.0516 28.5911 18.4436C29.0066 17.9572 29.1789 17.4505 29.1789 16.6803V16.1128H30.395H31.6212L31.5908 19.6293C31.5603 23.1356 31.5603 23.1559 31.3273 23.4903C31.1955 23.6727 30.9118 23.9058 30.6888 24.0172C30.3038 24.2199 30.1112 24.2199 20.1192 24.1996C9.96511 24.1692 9.93471 24.1692 9.65096 23.9564C9.49895 23.845 9.26587 23.5916 9.14427 23.4092C8.91119 23.0748 8.91119 23.0343 8.91119 19.5989V16.1128H10.1272H11.3433V16.8019ZM14.5861 16.5385C14.5861 17.0857 14.4037 17.4404 14.0491 17.6126C13.4613 17.8964 12.9647 17.4606 12.9647 16.6499V16.1128H13.7754H14.5861V16.5385ZM21.0718 16.6094C21.0718 17.3998 20.484 17.9167 19.9267 17.6228C19.5619 17.4201 19.4605 17.2073 19.4504 16.6398V16.1128H20.2611H21.0718V16.6094ZM27.5575 16.6094C27.5575 17.258 27.2433 17.6633 26.7468 17.6633C26.2502 17.6633 25.9361 17.258 25.9361 16.6094V16.1128H26.7468H27.5575V16.6094ZM31.3475 40.728C31.5705 40.9306 31.611 41.0624 31.611 41.5184V42.0555H20.2611H8.91119V41.5184C8.92132 40.9408 9.05306 40.6976 9.42801 40.5456C9.58002 40.4847 13.6437 40.4543 20.3827 40.4645L31.0841 40.4847L31.3475 40.728ZM5.64809 49.3721L5.61768 50.2132L4.83738 50.2437L4.04694 50.2741V49.4025V48.5412H4.85765H5.67849L5.64809 49.3721ZM36.4753 49.4025V50.2741L35.695 50.2437L34.9045 50.2132L34.8741 49.3721L34.8437 48.5412H35.6646H36.4753V49.4025Z" fill="#13284C"/>
<path d="M31.8239 7.45853C31.5401 7.81321 31.5604 8.1375 31.8543 8.48205C32.0975 8.75566 32.1279 8.76579 33.3338 8.7962C34.7728 8.83673 35.1985 8.77593 35.4721 8.50231C35.7457 8.2287 35.7254 7.69161 35.4315 7.41799C35.2086 7.20518 35.0971 7.19505 33.6176 7.19505H32.0266L31.8239 7.45853Z" fill="#13284C"/>
<path d="M31.9452 10.5899C31.4689 10.9243 31.5804 11.7553 32.1377 11.9478C32.6242 12.1201 34.9043 12.0897 35.2488 11.9073C35.7352 11.6641 35.8264 11.0256 35.4312 10.6608C35.2083 10.448 35.0968 10.4379 33.6781 10.4379C32.5025 10.4379 32.1175 10.4683 31.9452 10.5899Z" fill="#13284C"/>
</svg>
