<svg width="8" height="14" viewBox="0 0 8 14" fill="none" xmlns="http://www.w3.org/2000/svg">
<path d="M6.971 7.84293L7.358 5.32193H4.939V3.68693C4.92205 3.49865 4.94768 3.30898 5.01398 3.13196C5.08029 2.95493 5.18558 2.7951 5.32205 2.66429C5.45852 2.53349 5.62268 2.43507 5.80235 2.37632C5.98203 2.31758 6.17261 2.30001 6.36 2.32493H7.46V0.178926C6.81435 0.0747292 6.16194 0.0179108 5.508 0.00892646C5.05806 -0.02542 4.60607 0.0396166 4.18407 0.199427C3.76207 0.359238 3.38038 0.60991 3.06606 0.93368C2.75174 1.25745 2.51247 1.64639 2.36522 2.07294C2.21798 2.49949 2.16635 2.9532 2.214 3.40193V5.32293H0V7.84293H2.214V13.9359H4.939V7.84293H6.971Z" fill="black"/>
</svg>
