<svg width="14" height="14" viewBox="0 0 14 14" fill="none" xmlns="http://www.w3.org/2000/svg">
<path d="M6.96575 3.39275C6.25939 3.39275 5.56889 3.60224 4.9816 3.99471C4.39431 4.38719 3.93661 4.94502 3.66639 5.59765C3.39616 6.25028 3.32556 6.96839 3.46351 7.66115C3.60146 8.35391 3.94177 8.9902 4.44138 9.48954C4.94099 9.98887 5.57747 10.3288 6.27031 10.4664C6.96315 10.6039 7.68122 10.5329 8.3337 10.2624C8.98618 9.99176 9.54375 9.53375 9.9359 8.94624C10.328 8.35873 10.5371 7.66811 10.5367 6.96175C10.5373 6.49275 10.4453 6.02825 10.266 5.59487C10.0867 5.16149 9.82361 4.76775 9.49188 4.4362C9.16015 4.10466 8.76626 3.84183 8.33278 3.66278C7.8993 3.48372 7.43475 3.39196 6.96575 3.39275ZM6.96575 9.28475C6.50683 9.28455 6.05826 9.14831 5.67675 8.89324C5.29524 8.63818 4.99791 8.27574 4.82233 7.85173C4.64675 7.42772 4.60082 6.96118 4.69032 6.51107C4.77983 6.06096 5.00077 5.64749 5.3252 5.32291C5.64964 4.99833 6.06302 4.77722 6.51309 4.68752C6.96316 4.59782 7.42972 4.64355 7.8538 4.81895C8.27789 4.99434 8.64046 5.29152 8.89569 5.67292C9.15092 6.05432 9.28735 6.50283 9.28775 6.96175C9.28696 7.57743 9.0421 8.16768 8.60684 8.60313C8.17158 9.03858 7.58143 9.28369 6.96575 9.28475ZM11.5157 3.24675C11.5157 3.4115 11.4669 3.57255 11.3754 3.70954C11.2838 3.84653 11.1537 3.95329 11.0015 4.01634C10.8493 4.07939 10.6818 4.09589 10.5202 4.06374C10.3587 4.0316 10.2102 3.95227 10.0937 3.83577C9.97723 3.71927 9.8979 3.57085 9.86576 3.40926C9.83361 3.24767 9.85011 3.08019 9.91316 2.92797C9.97621 2.77576 10.083 2.64567 10.22 2.55414C10.3569 2.4626 10.518 2.41375 10.6828 2.41375C10.7921 2.41349 10.9005 2.43482 11.0016 2.47653C11.1027 2.51823 11.1946 2.57949 11.272 2.65679C11.3494 2.73409 11.4108 2.8259 11.4526 2.92697C11.4944 3.02804 11.5159 3.13737 11.5157 3.24675ZM13.8808 4.09175C13.9036 3.00907 13.4995 1.96087 12.7558 1.17375C11.9671 0.432493 10.9199 0.0287829 9.83775 0.04875C8.68775 -0.01625 5.23775 -0.01625 4.09175 0.04875C3.00988 0.0273337 1.96257 0.430036 1.17375 1.17075C0.431207 1.95863 0.0272859 3.00631 0.04875 4.08875C-0.01625 5.23875 -0.01625 8.68875 0.04875 9.83475C0.0258852 10.9174 0.430003 11.9656 1.17375 12.7528C1.96273 13.4935 3.00967 13.8972 4.09175 13.8777C5.24175 13.9427 8.69175 13.9427 9.83775 13.8777C10.9204 13.9006 11.9686 13.4965 12.7558 12.7528C13.497 11.9641 13.9007 10.9169 13.8808 9.83475C13.9458 8.68475 13.9458 5.24175 13.8808 4.09175ZM12.3958 11.0688C12.2776 11.3684 12.0991 11.6405 11.8713 11.8683C11.6435 12.0961 11.3714 12.2746 11.0718 12.3927C9.72219 12.6699 8.34145 12.7641 6.96675 12.6728C5.59205 12.7626 4.21151 12.6685 2.86175 12.3927C2.56211 12.2746 2.28995 12.0961 2.06219 11.8683C1.83443 11.6405 1.65592 11.3684 1.53775 11.0688C1.26043 9.71853 1.16625 8.33711 1.25775 6.96175C1.16799 5.58876 1.26182 4.20993 1.53675 2.86175C1.65446 2.56137 1.83276 2.28844 2.06055 2.05996C2.28833 1.83149 2.56072 1.65237 2.86075 1.53375C4.21032 1.25661 5.59105 1.16243 6.96575 1.25375C8.34045 1.16388 9.72099 1.25804 11.0708 1.53375C11.371 1.65225 11.6435 1.83132 11.8715 2.0598C12.0995 2.28828 12.2779 2.56127 12.3958 2.86175C12.6721 4.20973 12.766 5.58876 12.6748 6.96175C12.7667 8.33707 12.6728 9.7185 12.3958 11.0688Z" fill="black"/>
</svg>
