<svg width="16" height="16" viewBox="0 0 16 16" fill="none" xmlns="http://www.w3.org/2000/svg">
<path d="M3.47398 15.444H0.271979V5.13198H3.47198L3.47398 15.444ZM1.87098 3.72598C1.50256 3.72756 1.14194 3.61987 0.834725 3.41652C0.527505 3.21317 0.287475 2.92329 0.144983 2.58354C0.00248981 2.24379 -0.036068 1.86942 0.0341839 1.50776C0.104436 1.1461 0.280343 0.813383 0.539666 0.551683C0.798989 0.289984 1.13008 0.111049 1.49109 0.0375005C1.8521 -0.0360477 2.2268 -0.000906631 2.56784 0.138481C2.90888 0.277868 3.20093 0.515244 3.40707 0.820596C3.61322 1.12595 3.7242 1.48557 3.72598 1.85398C3.72652 2.3477 3.5318 2.82159 3.18429 3.17229C2.83678 3.52299 2.36468 3.72202 1.87098 3.72598ZM15.458 15.444H12.258V10.424C12.258 9.22398 12.234 7.69398 10.593 7.69398C8.92798 7.69398 8.67298 8.99398 8.67298 10.338V15.444H5.47298V5.13198H8.55098V6.53898H8.59598C8.90307 6.01323 9.3471 5.58067 9.88072 5.28745C10.4143 4.99422 11.0175 4.85132 11.626 4.87398C14.867 4.87398 15.462 7.00798 15.462 9.77998V15.444H15.458Z" fill="black"/>
</svg>
