<svg width="15" height="15" viewBox="0 0 15 15" fill="none" xmlns="http://www.w3.org/2000/svg">
<path d="M4.273 0L3.265 2L2.257 0H0.971L2.788 3.167L2.799 3.161V5.596H3.73V3.161L3.741 3.167L5.559 0H4.273ZM6.996 1.865C7.11903 1.86681 7.23651 1.91648 7.32351 2.00349C7.41052 2.09049 7.46019 2.20797 7.462 2.331V4.197C7.462 4.32072 7.41285 4.43938 7.32537 4.52687C7.23788 4.61435 7.11922 4.6635 6.9955 4.6635C6.87178 4.6635 6.75312 4.61435 6.66564 4.52687C6.57815 4.43938 6.529 4.32072 6.529 4.197V2.332C6.53081 2.20897 6.58048 2.09149 6.66749 2.00449C6.75449 1.91748 6.87197 1.86781 6.995 1.866L6.996 1.865ZM6.996 0.932C6.6247 0.932 6.2686 1.0795 6.00605 1.34205C5.7435 1.6046 5.596 1.9607 5.596 2.332V4.197C5.596 4.5683 5.7435 4.9244 6.00605 5.18695C6.2686 5.4495 6.6247 5.597 6.996 5.597C7.3673 5.597 7.7234 5.4495 7.98595 5.18695C8.2485 4.9244 8.396 4.5683 8.396 4.197V2.332C8.39573 1.96087 8.24812 1.60503 7.9856 1.3427C7.72307 1.08036 7.36713 0.933 6.996 0.933V0.932ZM11.196 0.932V4.605C10.789 4.944 10.263 5.149 10.263 3.94V0.933H9.33V4.133C9.344 4.904 9.507 6.292 11.194 5.163V5.6H12.13V0.933H11.197L11.196 0.932ZM12.596 10.259C12.4725 10.2593 12.3541 10.3084 12.2668 10.3958C12.1794 10.4831 12.1303 10.6015 12.13 10.725V11.191H13.063V10.725C13.0627 10.6015 13.0136 10.4831 12.9262 10.3958C12.8389 10.3084 12.7195 10.2593 12.596 10.259ZM8.396 10.725V13.172C8.712 13.488 9.329 13.522 9.329 13.055V10.872C9.33 10.405 8.861 10.259 8.395 10.726L8.396 10.725ZM14.847 8.472C14.8294 7.97528 14.6217 7.5043 14.2668 7.15631C13.9119 6.80832 13.437 6.60989 12.94 6.602C11.923 6.551 9.596 6.526 7.552 6.526C5.508 6.526 3.016 6.551 1.999 6.602C1.50203 6.60989 1.02707 6.80832 0.672197 7.15631C0.317319 7.5043 0.109624 7.97528 0.092 8.472C0.031 9.567 0 9.964 0 10.511C0 11.058 0.03 11.879 0.092 12.974C0.109624 13.4707 0.317319 13.9417 0.672197 14.2897C1.02707 14.6377 1.50203 14.8361 1.999 14.844C3.016 14.895 5.508 14.92 7.552 14.92C9.596 14.92 11.923 14.895 12.94 14.844C13.437 14.8361 13.9119 14.6377 14.2668 14.2897C14.6217 13.9417 14.8294 13.4707 14.847 12.974C14.8977 12.062 14.923 11.241 14.923 10.511C14.923 9.781 14.898 9.384 14.847 8.472ZM2.799 13.99H1.866V9.327H0.93V8.394H3.73V9.327H2.799V13.99ZM6.53 13.99H5.597V13.553C3.824 14.553 3.747 13.585 3.733 12.814V10.259H4.666V12.829C4.666 13.392 5.192 13.338 5.599 12.999V10.259H6.53V13.99ZM10.261 13.044C10.261 14.019 9.261 14.303 8.396 13.544V13.989H7.463V8.389H8.396V9.905C9.329 8.972 10.261 9.322 10.261 10.255V13.044ZM13.992 11.192V11.658H12.13V12.591C12.13 12.6523 12.1421 12.7129 12.1655 12.7695C12.189 12.8261 12.2233 12.8775 12.2666 12.9209C12.31 12.9642 12.3614 12.9985 12.418 13.022C12.4746 13.0454 12.5352 13.0575 12.5965 13.0575C12.6578 13.0575 12.7184 13.0454 12.775 13.022C12.8316 12.9985 12.883 12.9642 12.9264 12.9209C12.9697 12.8775 13.004 12.8261 13.0275 12.7695C13.0509 12.7129 13.063 12.6523 13.063 12.591V12.125H13.996V12.591C13.996 12.9623 13.8485 13.3184 13.5859 13.5809C13.3234 13.8435 12.9673 13.991 12.596 13.991C12.2247 13.991 11.8686 13.8435 11.6061 13.5809C11.3435 13.3184 11.196 12.9623 11.196 12.591V10.726C11.196 10.3547 11.3435 9.9986 11.6061 9.73605C11.8686 9.4735 12.2247 9.326 12.596 9.326C12.9673 9.326 13.3234 9.4735 13.5859 9.73605C13.8485 9.9986 13.996 10.3547 13.996 10.726V11.192H13.992Z" fill="black"/>
</svg>
