<svg width="96" height="56" viewBox="0 0 96 56" fill="none" xmlns="http://www.w3.org/2000/svg">
<path d="M91.9373 55.0639C91.3493 55.0639 90.8093 54.9259 90.3173 54.6499C89.8253 54.3739 89.4353 53.9929 89.1473 53.5069C88.8593 53.0149 88.7153 52.4599 88.7153 51.8419C88.7153 51.2299 88.8593 50.6809 89.1473 50.1949C89.4353 49.7029 89.8253 49.3189 90.3173 49.0429C90.8093 48.7669 91.3493 48.6289 91.9373 48.6289C92.5313 48.6289 93.0713 48.7669 93.5573 49.0429C94.0493 49.3189 94.4363 49.7029 94.7183 50.1949C95.0063 50.6809 95.1503 51.2299 95.1503 51.8419C95.1503 52.4599 95.0063 53.0149 94.7183 53.5069C94.4363 53.9929 94.0493 54.3739 93.5573 54.6499C93.0653 54.9259 92.5253 55.0639 91.9373 55.0639ZM91.9373 53.9389C92.3153 53.9389 92.6483 53.8549 92.9363 53.6869C93.2243 53.5129 93.4493 53.2669 93.6113 52.9489C93.7733 52.6309 93.8543 52.2619 93.8543 51.8419C93.8543 51.4219 93.7733 51.0559 93.6113 50.7439C93.4493 50.4259 93.2243 50.1829 92.9363 50.0149C92.6483 49.8469 92.3153 49.7629 91.9373 49.7629C91.5593 49.7629 91.2233 49.8469 90.9293 50.0149C90.6413 50.1829 90.4163 50.4259 90.2543 50.7439C90.0923 51.0559 90.0113 51.4219 90.0113 51.8419C90.0113 52.2619 90.0923 52.6309 90.2543 52.9489C90.4163 53.2669 90.6413 53.5129 90.9293 53.6869C91.2233 53.8549 91.5593 53.9389 91.9373 53.9389Z" fill="white"/>
<path d="M86.4959 55.0008L85.1099 52.5528H84.5159V55.0008H83.2559V48.7188H85.6139C86.0999 48.7188 86.5139 48.8057 86.8559 48.9797C87.1979 49.1477 87.4529 49.3787 87.6209 49.6727C87.7949 49.9607 87.8819 50.2847 87.8819 50.6447C87.8819 51.0587 87.7619 51.4337 87.5219 51.7697C87.2819 52.0997 86.9249 52.3277 86.4509 52.4537L87.9539 55.0008H86.4959ZM84.5159 51.6077H85.5689C85.9109 51.6077 86.1659 51.5267 86.3339 51.3647C86.5019 51.1967 86.5859 50.9657 86.5859 50.6717C86.5859 50.3837 86.5019 50.1617 86.3339 50.0058C86.1659 49.8438 85.9109 49.7628 85.5689 49.7628H84.5159V51.6077Z" fill="white"/>
<path d="M78.2224 48.7188V52.6068C78.2224 53.0327 78.3334 53.3597 78.5554 53.5877C78.7774 53.8097 79.0894 53.9208 79.4914 53.9208C79.8994 53.9208 80.2144 53.8097 80.4364 53.5877C80.6584 53.3597 80.7694 53.0327 80.7694 52.6068V48.7188H82.0384V52.5977C82.0384 53.1317 81.9214 53.5848 81.6874 53.9568C81.4594 54.3228 81.1504 54.5988 80.7604 54.7848C80.3764 54.9708 79.9474 55.0637 79.4734 55.0637C79.0054 55.0637 78.5794 54.9708 78.1954 54.7848C77.8174 54.5988 77.5174 54.3228 77.2954 53.9568C77.0734 53.5848 76.9624 53.1317 76.9624 52.5977V48.7188H78.2224Z" fill="white"/>
<path d="M74.4461 50.6087C74.3021 50.3447 74.1041 50.1437 73.8521 50.0057C73.6001 49.8677 73.3061 49.7987 72.9701 49.7987C72.5981 49.7987 72.2681 49.8827 71.9801 50.0507C71.6921 50.2187 71.4671 50.4587 71.3051 50.7707C71.1431 51.0827 71.0621 51.4427 71.0621 51.8507C71.0621 52.2707 71.1431 52.6367 71.3051 52.9487C71.4731 53.2607 71.7041 53.5007 71.9981 53.6687C72.2921 53.8367 72.6341 53.9207 73.0241 53.9207C73.5041 53.9207 73.8971 53.7947 74.2031 53.5427C74.5091 53.2847 74.7101 52.9277 74.8061 52.4717H72.6461V51.5087H76.0481V52.6067C75.9641 53.0447 75.7841 53.4497 75.5081 53.8217C75.2321 54.1937 74.8751 54.4937 74.4371 54.7217C74.0051 54.9437 73.5191 55.0547 72.9791 55.0547C72.3731 55.0547 71.8241 54.9197 71.3321 54.6497C70.8461 54.3737 70.4621 53.9927 70.1801 53.5067C69.9041 53.0207 69.7661 52.4687 69.7661 51.8507C69.7661 51.2327 69.9041 50.6807 70.1801 50.1947C70.4621 49.7027 70.8461 49.3217 71.3321 49.0517C71.8241 48.7757 72.3701 48.6377 72.9701 48.6377C73.6781 48.6377 74.2931 48.8117 74.8151 49.1597C75.3371 49.5017 75.6971 49.9847 75.8951 50.6087H74.4461Z" fill="white"/>
<path d="M66.5422 49.736V51.311H68.6572V52.31H66.5422V53.975H68.9272V55.001H65.2822V48.71H68.9272V49.736H66.5422Z" fill="white"/>
<path d="M61.9667 55.0639C61.5287 55.0639 61.1327 54.9889 60.7787 54.8389C60.4307 54.6889 60.1547 54.4729 59.9507 54.1909C59.7467 53.9089 59.6417 53.5759 59.6357 53.1919H60.9857C61.0037 53.4499 61.0937 53.6539 61.2557 53.8039C61.4237 53.9539 61.6517 54.0289 61.9397 54.0289C62.2337 54.0289 62.4647 53.9599 62.6327 53.8219C62.8007 53.6779 62.8847 53.4919 62.8847 53.2639C62.8847 53.0779 62.8277 52.9249 62.7137 52.8049C62.5997 52.6849 62.4557 52.5919 62.2817 52.5259C62.1137 52.4539 61.8797 52.3759 61.5797 52.2919C61.1717 52.1719 60.8387 52.0549 60.5807 51.9409C60.3287 51.8209 60.1097 51.6439 59.9237 51.4099C59.7437 51.1699 59.6537 50.8519 59.6537 50.4559C59.6537 50.0839 59.7467 49.7599 59.9327 49.4839C60.1187 49.2079 60.3797 48.9979 60.7157 48.8539C61.0517 48.7039 61.4357 48.6289 61.8677 48.6289C62.5157 48.6289 63.0407 48.7879 63.4427 49.1059C63.8507 49.4179 64.0757 49.8559 64.1177 50.4199H62.7317C62.7197 50.2039 62.6267 50.0269 62.4527 49.8889C62.2847 49.7449 62.0597 49.6729 61.7777 49.6729C61.5317 49.6729 61.3337 49.7359 61.1837 49.8619C61.0397 49.9879 60.9677 50.1709 60.9677 50.4109C60.9677 50.5789 61.0217 50.7199 61.1297 50.8339C61.2437 50.9419 61.3817 51.0319 61.5437 51.1039C61.7117 51.1699 61.9457 51.2479 62.2457 51.3379C62.6537 51.4579 62.9867 51.5779 63.2447 51.6979C63.5027 51.8179 63.7247 51.9979 63.9107 52.2379C64.0967 52.4779 64.1897 52.7929 64.1897 53.1829C64.1897 53.5189 64.1027 53.8309 63.9287 54.1189C63.7547 54.4069 63.4997 54.6379 63.1637 54.8119C62.8277 54.9799 62.4287 55.0639 61.9667 55.0639Z" fill="white"/>
<path d="M53.5028 55.0639C52.9148 55.0639 52.3748 54.9259 51.8828 54.6499C51.3908 54.3739 51.0008 53.9929 50.7128 53.5069C50.4248 53.0149 50.2808 52.4599 50.2808 51.8419C50.2808 51.2299 50.4248 50.6809 50.7128 50.1949C51.0008 49.7029 51.3908 49.3189 51.8828 49.0429C52.3748 48.7669 52.9148 48.6289 53.5028 48.6289C54.0968 48.6289 54.6368 48.7669 55.1228 49.0429C55.6148 49.3189 56.0018 49.7029 56.2838 50.1949C56.5718 50.6809 56.7158 51.2299 56.7158 51.8419C56.7158 52.4599 56.5718 53.0149 56.2838 53.5069C56.0018 53.9929 55.6148 54.3739 55.1228 54.6499C54.6308 54.9259 54.0908 55.0639 53.5028 55.0639ZM53.5028 53.9389C53.8808 53.9389 54.2138 53.8549 54.5018 53.6869C54.7898 53.5129 55.0148 53.2669 55.1768 52.9489C55.3388 52.6309 55.4198 52.2619 55.4198 51.8419C55.4198 51.4219 55.3388 51.0559 55.1768 50.7439C55.0148 50.4259 54.7898 50.1829 54.5018 50.0149C54.2138 49.8469 53.8808 49.7629 53.5028 49.7629C53.1248 49.7629 52.7888 49.8469 52.4948 50.0149C52.2068 50.1829 51.9818 50.4259 51.8198 50.7439C51.6578 51.0559 51.5768 51.4219 51.5768 51.8419C51.5768 52.2619 51.6578 52.6309 51.8198 52.9489C51.9818 53.2669 52.2068 53.5129 52.4948 53.6869C52.7888 53.8549 53.1248 53.9389 53.5028 53.9389Z" fill="white"/>
<path d="M49.6676 48.7188V49.7357H47.9936V55.0008H46.7336V49.7357H45.0596V48.7188H49.6676Z" fill="white"/>
<path d="M44.1474 55.001H42.8874L40.0344 50.69V55.001H38.7744V48.71H40.0344L42.8874 53.03V48.71H44.1474V55.001Z" fill="white"/>
<path d="M35.2444 49.736V51.311H37.3594V52.31H35.2444V53.975H37.6294V55.001H33.9844V48.71H37.6294V49.736H35.2444Z" fill="white"/>
<path d="M32.7386 48.7188V55.0008H31.4786V50.9147L29.7956 55.0008H28.8416L27.1496 50.9147V55.0008H25.8896V48.7188H27.3206L29.3186 53.3898L31.3166 48.7188H32.7386Z" fill="white"/>
<path d="M23.2991 53.804H20.7971L20.3831 55.001H19.0601L21.3191 48.71H22.7861L25.0451 55.001H23.7131L23.2991 53.804ZM22.9571 52.796L22.0481 50.168L21.1391 52.796H22.9571Z" fill="white"/>
<path d="M16.9129 50.6087C16.7689 50.3447 16.5709 50.1437 16.3189 50.0057C16.0669 49.8677 15.7729 49.7987 15.4369 49.7987C15.0649 49.7987 14.7349 49.8827 14.4469 50.0507C14.1589 50.2187 13.9339 50.4587 13.7719 50.7707C13.6099 51.0827 13.5289 51.4427 13.5289 51.8507C13.5289 52.2707 13.6099 52.6367 13.7719 52.9487C13.9399 53.2607 14.1709 53.5007 14.4649 53.6687C14.7589 53.8367 15.1009 53.9207 15.4909 53.9207C15.9709 53.9207 16.3639 53.7947 16.6699 53.5427C16.9759 53.2847 17.1769 52.9277 17.2729 52.4717H15.1129V51.5087H18.5149V52.6067C18.4309 53.0447 18.2509 53.4497 17.9749 53.8217C17.6989 54.1937 17.3419 54.4937 16.9039 54.7217C16.4719 54.9437 15.9859 55.0547 15.4459 55.0547C14.8399 55.0547 14.2909 54.9197 13.7989 54.6497C13.3129 54.3737 12.9289 53.9927 12.6469 53.5067C12.3709 53.0207 12.2329 52.4687 12.2329 51.8507C12.2329 51.2327 12.3709 50.6807 12.6469 50.1947C12.9289 49.7027 13.3129 49.3217 13.7989 49.0517C14.2909 48.7757 14.8369 48.6377 15.4369 48.6377C16.1449 48.6377 16.7599 48.8117 17.2819 49.1597C17.8039 49.5017 18.1639 49.9847 18.3619 50.6087H16.9129Z" fill="white"/>
<path d="M9.94847 53.804H7.44647L7.03247 55.001H5.70947L7.96847 48.71H9.43547L11.6945 55.001H10.3625L9.94847 53.804ZM9.60647 52.796L8.69747 50.168L7.78847 52.796H9.60647Z" fill="white"/>
<path d="M5.20209 50.6627C5.20209 50.9987 5.12109 51.3137 4.95909 51.6077C4.80309 51.9017 4.55409 52.1387 4.21209 52.3187C3.87609 52.4987 3.45009 52.5887 2.93409 52.5887H1.88109V55.0008H0.621094V48.7188H2.93409C3.42009 48.7188 3.83409 48.8027 4.17609 48.9707C4.51809 49.1387 4.77309 49.3697 4.94109 49.6637C5.11509 49.9577 5.20209 50.2907 5.20209 50.6627ZM2.88009 51.5718C3.22809 51.5718 3.48609 51.4937 3.65409 51.3377C3.82209 51.1757 3.90609 50.9507 3.90609 50.6627C3.90609 50.0507 3.56409 49.7447 2.88009 49.7447H1.88109V51.5718H2.88009Z" fill="white"/>
<path fill-rule="evenodd" clip-rule="evenodd" d="M70.3043 37.5652H25.6957C23.1025 37.5652 21 35.4627 21 32.8696V4.69565C21 2.10248 23.1025 0 25.6957 0H70.3043C72.8975 0 75 2.10248 75 4.69565V32.8696C75 35.4627 72.8975 37.5652 70.3043 37.5652ZM23.3478 15.2609H72.6522V10.5652H23.3478V15.2609ZM72.6522 4.69565C72.6522 3.39965 71.6003 2.34783 70.3043 2.34783H25.6957C24.3997 2.34783 23.3478 3.39965 23.3478 4.69565V8.21739H72.6522V4.69565ZM72.6522 17.6087H23.3478V32.8696C23.3478 34.1656 24.3997 35.2174 25.6957 35.2174H70.3043C71.6003 35.2174 72.6522 34.1656 72.6522 32.8696V17.6087ZM50.3478 24.6522H45.6522C45.003 24.6522 44.4783 24.1274 44.4783 23.4783C44.4783 22.8303 45.003 22.3043 45.6522 22.3043H50.3478C50.997 22.3043 51.5217 22.8303 51.5217 23.4783C51.5217 24.1274 50.997 24.6522 50.3478 24.6522ZM39.7826 24.6522H29.2174C28.5682 24.6522 28.0435 24.1274 28.0435 23.4783C28.0435 22.8303 28.5682 22.3043 29.2174 22.3043H39.7826C40.4318 22.3043 40.9565 22.8303 40.9565 23.4783C40.9565 24.1274 40.4318 24.6522 39.7826 24.6522ZM29.2174 28.1739H36.2609C36.91 28.1739 37.4348 28.6998 37.4348 29.3478C37.4348 29.997 36.91 30.5217 36.2609 30.5217H29.2174C28.5682 30.5217 28.0435 29.997 28.0435 29.3478C28.0435 28.6998 28.5682 28.1739 29.2174 28.1739Z" fill="white"/>
</svg>
