<svg width="83" height="59" viewBox="0 0 83 59" fill="none" xmlns="http://www.w3.org/2000/svg">
<path d="M58.7753 1V36.8134H33.3372C33.2332 35.1975 32.5179 33.6818 31.3367 32.5742C30.1555 31.4666 28.597 30.8502 26.9777 30.8502C25.3584 30.8502 23.7999 31.4666 22.6187 32.5742C21.4375 33.6818 20.7222 35.1975 20.6182 36.8134H14.1665V1H58.7753Z" stroke="white" stroke-linecap="round" stroke-linejoin="round"/>
<path d="M80.0001 24.1732V36.8133H75.7604C75.6564 35.1973 74.9411 33.6816 73.7599 32.574C72.5787 31.4664 71.0202 30.85 69.4009 30.85C67.7816 30.85 66.2231 31.4664 65.0419 32.574C63.8607 33.6816 63.1454 35.1973 63.0414 36.8133H58.7754V11.5332H67.6497L80.0001 24.1732Z" stroke="white" stroke-linecap="round" stroke-linejoin="round"/>
<path d="M80.0001 24.1729V36.8129H75.7604C75.6564 35.197 74.9411 33.6812 73.7599 32.5736C72.5787 31.4661 71.0202 30.8496 69.4009 30.8496C67.7816 30.8496 66.2231 31.4661 65.0419 32.5736C63.8607 33.6812 63.1454 35.197 63.0414 36.8129H58.7754V24.1729H80.0001Z" stroke="white" stroke-linecap="round" stroke-linejoin="round"/>
<path d="M26.9645 43.1342C30.484 43.1342 33.3372 40.3046 33.3372 36.8142C33.3372 33.3237 30.484 30.4941 26.9645 30.4941C23.4449 30.4941 20.5918 33.3237 20.5918 36.8142C20.5918 40.3046 23.4449 43.1342 26.9645 43.1342Z" stroke="white" stroke-linecap="round" stroke-linejoin="round"/>
<path d="M69.3873 43.1342C72.9069 43.1342 75.76 40.3046 75.76 36.8142C75.76 33.3237 72.9069 30.4941 69.3873 30.4941C65.8678 30.4941 63.0146 33.3237 63.0146 36.8142C63.0146 40.3046 65.8678 43.1342 69.3873 43.1342Z" stroke="white" stroke-linecap="round" stroke-linejoin="round"/>
<path d="M1 5.21191H7.87301" stroke="white" stroke-linecap="round" stroke-linejoin="round"/>
<path d="M1 13.6396H7.87301" stroke="white" stroke-linecap="round" stroke-linejoin="round"/>
<path d="M1 22.0664H7.87301" stroke="white" stroke-linecap="round" stroke-linejoin="round"/>
<path d="M80.7659 56.803H78.2639L77.8499 58H76.5269L78.7859 51.709H80.2529L82.5119 58H81.1799L80.7659 56.803ZM80.4239 55.795L79.5149 53.167L78.6059 55.795H80.4239Z" fill="white"/>
<path d="M72.6589 51.7178C73.3189 51.7178 73.8979 51.8468 74.3959 52.1048C74.8999 52.3628 75.2869 52.7318 75.5569 53.2118C75.8329 53.6858 75.9709 54.2378 75.9709 54.8678C75.9709 55.4978 75.8329 56.0498 75.5569 56.5238C75.2869 56.9918 74.8999 57.3548 74.3959 57.6128C73.8979 57.8708 73.3189 57.9998 72.6589 57.9998H70.4629V51.7178H72.6589ZM72.6139 56.9288C73.2739 56.9288 73.7839 56.7488 74.1439 56.3888C74.5039 56.0288 74.6839 55.5218 74.6839 54.8678C74.6839 54.2138 74.5039 53.7038 74.1439 53.3378C73.7839 52.9658 73.2739 52.7798 72.6139 52.7798H71.7229V56.9288H72.6139Z" fill="white"/>
<path d="M69.218 51.7178V57.9998H67.958V51.7178H69.218Z" fill="white"/>
<path d="M67.0634 53.6618C67.0634 53.9978 66.9824 54.3128 66.8204 54.6068C66.6644 54.9008 66.4154 55.1378 66.0734 55.3178C65.7374 55.4978 65.3114 55.5878 64.7954 55.5878H63.7424V57.9998H62.4824V51.7178H64.7954C65.2814 51.7178 65.6954 51.8018 66.0374 51.9698C66.3794 52.1378 66.6344 52.3688 66.8024 52.6628C66.9764 52.9568 67.0634 53.2898 67.0634 53.6618ZM64.7414 54.5708C65.0894 54.5708 65.3474 54.4928 65.5154 54.3368C65.6834 54.1748 65.7674 53.9498 65.7674 53.6618C65.7674 53.0498 65.4254 52.7438 64.7414 52.7438H63.7424V54.5708H64.7414Z" fill="white"/>
<path d="M59.8918 56.8027H57.3898L56.9758 57.9997H55.6528L57.9118 51.7087H59.3788L61.6378 57.9997H60.3058L59.8918 56.8027ZM59.5498 55.7947L58.6408 53.1667L57.7318 55.7947H59.5498ZM59.6218 50.4127L57.5518 51.3577V50.4577L59.6218 49.3867V50.4127Z" fill="white"/>
<path d="M53.5144 57.9998L52.1284 55.5518H51.5344V57.9998H50.2744V51.7178H52.6324C53.1184 51.7178 53.5324 51.8048 53.8744 51.9788C54.2164 52.1468 54.4714 52.3778 54.6394 52.6718C54.8134 52.9598 54.9004 53.2838 54.9004 53.6438C54.9004 54.0578 54.7804 54.4328 54.5404 54.7688C54.3004 55.0988 53.9434 55.3268 53.4694 55.4528L54.9724 57.9998H53.5144ZM51.5344 54.6068H52.5874C52.9294 54.6068 53.1844 54.5258 53.3524 54.3638C53.5204 54.1958 53.6044 53.9648 53.6044 53.6708C53.6044 53.3828 53.5204 53.1608 53.3524 53.0048C53.1844 52.8428 52.9294 52.7618 52.5874 52.7618H51.5344V54.6068Z" fill="white"/>
<path d="M45.5393 56.803H43.0373L42.6233 58H41.3003L43.5593 51.709H45.0263L47.2853 58H45.9533L45.5393 56.803ZM45.1973 55.795L44.2883 53.167L43.3793 55.795H45.1973Z" fill="white"/>
<path d="M39.1531 53.6077C39.0091 53.3437 38.8111 53.1427 38.5591 53.0047C38.3071 52.8667 38.0131 52.7977 37.6771 52.7977C37.3051 52.7977 36.9751 52.8817 36.6871 53.0497C36.3991 53.2177 36.1741 53.4577 36.0121 53.7697C35.8501 54.0817 35.7691 54.4417 35.7691 54.8497C35.7691 55.2697 35.8501 55.6357 36.0121 55.9477C36.1801 56.2597 36.4111 56.4997 36.7051 56.6677C36.9991 56.8357 37.3411 56.9197 37.7311 56.9197C38.2111 56.9197 38.6041 56.7937 38.9101 56.5417C39.2161 56.2837 39.4171 55.9267 39.5131 55.4707H37.3531V54.5077H40.7551V55.6057C40.6711 56.0437 40.4911 56.4487 40.2151 56.8207C39.9391 57.1927 39.5821 57.4927 39.1441 57.7207C38.7121 57.9427 38.2261 58.0537 37.6861 58.0537C37.0801 58.0537 36.5311 57.9187 36.0391 57.6487C35.5531 57.3727 35.1691 56.9917 34.8871 56.5057C34.6111 56.0197 34.4731 55.4677 34.4731 54.8497C34.4731 54.2317 34.6111 53.6797 34.8871 53.1937C35.1691 52.7017 35.5531 52.3207 36.0391 52.0507C36.5311 51.7747 37.0771 51.6367 37.6771 51.6367C38.3851 51.6367 39.0001 51.8107 39.5221 52.1587C40.0441 52.5007 40.4041 52.9837 40.6021 53.6077H39.1531Z" fill="white"/>
<path d="M31.2493 52.735V54.31H33.3643V55.309H31.2493V56.974H33.6343V58H29.9893V51.709H33.6343V52.735H31.2493Z" fill="white"/>
<path d="M27.4636 57.9998L26.0776 55.5518H25.4836V57.9998H24.2236V51.7178H26.5816C27.0676 51.7178 27.4816 51.8048 27.8236 51.9788C28.1656 52.1468 28.4206 52.3778 28.5886 52.6718C28.7626 52.9598 28.8496 53.2838 28.8496 53.6438C28.8496 54.0578 28.7296 54.4328 28.4896 54.7688C28.2496 55.0988 27.8926 55.3268 27.4186 55.4528L28.9216 57.9998H27.4636ZM25.4836 54.6068H26.5366C26.8786 54.6068 27.1336 54.5258 27.3016 54.3638C27.4696 54.1958 27.5536 53.9648 27.5536 53.6708C27.5536 53.3828 27.4696 53.1608 27.3016 53.0048C27.1336 52.8428 26.8786 52.7618 26.5366 52.7618H25.4836V54.6068Z" fill="white"/>
<path d="M23.3043 51.7178V52.7348H21.6303V57.9998H20.3703V52.7348H18.6963V51.7178H23.3043Z" fill="white"/>
<path d="M17.7841 58H16.5241L13.6711 53.689V58H12.4111V51.709H13.6711L16.5241 56.029V51.709H17.7841V58Z" fill="white"/>
<path d="M8.88109 52.735V54.31H10.9961V55.309H8.88109V56.974H11.2661V58H7.62109V51.709H11.2661V52.735H8.88109Z" fill="white"/>
</svg>
