<svg width="31" height="19" viewBox="0 0 31 19" fill="none" xmlns="http://www.w3.org/2000/svg">
<path d="M31 0H0V18.0854H31V0Z" fill="#3D9244"/>
<path d="M4.77716 9.03962L15.5 15.8875L26.2229 9.03962L15.5 2.19177L4.77716 9.03962Z" fill="#EDC223"/>
<path d="M20.0229 9.03964C20.0229 11.5342 17.9946 13.5625 15.5 13.5625C13.0055 13.5625 10.9772 11.5402 10.9772 9.03964C10.9772 6.5451 12.9994 4.51678 15.5 4.51678C17.9946 4.51678 20.0229 6.5451 20.0229 9.03964Z" fill="#31276C"/>
<path d="M12.9146 7.10211C12.3879 7.10211 11.8672 7.13844 11.3646 7.2111C11.2677 7.43512 11.189 7.6652 11.1224 7.90133C11.7037 7.7984 12.3031 7.74391 12.9146 7.74391C15.5666 7.74391 17.9824 8.74293 19.8109 10.3838C19.8836 10.1537 19.9381 9.91149 19.9744 9.6693C18.0672 8.07086 15.6029 7.10211 12.9146 7.10211Z" fill="white"/>
<path fill-rule="evenodd" clip-rule="evenodd" d="M11.6432 7.71973C11.7522 7.70762 11.8248 7.59864 11.8067 7.4836C11.7945 7.36856 11.6916 7.27774 11.5887 7.2959C11.4797 7.30801 11.407 7.417 11.4252 7.53203C11.4434 7.64707 11.5402 7.73184 11.6432 7.71973ZM11.6371 7.64102C11.6977 7.63496 11.7401 7.56836 11.734 7.49571C11.7219 7.42305 11.6674 7.36856 11.6068 7.37461C11.5463 7.38067 11.5039 7.44727 11.51 7.51992C11.516 7.59258 11.5705 7.64707 11.6371 7.64102Z" fill="#3D9244"/>
<path fill-rule="evenodd" clip-rule="evenodd" d="M11.9943 7.67735L12.073 7.67129L12.0609 7.51387L12.2305 7.50176C12.3031 7.49571 12.3637 7.4291 12.3576 7.35645C12.3516 7.28379 12.291 7.22325 12.2123 7.2293L11.9641 7.24746L11.9943 7.67735ZM12.0609 7.43516L12.2244 7.42305C12.2547 7.42305 12.2789 7.39278 12.2728 7.3625C12.2728 7.33223 12.2426 7.30801 12.2123 7.31407L12.0488 7.32617L12.0609 7.43516Z" fill="#3D9244"/>
<path d="M12.3576 7.6531C12.3516 7.59255 12.3455 7.45329 12.2547 7.4654L12.1396 7.47146C12.2729 7.45935 12.285 7.59861 12.285 7.65915" fill="#3D9244"/>
<path fill-rule="evenodd" clip-rule="evenodd" d="M12.5393 7.64706L12.7451 7.641C12.848 7.641 12.9268 7.55624 12.9268 7.45331V7.39276C12.9268 7.28983 12.842 7.21112 12.7391 7.21112L12.5332 7.21717L12.5393 7.64706ZM12.618 7.56229H12.733C12.7996 7.56229 12.848 7.5078 12.848 7.4412V7.40487C12.848 7.33827 12.7936 7.28983 12.727 7.28983H12.6119L12.618 7.56229Z" fill="#3D9244"/>
<path d="M13.0902 7.641L13.4777 7.65311V7.5744L13.1629 7.56229L13.1689 7.45331L13.4172 7.45936V7.38671L13.1689 7.38065L13.175 7.28983L13.4717 7.30194V7.22323L13.1023 7.21112L13.0902 7.641Z" fill="#3D9244"/>
<path d="M13.6351 7.66523L13.7078 7.67129L13.732 7.37461L13.7926 7.67734L13.8592 7.6834L13.9742 7.39883L13.9439 7.68945L14.0226 7.69551L14.059 7.26562L13.95 7.25957L13.841 7.54414L13.7804 7.24141L13.6715 7.23535L13.6351 7.66523Z" fill="#3D9244"/>
<path d="M14.5252 7.76212L14.8461 7.81661L14.8582 7.74396L14.61 7.70157L14.6281 7.6047L14.8279 7.64103L14.8401 7.56837L14.6402 7.53204L14.6524 7.46544L14.8885 7.50782L14.9006 7.43517L14.5918 7.38068L14.5252 7.76212Z" fill="#3D9244"/>
<path fill-rule="evenodd" clip-rule="evenodd" d="M15.3426 7.92557L15.4213 7.94374L15.4637 7.79237L15.6332 7.83475C15.7059 7.85292 15.7785 7.81053 15.7967 7.73788C15.8149 7.66522 15.7725 7.59257 15.6998 7.5744L15.4637 7.51385L15.3426 7.92557ZM15.4818 7.71366L15.6453 7.75604C15.6756 7.7621 15.7059 7.74393 15.7119 7.71366C15.718 7.68339 15.6998 7.65311 15.6695 7.64706L15.5061 7.60468L15.4818 7.71366Z" fill="#3D9244"/>
<path fill-rule="evenodd" clip-rule="evenodd" d="M15.8693 8.06484L15.948 8.08906L15.9965 7.9377L16.1599 7.99219C16.2326 8.01641 16.3053 7.97402 16.3295 7.90137C16.3537 7.82871 16.3113 7.75605 16.2387 7.73184L16.0025 7.65918L15.8693 8.06484ZM16.0207 7.85898L16.1781 7.90742C16.2084 7.91953 16.2387 7.90137 16.2508 7.87109C16.2629 7.84082 16.2447 7.81055 16.2144 7.79844L16.057 7.75L16.0207 7.85898Z" fill="#3D9244"/>
<path d="M16.2205 8.17379C16.2387 8.11324 16.281 7.9861 16.1902 7.95582L16.0812 7.91949C16.2084 7.96188 16.1721 8.08903 16.1478 8.14957" fill="#3D9244"/>
<path fill-rule="evenodd" clip-rule="evenodd" d="M16.5717 8.30099C16.6746 8.33732 16.7896 8.27677 16.826 8.16779C16.8683 8.0588 16.8199 7.93771 16.717 7.89533C16.6141 7.859 16.499 7.91955 16.4627 8.02853C16.4264 8.14357 16.4748 8.26466 16.5717 8.30099ZM16.6019 8.22833C16.6625 8.25255 16.7291 8.21017 16.7533 8.14357C16.7775 8.07091 16.7533 7.99826 16.6928 7.97404C16.6322 7.94982 16.5656 7.9922 16.5414 8.0588C16.5172 8.13146 16.5414 8.20412 16.6019 8.22833Z" fill="#3D9244"/>
<path fill-rule="evenodd" clip-rule="evenodd" d="M17.0803 8.50682C17.1772 8.5492 17.2983 8.49471 17.3467 8.38572C17.3951 8.27674 17.3528 8.15565 17.2559 8.11326C17.159 8.07088 17.0379 8.12537 16.9895 8.23436C16.941 8.33729 16.9834 8.46443 17.0803 8.50682ZM17.1106 8.43416C17.1651 8.45838 17.2377 8.42205 17.268 8.35545C17.2983 8.28885 17.2741 8.21014 17.2196 8.18592C17.1651 8.1617 17.0924 8.19803 17.0621 8.26463C17.0319 8.33123 17.0561 8.40994 17.1106 8.43416Z" fill="#3D9244"/>
<path d="M17.1953 8.31915L17.3467 8.38575L17.3164 8.44025L17.1711 8.37364L17.1953 8.31915Z" fill="#3D9244"/>
<path d="M17.2861 8.36151L17.3467 8.38573L17.2558 8.58553L17.2014 8.56132L17.2861 8.36151Z" fill="#3D9244"/>
<path fill-rule="evenodd" clip-rule="evenodd" d="M17.4012 8.65214L17.4738 8.68846L17.5465 8.54315L17.6979 8.62186C17.7645 8.65819 17.8492 8.62792 17.8795 8.56132C17.9098 8.49471 17.8856 8.416 17.819 8.37968L17.601 8.27069L17.4012 8.65214ZM17.5828 8.4705L17.7342 8.54315C17.7645 8.55526 17.7947 8.54315 17.8068 8.51893C17.819 8.48866 17.8068 8.45839 17.7826 8.44628L17.6313 8.37362L17.5828 8.4705Z" fill="#3D9244"/>
<path d="M17.7281 8.81561C17.7584 8.76112 17.8129 8.64003 17.7342 8.59764L17.6312 8.54315C17.7523 8.6037 17.6918 8.72479 17.6615 8.77928" fill="#3D9244"/>
<path d="M17.8916 8.90041L18.2246 9.08811L18.267 9.02151L17.9945 8.86409L18.049 8.76721L18.2609 8.88831L18.2973 8.82776L18.0854 8.70667L18.1277 8.62795L18.382 8.77327L18.4244 8.70667L18.1035 8.52502L17.8916 8.90041Z" fill="#3D9244"/>
<path d="M18.5152 9.10625C18.491 9.14257 18.5152 9.18496 18.5697 9.21523C18.6242 9.2455 18.6544 9.2455 18.6726 9.22128C18.721 9.14863 18.4486 9.03964 18.5333 8.9125C18.606 8.80351 18.7271 8.88828 18.7755 8.91855C18.824 8.94882 18.8966 9.02754 18.8361 9.1123L18.7574 9.06386C18.7816 9.02753 18.7574 8.98515 18.715 8.96093C18.6787 8.93671 18.6423 8.9246 18.6181 8.96093C18.5757 9.02148 18.8421 9.13652 18.7634 9.26367C18.7029 9.36054 18.5999 9.31816 18.5273 9.26972C18.4667 9.23339 18.3759 9.14257 18.4365 9.05175L18.5152 9.10625Z" fill="#3D9244"/>
<path d="M18.9815 9.41506C18.9572 9.45139 18.9754 9.49377 19.0299 9.5301C19.0783 9.56643 19.1147 9.56642 19.1328 9.54221C19.1813 9.46955 18.9149 9.34846 19.0057 9.22736C19.0844 9.11838 19.2055 9.21525 19.2479 9.24553C19.2903 9.2758 19.3629 9.36057 19.3024 9.44533L19.2237 9.39084C19.2479 9.35451 19.2237 9.31213 19.1873 9.28791C19.151 9.25764 19.1147 9.24553 19.0904 9.28185C19.0481 9.33635 19.3084 9.46955 19.2176 9.59064C19.151 9.68146 19.0481 9.63303 18.9815 9.59064C18.927 9.54826 18.8422 9.45744 18.9028 9.36662L18.9815 9.41506Z" fill="#3D9244"/>
<path fill-rule="evenodd" clip-rule="evenodd" d="M19.4174 9.91152C19.5022 9.97812 19.6293 9.95391 19.702 9.86309C19.7746 9.77226 19.7686 9.63906 19.6838 9.57246C19.599 9.50586 19.4719 9.52402 19.3992 9.6209C19.3266 9.71172 19.3326 9.84492 19.4174 9.91152ZM19.4658 9.84492C19.5143 9.88125 19.593 9.86914 19.6414 9.80859C19.6899 9.74805 19.6838 9.66933 19.6354 9.63301C19.5869 9.59668 19.5082 9.60879 19.4598 9.66933C19.4174 9.72988 19.4174 9.80859 19.4658 9.84492Z" fill="#3D9244"/>
<path d="M11.8127 8.03455L11.7521 8.21619L11.843 8.24646L11.8127 8.03455Z" fill="white"/>
<path d="M11.8127 8.03455L11.8672 8.21619L11.7764 8.24646L11.8127 8.03455Z" fill="white"/>
<path d="M11.9943 8.16779H11.8006V8.26466L11.9943 8.16779Z" fill="white"/>
<path d="M11.9943 8.16779L11.8369 8.28282L11.7824 8.20411L11.9943 8.16779Z" fill="white"/>
<path d="M11.625 8.16779L11.7824 8.28282L11.8369 8.20411L11.625 8.16779Z" fill="white"/>
<path d="M11.625 8.16779H11.8187V8.26466L11.625 8.16779Z" fill="white"/>
<path d="M11.9217 8.38575L11.8611 8.19806L11.7703 8.22833L11.9217 8.38575Z" fill="white"/>
<path d="M11.9217 8.38577L11.7643 8.27073L11.8248 8.19202L11.9217 8.38577Z" fill="white"/>
<path d="M11.6976 8.38577L11.8551 8.27073L11.7945 8.19202L11.6976 8.38577Z" fill="white"/>
<path d="M11.6976 8.38575L11.7582 8.19806L11.849 8.22833L11.6976 8.38575Z" fill="white"/>
<path d="M12.2123 9.93573L12.1517 10.1174L12.2426 10.1476L12.2123 9.93573Z" fill="white"/>
<path d="M12.2123 9.93573L12.2668 10.1174L12.176 10.1476L12.2123 9.93573Z" fill="white"/>
<path d="M12.3939 10.069H12.2002V10.1658L12.3939 10.069Z" fill="white"/>
<path d="M12.3939 10.069L12.2365 10.184L12.182 10.1053L12.3939 10.069Z" fill="white"/>
<path d="M12.0246 10.069L12.182 10.184L12.2365 10.1053L12.0246 10.069Z" fill="white"/>
<path d="M12.0246 10.069H12.2183V10.1658L12.0246 10.069Z" fill="white"/>
<path d="M12.3213 10.2869L12.2607 10.0992L12.1699 10.1295L12.3213 10.2869Z" fill="white"/>
<path d="M12.3213 10.2869L12.1639 10.1719L12.2244 10.0931L12.3213 10.2869Z" fill="white"/>
<path d="M12.0973 10.2869L12.2547 10.1719L12.1942 10.0931L12.0973 10.2869Z" fill="white"/>
<path d="M12.0973 10.2869L12.1578 10.0992L12.2487 10.1295L12.0973 10.2869Z" fill="white"/>
<path d="M11.6553 10.402L11.619 10.5291L11.6795 10.5473L11.6553 10.402Z" fill="white"/>
<path d="M11.6552 10.402L11.6976 10.5291L11.6371 10.5473L11.6552 10.402Z" fill="white"/>
<path d="M11.7764 10.4928H11.6492V10.5594L11.7764 10.4928Z" fill="white"/>
<path d="M11.7763 10.4928L11.6734 10.5715L11.6371 10.517L11.7763 10.4928Z" fill="white"/>
<path d="M11.5342 10.4928L11.6371 10.5715L11.6734 10.517L11.5342 10.4928Z" fill="white"/>
<path d="M11.5342 10.4928H11.6613V10.5594L11.5342 10.4928Z" fill="white"/>
<path d="M11.734 10.6381L11.6916 10.517L11.631 10.5351L11.734 10.6381Z" fill="white"/>
<path d="M11.734 10.6381L11.625 10.5594L11.6674 10.5109L11.734 10.6381Z" fill="white"/>
<path d="M11.5826 10.6381L11.6856 10.5594L11.6492 10.5109L11.5826 10.6381Z" fill="white"/>
<path d="M11.5826 10.6381L11.619 10.517L11.6795 10.5351L11.5826 10.6381Z" fill="white"/>
<path d="M12.6543 9.76013L12.624 9.8449L12.6664 9.86306L12.6543 9.76013Z" fill="white"/>
<path d="M12.6543 9.76013L12.6785 9.8449L12.6361 9.86306L12.6543 9.76013Z" fill="white"/>
<path d="M12.7391 9.82068H12.6483V9.86912L12.7391 9.82068Z" fill="white"/>
<path d="M12.739 9.82068L12.6664 9.87517L12.6361 9.83884L12.739 9.82068Z" fill="white"/>
<path d="M12.5635 9.82068L12.6361 9.87517L12.6664 9.83884L12.5635 9.82068Z" fill="white"/>
<path d="M12.5635 9.82068H12.6543V9.86912L12.5635 9.82068Z" fill="white"/>
<path d="M12.7088 9.92363L12.6785 9.83887L12.6361 9.85098L12.7088 9.92363Z" fill="white"/>
<path d="M12.7088 9.92365L12.6301 9.86915L12.6603 9.83282L12.7088 9.92365Z" fill="white"/>
<path d="M12.5998 9.92365L12.6724 9.86915L12.6482 9.83282L12.5998 9.92365Z" fill="white"/>
<path d="M12.5998 9.92363L12.624 9.83887L12.6724 9.85098L12.5998 9.92363Z" fill="white"/>
<path d="M13.1508 10.4141L13.1024 10.5715L13.175 10.5957L13.1508 10.4141Z" fill="white"/>
<path d="M13.1508 10.4141L13.1992 10.5715L13.1266 10.5957L13.1508 10.4141Z" fill="white"/>
<path d="M13.3021 10.5291H13.1447V10.6078L13.3021 10.5291Z" fill="white"/>
<path d="M13.3022 10.5291L13.175 10.6199L13.1266 10.5594L13.3022 10.5291Z" fill="white"/>
<path d="M12.9994 10.5291L13.1265 10.6199L13.175 10.5594L12.9994 10.5291Z" fill="white"/>
<path d="M12.9994 10.5291H13.1568V10.6078L12.9994 10.5291Z" fill="white"/>
<path d="M13.2476 10.7047L13.1931 10.5533L13.1205 10.5776L13.2476 10.7047Z" fill="white"/>
<path d="M13.2476 10.7047L13.1144 10.6138L13.1629 10.5472L13.2476 10.7047Z" fill="white"/>
<path d="M13.0539 10.7047L13.1871 10.6138L13.1387 10.5472L13.0539 10.7047Z" fill="white"/>
<path d="M13.0539 10.7047L13.1084 10.5533L13.181 10.5776L13.0539 10.7047Z" fill="white"/>
<path d="M13.0176 10.8621L12.9631 11.0195L13.0418 11.0438L13.0176 10.8621Z" fill="white"/>
<path d="M13.0176 10.8621L13.066 11.0195L12.9873 11.0438L13.0176 10.8621Z" fill="white"/>
<path d="M13.169 10.9772H13.0055V11.0559L13.169 10.9772Z" fill="white"/>
<path d="M13.1689 10.9772L13.0357 11.074L12.9933 11.0074L13.1689 10.9772Z" fill="white"/>
<path d="M12.8602 10.9772L12.9934 11.074L13.0418 11.0074L12.8602 10.9772Z" fill="white"/>
<path d="M12.8602 10.9772H13.0236V11.0559L12.8602 10.9772Z" fill="white"/>
<path d="M13.1084 11.1588L13.06 11.0013L12.9813 11.0256L13.1084 11.1588Z" fill="white"/>
<path d="M13.1084 11.1588L12.9813 11.0619L13.0297 10.9953L13.1084 11.1588Z" fill="white"/>
<path d="M12.9207 11.1588L13.0539 11.0619L13.0055 10.9953L12.9207 11.1588Z" fill="white"/>
<path d="M12.9207 11.1588L12.9692 11.0013L13.0479 11.0256L12.9207 11.1588Z" fill="white"/>
<path d="M16.9047 7.44122L16.8441 7.62892L16.9349 7.65919L16.9047 7.44122Z" fill="white"/>
<path d="M16.9047 7.44122L16.9652 7.62892L16.8683 7.65919L16.9047 7.44122Z" fill="white"/>
<path d="M17.0863 7.5744H16.8926V7.67128L17.0863 7.5744Z" fill="white"/>
<path d="M17.0863 7.5744L16.9289 7.68944L16.8744 7.61073L17.0863 7.5744Z" fill="white"/>
<path d="M16.717 7.5744L16.8744 7.68944L16.9349 7.61073L16.717 7.5744Z" fill="white"/>
<path d="M16.717 7.5744H16.9107V7.67128L16.717 7.5744Z" fill="white"/>
<path d="M17.0137 7.79236L16.9592 7.61072L16.8623 7.64099L17.0137 7.79236Z" fill="white"/>
<path d="M17.0137 7.79238L16.8623 7.67734L16.9168 7.59863L17.0137 7.79238Z" fill="white"/>
<path d="M16.7897 7.79238L16.9471 7.67734L16.8865 7.59863L16.7897 7.79238Z" fill="white"/>
<path d="M16.7897 7.79236L16.8502 7.61072L16.941 7.64099L16.7897 7.79236Z" fill="white"/>
<path d="M18.6666 10.4323L18.6061 10.6199L18.703 10.6442L18.6666 10.4323Z" fill="white"/>
<path d="M18.6666 10.4323L18.7272 10.6199L18.6364 10.6442L18.6666 10.4323Z" fill="white"/>
<path d="M18.8543 10.5654H18.6605V10.6623L18.8543 10.5654Z" fill="white"/>
<path d="M18.8543 10.5654L18.6969 10.6805L18.6364 10.6018L18.8543 10.5654Z" fill="white"/>
<path d="M18.485 10.5654L18.6424 10.6805L18.6969 10.6018L18.485 10.5654Z" fill="white"/>
<path d="M18.485 10.5654H18.6787V10.6623L18.485 10.5654Z" fill="white"/>
<path d="M18.7816 10.7834L18.7211 10.6017L18.6302 10.626L18.7816 10.7834Z" fill="white"/>
<path d="M18.7816 10.7834L18.6242 10.6684L18.6848 10.5897L18.7816 10.7834Z" fill="white"/>
<path d="M18.5516 10.7834L18.709 10.6684L18.6545 10.5897L18.5516 10.7834Z" fill="white"/>
<path d="M18.5516 10.7834L18.6121 10.6017L18.7029 10.626L18.5516 10.7834Z" fill="white"/>
<path d="M19.2963 10.5412L19.2539 10.6623L19.3145 10.6805L19.2963 10.5412Z" fill="white"/>
<path d="M19.2963 10.5412L19.3326 10.6623L19.2721 10.6805L19.2963 10.5412Z" fill="white"/>
<path d="M19.4174 10.632H19.2902V10.6926L19.4174 10.632Z" fill="white"/>
<path d="M19.4174 10.632L19.3145 10.7047L19.2781 10.6562L19.4174 10.632Z" fill="white"/>
<path d="M19.1691 10.632L19.2781 10.7047L19.3144 10.6562L19.1691 10.632Z" fill="white"/>
<path d="M19.1691 10.632H19.3023V10.6926L19.1691 10.632Z" fill="white"/>
<path d="M19.369 10.7713L19.3326 10.6502L19.2721 10.6684L19.369 10.7713Z" fill="white"/>
<path d="M19.3689 10.7713L19.266 10.6987L19.3023 10.6442L19.3689 10.7713Z" fill="white"/>
<path d="M19.2176 10.7713L19.3205 10.6987L19.2842 10.6442L19.2176 10.7713Z" fill="white"/>
<path d="M19.2176 10.7713L19.26 10.6502L19.3205 10.6684L19.2176 10.7713Z" fill="white"/>
<path d="M18.8543 10.8621L18.7998 11.0195L18.8785 11.0438L18.8543 10.8621Z" fill="white"/>
<path d="M18.8543 10.8621L18.9027 11.0195L18.824 11.0438L18.8543 10.8621Z" fill="white"/>
<path d="M19.0056 10.9772H18.8422V11.0559L19.0056 10.9772Z" fill="white"/>
<path d="M19.0057 10.9772L18.8725 11.074L18.8301 11.0074L19.0057 10.9772Z" fill="white"/>
<path d="M18.6969 10.9772L18.8301 11.074L18.8785 11.0074L18.6969 10.9772Z" fill="white"/>
<path d="M18.6969 10.9772H18.8604V11.0559L18.6969 10.9772Z" fill="white"/>
<path d="M18.9451 11.1588L18.8967 11.0013L18.818 11.0256L18.9451 11.1588Z" fill="white"/>
<path d="M18.9451 11.1588L18.818 11.0619L18.8664 10.9953L18.9451 11.1588Z" fill="white"/>
<path d="M18.7574 11.1588L18.8907 11.0619L18.8422 10.9953L18.7574 11.1588Z" fill="white"/>
<path d="M18.7574 11.1588L18.8059 11.0013L18.8846 11.0256L18.7574 11.1588Z" fill="white"/>
<path d="M17.7644 11.8127L17.716 11.9641L17.7887 11.9883L17.7644 11.8127Z" fill="white"/>
<path d="M17.7645 11.8127L17.8129 11.9641L17.7342 11.9883L17.7645 11.8127Z" fill="white"/>
<path d="M17.9158 11.9217H17.7584V12.0065L17.9158 11.9217Z" fill="white"/>
<path d="M17.9158 11.9217L17.7887 12.0186L17.7402 11.952L17.9158 11.9217Z" fill="white"/>
<path d="M17.6131 11.9217L17.7402 12.0186L17.7887 11.952L17.6131 11.9217Z" fill="white"/>
<path d="M17.6131 11.9217H17.7705V12.0065L17.6131 11.9217Z" fill="white"/>
<path d="M17.8613 12.1033L17.8068 11.952L17.7342 11.9762L17.8613 12.1033Z" fill="white"/>
<path d="M17.8614 12.1033L17.7281 12.0065L17.7766 11.9459L17.8614 12.1033Z" fill="white"/>
<path d="M17.6676 12.1033L17.8008 12.0065L17.7524 11.9459L17.6676 12.1033Z" fill="white"/>
<path d="M17.6676 12.1033L17.716 11.952L17.7948 11.9762L17.6676 12.1033Z" fill="white"/>
<path d="M17.7584 12.2971L17.716 12.4242L17.7766 12.4424L17.7584 12.2971Z" fill="white"/>
<path d="M17.7584 12.2971L17.7947 12.4242L17.7342 12.4424L17.7584 12.2971Z" fill="white"/>
<path d="M17.8795 12.3879H17.7523V12.4545L17.8795 12.3879Z" fill="white"/>
<path d="M17.8795 12.3879L17.7766 12.4666L17.7402 12.4121L17.8795 12.3879Z" fill="white"/>
<path d="M17.6373 12.3879L17.7403 12.4666L17.7766 12.4121L17.6373 12.3879Z" fill="white"/>
<path d="M17.6373 12.3879H17.7645V12.4545L17.6373 12.3879Z" fill="white"/>
<path d="M17.8311 12.5332L17.7947 12.4121L17.7342 12.4303L17.8311 12.5332Z" fill="white"/>
<path d="M17.8311 12.5332L17.7281 12.4545L17.7645 12.4061L17.8311 12.5332Z" fill="white"/>
<path d="M17.6797 12.5332L17.7887 12.4545L17.7463 12.4061L17.6797 12.5332Z" fill="white"/>
<path d="M17.6797 12.5332L17.7221 12.4121L17.7826 12.4303L17.6797 12.5332Z" fill="white"/>
<path d="M18.2125 11.4857L18.1701 11.6129L18.2367 11.631L18.2125 11.4857Z" fill="white"/>
<path d="M18.2125 11.4857L18.2549 11.6129L18.1883 11.631L18.2125 11.4857Z" fill="white"/>
<path d="M18.3336 11.5765H18.2064V11.6431L18.3336 11.5765Z" fill="white"/>
<path d="M18.3336 11.5765L18.2307 11.6553L18.1943 11.6008L18.3336 11.5765Z" fill="white"/>
<path d="M18.0914 11.5765L18.1944 11.6553L18.2307 11.6008L18.0914 11.5765Z" fill="white"/>
<path d="M18.0914 11.5765H18.2186V11.6431L18.0914 11.5765Z" fill="white"/>
<path d="M18.2912 11.7219L18.2488 11.6008L18.1883 11.6189L18.2912 11.7219Z" fill="white"/>
<path d="M18.2912 11.7219L18.1823 11.6432L18.2246 11.5947L18.2912 11.7219Z" fill="white"/>
<path d="M18.1398 11.7219L18.2428 11.6432L18.2004 11.5947L18.1398 11.7219Z" fill="white"/>
<path d="M18.1398 11.7219L18.1762 11.6008L18.2367 11.6189L18.1398 11.7219Z" fill="white"/>
<path d="M18.5758 11.2254L18.5273 11.3828L18.6 11.407L18.5758 11.2254Z" fill="white"/>
<path d="M18.5758 11.2254L18.6242 11.3828L18.5516 11.407L18.5758 11.2254Z" fill="white"/>
<path d="M18.7271 11.3405H18.5697V11.4192L18.7271 11.3405Z" fill="white"/>
<path d="M18.7272 11.3405L18.6 11.4313L18.5516 11.3707L18.7272 11.3405Z" fill="white"/>
<path d="M18.4244 11.3405L18.5516 11.4313L18.6 11.3707L18.4244 11.3405Z" fill="white"/>
<path d="M18.4244 11.3405H18.5819V11.4192L18.4244 11.3405Z" fill="white"/>
<path d="M18.6727 11.516L18.6182 11.3646L18.5455 11.3888L18.6727 11.516Z" fill="white"/>
<path d="M18.6726 11.516L18.5394 11.4252L18.5879 11.3586L18.6726 11.516Z" fill="white"/>
<path d="M18.4789 11.516L18.6121 11.4252L18.5636 11.3586L18.4789 11.516Z" fill="white"/>
<path d="M18.4789 11.516L18.5334 11.3646L18.606 11.3888L18.4789 11.516Z" fill="white"/>
<path d="M17.7463 11.401L17.7039 11.5221L17.7645 11.5463L17.7463 11.401Z" fill="white"/>
<path d="M17.7463 11.401L17.7826 11.5221L17.722 11.5463L17.7463 11.401Z" fill="white"/>
<path d="M17.8674 11.4918H17.7402V11.5524L17.8674 11.4918Z" fill="white"/>
<path d="M17.8674 11.4918L17.7645 11.5645L17.7281 11.516L17.8674 11.4918Z" fill="white"/>
<path d="M17.6252 11.4918L17.7281 11.5645L17.7644 11.516L17.6252 11.4918Z" fill="white"/>
<path d="M17.6252 11.4918H17.7523V11.5524L17.6252 11.4918Z" fill="white"/>
<path d="M17.8189 11.6371L17.7826 11.5099L17.722 11.5281L17.8189 11.6371Z" fill="white"/>
<path d="M17.8189 11.6371L17.716 11.5584L17.7523 11.5099L17.8189 11.6371Z" fill="white"/>
<path d="M17.6676 11.6371L17.7766 11.5584L17.7342 11.5099L17.6676 11.6371Z" fill="white"/>
<path d="M17.6676 11.6371L17.71 11.5099L17.7705 11.5281L17.6676 11.6371Z" fill="white"/>
<path d="M13.7804 9.06384L13.726 9.21521L13.8047 9.23943L13.7804 9.06384Z" fill="white"/>
<path d="M13.7805 9.06384L13.8289 9.21521L13.7502 9.23943L13.7805 9.06384Z" fill="white"/>
<path d="M13.9318 9.17285H13.7684V9.25156L13.9318 9.17285Z" fill="white"/>
<path d="M13.9318 9.17285L13.7986 9.26973L13.7562 9.20312L13.9318 9.17285Z" fill="white"/>
<path d="M13.623 9.17285L13.7562 9.26973L13.8047 9.20312L13.623 9.17285Z" fill="white"/>
<path d="M13.623 9.17285H13.7865V9.25156L13.623 9.17285Z" fill="white"/>
<path d="M13.8713 9.35449L13.8229 9.20312L13.7441 9.22734L13.8713 9.35449Z" fill="white"/>
<path d="M13.8713 9.35452L13.7441 9.25764L13.7926 9.19104L13.8713 9.35452Z" fill="white"/>
<path d="M13.6836 9.35452L13.8107 9.25764L13.7684 9.19104L13.6836 9.35452Z" fill="white"/>
<path d="M13.6836 9.35449L13.732 9.20312L13.8107 9.22734L13.6836 9.35449Z" fill="white"/>
<path d="M16.7291 8.68243L16.6927 8.80353L16.7533 8.82775L16.7291 8.68243Z" fill="white"/>
<path d="M16.7291 8.68243L16.7715 8.80353L16.7109 8.82775L16.7291 8.68243Z" fill="white"/>
<path d="M16.8502 8.77325H16.723V8.8338L16.8502 8.77325Z" fill="white"/>
<path d="M16.8502 8.77325L16.7473 8.84591L16.7109 8.79747L16.8502 8.77325Z" fill="white"/>
<path d="M16.608 8.77325L16.711 8.84591L16.7473 8.79747L16.608 8.77325Z" fill="white"/>
<path d="M16.608 8.77325H16.7352V8.8338L16.608 8.77325Z" fill="white"/>
<path d="M16.8078 8.91853L16.7654 8.79138L16.7049 8.8156L16.8078 8.91853Z" fill="white"/>
<path d="M16.8078 8.91854L16.6989 8.83983L16.7412 8.78534L16.8078 8.91854Z" fill="white"/>
<path d="M16.6564 8.91854L16.7594 8.83983L16.723 8.78534L16.6564 8.91854Z" fill="white"/>
<path d="M16.6564 8.91853L16.6928 8.79138L16.7533 8.8156L16.6564 8.91853Z" fill="white"/>
<path d="M15.5 10.8742L15.4395 11.0619L15.5303 11.0922L15.5 10.8742Z" fill="white"/>
<path d="M15.5 10.8742L15.5605 11.0619L15.4697 11.0922L15.5 10.8742Z" fill="white"/>
<path d="M15.6817 11.0074H15.4879V11.1043L15.6817 11.0074Z" fill="white"/>
<path d="M15.6816 11.0074L15.5303 11.1225L15.4697 11.0438L15.6816 11.0074Z" fill="white"/>
<path d="M15.3184 11.0074L15.4697 11.1225L15.5303 11.0438L15.3184 11.0074Z" fill="white"/>
<path d="M15.3184 11.0074H15.5121V11.1043L15.3184 11.0074Z" fill="white"/>
<path d="M15.6151 11.2254L15.5545 11.0438L15.4637 11.074L15.6151 11.2254Z" fill="white"/>
<path d="M15.6151 11.2254L15.4576 11.1103L15.5121 11.0316L15.6151 11.2254Z" fill="white"/>
<path d="M15.3849 11.2254L15.5424 11.1103L15.4879 11.0316L15.3849 11.2254Z" fill="white"/>
<path d="M15.3849 11.2254L15.4455 11.0438L15.5363 11.074L15.3849 11.2254Z" fill="white"/>
<path d="M16.0207 10.0084L15.9723 10.1598L16.051 10.1901L16.0207 10.0084Z" fill="white"/>
<path d="M16.0207 10.0084L16.0752 10.1598L15.9965 10.1901L16.0207 10.0084Z" fill="white"/>
<path d="M16.1781 10.1234H16.0146V10.2021L16.1781 10.1234Z" fill="white"/>
<path d="M16.1781 10.1234L16.0449 10.2142L15.9965 10.1476L16.1781 10.1234Z" fill="white"/>
<path d="M15.8693 10.1234L16.0025 10.2142L16.0449 10.1476L15.8693 10.1234Z" fill="white"/>
<path d="M15.8693 10.1234H16.0328V10.2021L15.8693 10.1234Z" fill="white"/>
<path d="M16.1176 10.299L16.0691 10.1476L15.9904 10.1719L16.1176 10.299Z" fill="white"/>
<path d="M16.1176 10.299L15.9844 10.2082L16.0328 10.1416L16.1176 10.299Z" fill="white"/>
<path d="M15.9299 10.299L16.057 10.2082L16.0086 10.1416L15.9299 10.299Z" fill="white"/>
<path d="M15.9299 10.299L15.9783 10.1476L16.057 10.1719L15.9299 10.299Z" fill="white"/>
<path d="M15.5 9.60272L15.4515 9.76014L15.5242 9.78436L15.5 9.60272Z" fill="white"/>
<path d="M15.5 9.60272L15.5484 9.76014L15.4758 9.78436L15.5 9.60272Z" fill="white"/>
<path d="M15.6514 9.71777H15.494V9.79648L15.6514 9.71777Z" fill="white"/>
<path d="M15.6514 9.71777L15.5242 9.80859L15.4758 9.74199L15.6514 9.71777Z" fill="white"/>
<path d="M15.3486 9.71777L15.4758 9.80859L15.5242 9.74199L15.3486 9.71777Z" fill="white"/>
<path d="M15.3486 9.71777H15.5061V9.79648L15.3486 9.71777Z" fill="white"/>
<path d="M15.5969 9.89337L15.5424 9.742L15.4697 9.76622L15.5969 9.89337Z" fill="white"/>
<path d="M15.5969 9.89338L15.4637 9.80256L15.5121 9.73596L15.5969 9.89338Z" fill="white"/>
<path d="M15.4031 9.89338L15.5363 9.80256L15.4879 9.73596L15.4031 9.89338Z" fill="white"/>
<path d="M15.4031 9.89337L15.4576 9.742L15.5303 9.76622L15.4031 9.89337Z" fill="white"/>
<path d="M15.0459 10.0447L15.0035 10.1658L15.0641 10.184L15.0459 10.0447Z" fill="white"/>
<path d="M15.0459 10.0447L15.0822 10.1658L15.0217 10.184L15.0459 10.0447Z" fill="white"/>
<path d="M15.167 10.1295H15.0399V10.1961L15.167 10.1295Z" fill="white"/>
<path d="M15.167 10.1295L15.064 10.2082L15.0277 10.1537L15.167 10.1295Z" fill="white"/>
<path d="M14.9248 10.1295L15.0277 10.2082L15.0641 10.1537L14.9248 10.1295Z" fill="white"/>
<path d="M14.9248 10.1295H15.052V10.1961L14.9248 10.1295Z" fill="white"/>
<path d="M15.1185 10.2748L15.0822 10.1537L15.0217 10.1719L15.1185 10.2748Z" fill="white"/>
<path d="M15.1186 10.2748L15.0156 10.2021L15.052 10.1476L15.1186 10.2748Z" fill="white"/>
<path d="M14.9672 10.2748L15.0761 10.2021L15.0338 10.1476L14.9672 10.2748Z" fill="white"/>
<path d="M14.9672 10.2748L15.0095 10.1537L15.0701 10.1719L14.9672 10.2748Z" fill="white"/>
<path d="M15.2699 10.3898L15.2457 10.4807L15.2881 10.4928L15.2699 10.3898Z" fill="white"/>
<path d="M15.2699 10.3898L15.3002 10.4807L15.2578 10.4928L15.2699 10.3898Z" fill="white"/>
<path d="M15.3607 10.4564H15.2699V10.5049L15.3607 10.4564Z" fill="white"/>
<path d="M15.3607 10.4564L15.2881 10.5109L15.2578 10.4746L15.3607 10.4564Z" fill="white"/>
<path d="M15.1852 10.4564L15.2578 10.5109L15.2881 10.4746L15.1852 10.4564Z" fill="white"/>
<path d="M15.1852 10.4564H15.276V10.5049L15.1852 10.4564Z" fill="white"/>
<path d="M15.3244 10.5594L15.3002 10.4686L15.2518 10.4867L15.3244 10.5594Z" fill="white"/>
<path d="M15.3244 10.5594L15.2518 10.5049L15.282 10.4686L15.3244 10.5594Z" fill="white"/>
<path d="M15.2155 10.5594L15.2942 10.5049L15.2639 10.4686L15.2155 10.5594Z" fill="white"/>
<path d="M15.2155 10.5594L15.2457 10.4686L15.2881 10.4867L15.2155 10.5594Z" fill="white"/>
<path d="M16.8562 11.9217L16.8018 12.0791L16.8805 12.1033L16.8562 11.9217Z" fill="white"/>
<path d="M16.8563 11.9217L16.9047 12.0791L16.826 12.1033L16.8563 11.9217Z" fill="white"/>
<path d="M17.0076 12.0306H16.8441V12.1154L17.0076 12.0306Z" fill="white"/>
<path d="M17.0076 12.0306L16.8744 12.1275L16.826 12.0609L17.0076 12.0306Z" fill="white"/>
<path d="M16.6989 12.0306L16.8321 12.1275L16.8805 12.0609L16.6989 12.0306Z" fill="white"/>
<path d="M16.6989 12.0306H16.8623V12.1154L16.6989 12.0306Z" fill="white"/>
<path d="M16.9471 12.2123L16.8987 12.0609L16.8199 12.0851L16.9471 12.2123Z" fill="white"/>
<path d="M16.9471 12.2123L16.8199 12.1215L16.8623 12.0549L16.9471 12.2123Z" fill="white"/>
<path d="M16.7594 12.2123L16.8865 12.1215L16.8442 12.0549L16.7594 12.2123Z" fill="white"/>
<path d="M16.7594 12.2123L16.8078 12.0609L16.8865 12.0851L16.7594 12.2123Z" fill="white"/>
<path d="M17.2377 11.5524L17.2014 11.6795L17.2619 11.6977L17.2377 11.5524Z" fill="white"/>
<path d="M17.2377 11.5524L17.2801 11.6795L17.2195 11.6977L17.2377 11.5524Z" fill="white"/>
<path d="M17.3648 11.6432H17.2316V11.7098L17.3648 11.6432Z" fill="white"/>
<path d="M17.3649 11.6432L17.2619 11.7219L17.2195 11.6674L17.3649 11.6432Z" fill="white"/>
<path d="M17.1166 11.6432L17.2195 11.7219L17.2619 11.6674L17.1166 11.6432Z" fill="white"/>
<path d="M17.1166 11.6432H17.2498V11.7098L17.1166 11.6432Z" fill="white"/>
<path d="M17.3164 11.7885L17.274 11.6674L17.2135 11.6855L17.3164 11.7885Z" fill="white"/>
<path d="M17.3164 11.7885L17.2135 11.7158L17.2498 11.6613L17.3164 11.7885Z" fill="white"/>
<path d="M17.165 11.7885L17.268 11.7158L17.2316 11.6613L17.165 11.7885Z" fill="white"/>
<path d="M17.165 11.7885L17.2074 11.6674L17.268 11.6855L17.165 11.7885Z" fill="white"/>
<path d="M16.499 11.4434L16.4567 11.5645L16.5172 11.5887L16.499 11.4434Z" fill="white"/>
<path d="M16.499 11.4434L16.5353 11.5645L16.4748 11.5887L16.499 11.4434Z" fill="white"/>
<path d="M16.6201 11.5342H16.493V11.6008L16.6201 11.5342Z" fill="white"/>
<path d="M16.6201 11.5342L16.5172 11.6068L16.4748 11.5584L16.6201 11.5342Z" fill="white"/>
<path d="M16.3719 11.5342L16.4809 11.6068L16.5172 11.5584L16.3719 11.5342Z" fill="white"/>
<path d="M16.3719 11.5342H16.5051V11.6008L16.3719 11.5342Z" fill="white"/>
<path d="M16.5717 11.6795L16.5354 11.5524L16.4688 11.5766L16.5717 11.6795Z" fill="white"/>
<path d="M16.5717 11.6795L16.4688 11.6008L16.5051 11.5524L16.5717 11.6795Z" fill="white"/>
<path d="M16.4203 11.6795L16.5232 11.6008L16.4869 11.5524L16.4203 11.6795Z" fill="white"/>
<path d="M16.4203 11.6795L16.4627 11.5524L16.5232 11.5766L16.4203 11.6795Z" fill="white"/>
<path d="M13.6836 11.2435L13.6291 11.4252L13.7199 11.4615L13.6836 11.2435Z" fill="white"/>
<path d="M13.6836 11.2435L13.7441 11.4252L13.6533 11.4615L13.6836 11.2435Z" fill="white"/>
<path d="M13.8713 11.3768H13.6776V11.4736L13.8713 11.3768Z" fill="white"/>
<path d="M13.8713 11.3768L13.7139 11.4918L13.6594 11.4131L13.8713 11.3768Z" fill="white"/>
<path d="M13.502 11.3768L13.6594 11.4918L13.7139 11.4131L13.502 11.3768Z" fill="white"/>
<path d="M13.502 11.3768H13.6957V11.4736L13.502 11.3768Z" fill="white"/>
<path d="M13.7986 11.5947L13.7381 11.4131L13.6473 11.4434L13.7986 11.5947Z" fill="white"/>
<path d="M13.7987 11.5948L13.6412 11.4797L13.7018 11.401L13.7987 11.5948Z" fill="white"/>
<path d="M13.5685 11.5948L13.726 11.4797L13.6715 11.401L13.5685 11.5948Z" fill="white"/>
<path d="M13.5685 11.5947L13.6291 11.4131L13.726 11.4434L13.5685 11.5947Z" fill="white"/>
<path d="M15.5 12.509L15.4818 12.5756L15.5121 12.5816L15.5 12.509Z" fill="white"/>
<path d="M15.5 12.509L15.5182 12.5756L15.4879 12.5816L15.5 12.509Z" fill="white"/>
<path d="M15.5606 12.5574H15.494V12.5877L15.5606 12.5574Z" fill="white"/>
<path d="M15.5606 12.5574L15.5121 12.5938L15.4879 12.5695L15.5606 12.5574Z" fill="white"/>
<path d="M15.4395 12.5574L15.4939 12.5938L15.5121 12.5695L15.4395 12.5574Z" fill="white"/>
<path d="M15.4395 12.5574H15.5061V12.5877L15.4395 12.5574Z" fill="white"/>
<path d="M15.5364 12.6301L15.5182 12.5695L15.4879 12.5756L15.5364 12.6301Z" fill="white"/>
<path d="M15.5364 12.6301L15.4879 12.5877L15.5061 12.5635L15.5364 12.6301Z" fill="white"/>
<path d="M15.4637 12.6301L15.5121 12.5877L15.494 12.5635L15.4637 12.6301Z" fill="white"/>
<path d="M15.4637 12.6301L15.4818 12.5695L15.5121 12.5756L15.4637 12.6301Z" fill="white"/>
</svg>
