<svg width="512" height="300" viewBox="0 0 512 300" fill="none" xmlns="http://www.w3.org/2000/svg">
<path d="M512 0.700195H0V299.4H512V0.700195Z" fill="#3D9244"/>
<path d="M78.9004 150L256 263.1L433.1 150L256 36.9004L78.9004 150Z" fill="#EDC223"/>
<path d="M330.7 150C330.7 191.2 297.2 224.7 256 224.7C214.8 224.7 181.3 191.3 181.3 150C181.3 108.8 214.7 75.2998 256 75.2998C297.2 75.2998 330.7 108.8 330.7 150Z" fill="#31276C"/>
<path d="M213.3 118C204.6 118 196 118.6 187.7 119.8C186.1 123.5 184.8 127.3 183.7 131.2C193.3 129.5 203.2 128.6 213.3 128.6C257.1 128.6 297 145.1 327.2 172.2C328.4 168.4 329.3 164.4 329.9 160.4C298.4 134 257.7 118 213.3 118Z" fill="white"/>
<path fill-rule="evenodd" clip-rule="evenodd" d="M192.3 128.2C194.1 128 195.3 126.2 195 124.3C194.8 122.4 193.1 120.9 191.4 121.2C189.6 121.4 188.4 123.2 188.7 125.1C189 127 190.6 128.4 192.3 128.2ZM192.2 126.9C193.2 126.8 193.9 125.7 193.8 124.5C193.6 123.3 192.7 122.4 191.7 122.5C190.7 122.6 190 123.7 190.1 124.9C190.2 126.1 191.1 127 192.2 126.9Z" fill="#3D9244"/>
<path fill-rule="evenodd" clip-rule="evenodd" d="M198.1 127.501L199.4 127.401L199.2 124.801L202 124.601C203.2 124.501 204.2 123.401 204.1 122.201C204 121.001 203 120.001 201.7 120.101L197.6 120.401L198.1 127.501ZM199.2 123.501L201.9 123.301C202.4 123.301 202.8 122.801 202.7 122.301C202.7 121.801 202.2 121.401 201.7 121.501L199 121.701L199.2 123.501Z" fill="#3D9244"/>
<path d="M204.1 127.101C204 126.101 203.9 123.801 202.4 124.001L200.5 124.101C202.7 123.901 202.9 126.201 202.9 127.201" fill="#3D9244"/>
<path fill-rule="evenodd" clip-rule="evenodd" d="M207.1 127L210.5 126.9C212.2 126.9 213.5 125.5 213.5 123.8V122.8C213.5 121.1 212.1 119.8 210.4 119.8L207 119.9L207.1 127ZM208.4 125.6H210.3C211.4 125.6 212.2 124.7 212.2 123.6V123C212.2 121.9 211.3 121.1 210.2 121.1H208.3L208.4 125.6Z" fill="#3D9244"/>
<path d="M216.2 126.9L222.6 127.1V125.8L217.4 125.6L217.5 123.8L221.6 123.9V122.7L217.5 122.6L217.6 121.1L222.5 121.3V120L216.4 119.8L216.2 126.9Z" fill="#3D9244"/>
<path d="M225.2 127.3L226.4 127.4L226.8 122.5L227.8 127.5L228.9 127.6L230.8 122.9L230.3 127.7L231.6 127.8L232.2 120.7L230.4 120.6L228.6 125.3L227.6 120.3L225.8 120.2L225.2 127.3Z" fill="#3D9244"/>
<path d="M239.9 128.901L245.2 129.801L245.4 128.601L241.3 127.901L241.6 126.301L244.9 126.901L245.1 125.701L241.8 125.101L242 124.001L245.9 124.701L246.1 123.501L241 122.601L239.9 128.901Z" fill="#3D9244"/>
<path fill-rule="evenodd" clip-rule="evenodd" d="M253.4 131.6L254.7 131.9L255.4 129.4L258.2 130.1C259.4 130.4 260.6 129.7 260.9 128.5C261.2 127.3 260.5 126.1 259.3 125.8L255.4 124.8L253.4 131.6ZM255.7 128.1L258.4 128.8C258.9 128.9 259.4 128.6 259.5 128.1C259.6 127.6 259.3 127.1 258.8 127L256.1 126.3L255.7 128.1Z" fill="#3D9244"/>
<path fill-rule="evenodd" clip-rule="evenodd" d="M262.1 133.9L263.4 134.3L264.2 131.8L266.9 132.7C268.1 133.1 269.3 132.4 269.7 131.2C270.1 130 269.4 128.8 268.2 128.4L264.3 127.2L262.1 133.9ZM264.6 130.5L267.2 131.3C267.7 131.5 268.2 131.2 268.4 130.7C268.6 130.2 268.3 129.7 267.8 129.5L265.2 128.7L264.6 130.5Z" fill="#3D9244"/>
<path d="M267.9 135.7C268.2 134.7 268.9 132.6 267.4 132.1L265.6 131.5C267.7 132.2 267.1 134.3 266.7 135.3" fill="#3D9244"/>
<path fill-rule="evenodd" clip-rule="evenodd" d="M273.7 137.8C275.4 138.4 277.3 137.4 277.9 135.6C278.6 133.8 277.8 131.8 276.1 131.1C274.4 130.5 272.5 131.5 271.9 133.3C271.3 135.2 272.1 137.2 273.7 137.8ZM274.2 136.6C275.2 137 276.3 136.3 276.7 135.2C277.1 134 276.7 132.8 275.7 132.4C274.7 132 273.6 132.7 273.2 133.8C272.8 135 273.2 136.2 274.2 136.6Z" fill="#3D9244"/>
<path fill-rule="evenodd" clip-rule="evenodd" d="M282.1 141.2C283.7 141.9 285.7 141 286.5 139.2C287.3 137.4 286.6 135.4 285 134.7C283.4 134 281.4 134.9 280.6 136.7C279.8 138.4 280.5 140.5 282.1 141.2ZM282.6 140C283.5 140.4 284.7 139.8 285.2 138.7C285.7 137.6 285.3 136.3 284.4 135.9C283.5 135.5 282.3 136.1 281.8 137.2C281.3 138.3 281.7 139.6 282.6 140Z" fill="#3D9244"/>
<path d="M284 138.101L286.5 139.201L286 140.101L283.6 139.001L284 138.101Z" fill="#3D9244"/>
<path d="M285.5 138.8L286.5 139.2L285 142.5L284.1 142.1L285.5 138.8Z" fill="#3D9244"/>
<path fill-rule="evenodd" clip-rule="evenodd" d="M287.4 143.6L288.6 144.2L289.8 141.8L292.3 143.1C293.4 143.7 294.8 143.2 295.3 142.1C295.8 141 295.4 139.7 294.3 139.1L290.7 137.3L287.4 143.6ZM290.4 140.6L292.9 141.8C293.4 142 293.9 141.8 294.1 141.4C294.3 140.9 294.1 140.4 293.7 140.2L291.2 139L290.4 140.6Z" fill="#3D9244"/>
<path d="M292.8 146.3C293.3 145.4 294.2 143.4 292.9 142.7L291.2 141.8C293.2 142.8 292.2 144.8 291.7 145.7" fill="#3D9244"/>
<path d="M295.5 147.7L301 150.8L301.7 149.7L297.2 147.1L298.1 145.5L301.6 147.5L302.2 146.5L298.7 144.5L299.4 143.2L303.6 145.6L304.3 144.5L299 141.5L295.5 147.7Z" fill="#3D9244"/>
<path d="M305.8 151.1C305.4 151.7 305.8 152.4 306.7 152.9C307.6 153.4 308.1 153.4 308.4 153C309.2 151.8 304.7 150 306.1 147.9C307.3 146.1 309.3 147.5 310.1 148C310.9 148.5 312.1 149.8 311.1 151.2L309.8 150.4C310.2 149.8 309.8 149.1 309.1 148.7C308.5 148.3 307.9 148.1 307.5 148.7C306.8 149.7 311.2 151.6 309.9 153.7C308.9 155.3 307.2 154.6 306 153.8C305 153.2 303.5 151.7 304.5 150.2L305.8 151.1Z" fill="#3D9244"/>
<path d="M313.5 156.2C313.1 156.8 313.4 157.5 314.3 158.1C315.1 158.7 315.7 158.7 316 158.3C316.8 157.1 312.4 155.1 313.9 153.1C315.2 151.3 317.2 152.9 317.9 153.4C318.6 153.9 319.8 155.3 318.8 156.7L317.5 155.8C317.9 155.2 317.5 154.5 316.9 154.1C316.3 153.6 315.7 153.4 315.3 154C314.6 154.9 318.9 157.1 317.4 159.1C316.3 160.6 314.6 159.8 313.5 159.1C312.6 158.4 311.2 156.9 312.2 155.4L313.5 156.2Z" fill="#3D9244"/>
<path fill-rule="evenodd" clip-rule="evenodd" d="M320.7 164.4C322.1 165.5 324.2 165.1 325.4 163.6C326.6 162.1 326.5 159.9 325.1 158.8C323.7 157.7 321.6 158 320.4 159.6C319.2 161.1 319.3 163.3 320.7 164.4ZM321.5 163.3C322.3 163.9 323.6 163.7 324.4 162.7C325.2 161.7 325.1 160.4 324.3 159.8C323.5 159.2 322.2 159.4 321.4 160.4C320.7 161.4 320.7 162.7 321.5 163.3Z" fill="#3D9244"/>
<path d="M195.1 133.4L194.1 136.4L195.6 136.9L195.1 133.4Z" fill="white"/>
<path d="M195.1 133.4L196 136.4L194.5 136.9L195.1 133.4Z" fill="white"/>
<path d="M198.1 135.601H194.9V137.201L198.1 135.601Z" fill="white"/>
<path d="M198.1 135.601L195.5 137.501L194.6 136.201L198.1 135.601Z" fill="white"/>
<path d="M192 135.601L194.6 137.501L195.5 136.201L192 135.601Z" fill="white"/>
<path d="M192 135.601H195.2V137.201L192 135.601Z" fill="white"/>
<path d="M196.9 139.201L195.9 136.101L194.4 136.601L196.9 139.201Z" fill="white"/>
<path d="M196.9 139.2L194.3 137.3L195.3 136L196.9 139.2Z" fill="white"/>
<path d="M193.2 139.2L195.8 137.3L194.8 136L193.2 139.2Z" fill="white"/>
<path d="M193.2 139.201L194.2 136.101L195.7 136.601L193.2 139.201Z" fill="white"/>
<path d="M201.7 164.8L200.7 167.8L202.2 168.3L201.7 164.8Z" fill="white"/>
<path d="M201.7 164.8L202.6 167.8L201.1 168.3L201.7 164.8Z" fill="white"/>
<path d="M204.7 167H201.5V168.6L204.7 167Z" fill="white"/>
<path d="M204.7 167L202.1 168.9L201.2 167.6L204.7 167Z" fill="white"/>
<path d="M198.6 167L201.2 168.9L202.1 167.6L198.6 167Z" fill="white"/>
<path d="M198.6 167H201.8V168.6L198.6 167Z" fill="white"/>
<path d="M203.5 170.6L202.5 167.5L201 168L203.5 170.6Z" fill="white"/>
<path d="M203.5 170.6L200.9 168.7L201.9 167.4L203.5 170.6Z" fill="white"/>
<path d="M199.8 170.6L202.4 168.7L201.4 167.4L199.8 170.6Z" fill="white"/>
<path d="M199.8 170.6L200.8 167.5L202.3 168L199.8 170.6Z" fill="white"/>
<path d="M192.5 172.5L191.9 174.6L192.9 174.9L192.5 172.5Z" fill="white"/>
<path d="M192.5 172.5L193.2 174.6L192.2 174.9L192.5 172.5Z" fill="white"/>
<path d="M194.5 174H192.4V175.1L194.5 174Z" fill="white"/>
<path d="M194.5 174L192.8 175.3L192.2 174.4L194.5 174Z" fill="white"/>
<path d="M190.5 174L192.2 175.3L192.8 174.4L190.5 174Z" fill="white"/>
<path d="M190.5 174H192.6V175.1L190.5 174Z" fill="white"/>
<path d="M193.8 176.4L193.1 174.4L192.1 174.7L193.8 176.4Z" fill="white"/>
<path d="M193.8 176.4L192 175.1L192.7 174.3L193.8 176.4Z" fill="white"/>
<path d="M191.3 176.4L193 175.1L192.4 174.3L191.3 176.4Z" fill="white"/>
<path d="M191.3 176.4L191.9 174.4L192.9 174.7L191.3 176.4Z" fill="white"/>
<path d="M209 161.9L208.5 163.3L209.2 163.6L209 161.9Z" fill="white"/>
<path d="M209 161.9L209.4 163.3L208.7 163.6L209 161.9Z" fill="white"/>
<path d="M210.4 162.9H208.9V163.7L210.4 162.9Z" fill="white"/>
<path d="M210.4 162.9L209.2 163.8L208.7 163.2L210.4 162.9Z" fill="white"/>
<path d="M207.5 162.9L208.7 163.8L209.2 163.2L207.5 162.9Z" fill="white"/>
<path d="M207.5 162.9H209V163.7L207.5 162.9Z" fill="white"/>
<path d="M209.9 164.6L209.4 163.2L208.7 163.4L209.9 164.6Z" fill="white"/>
<path d="M209.9 164.601L208.6 163.701L209.1 163.101L209.9 164.601Z" fill="white"/>
<path d="M208.1 164.601L209.3 163.701L208.9 163.101L208.1 164.601Z" fill="white"/>
<path d="M208.1 164.6L208.5 163.2L209.3 163.4L208.1 164.6Z" fill="white"/>
<path d="M217.2 172.7L216.4 175.3L217.6 175.7L217.2 172.7Z" fill="white"/>
<path d="M217.2 172.7L218 175.3L216.8 175.7L217.2 172.7Z" fill="white"/>
<path d="M219.7 174.601H217.1V175.901L219.7 174.601Z" fill="white"/>
<path d="M219.7 174.601L217.6 176.101L216.8 175.101L219.7 174.601Z" fill="white"/>
<path d="M214.7 174.601L216.8 176.101L217.6 175.101L214.7 174.601Z" fill="white"/>
<path d="M214.7 174.601H217.3V175.901L214.7 174.601Z" fill="white"/>
<path d="M218.8 177.5L217.9 175L216.7 175.4L218.8 177.5Z" fill="white"/>
<path d="M218.8 177.5L216.6 176L217.4 174.9L218.8 177.5Z" fill="white"/>
<path d="M215.6 177.5L217.8 176L217 174.9L215.6 177.5Z" fill="white"/>
<path d="M215.6 177.5L216.5 175L217.7 175.4L215.6 177.5Z" fill="white"/>
<path d="M215 180.101L214.1 182.701L215.4 183.101L215 180.101Z" fill="white"/>
<path d="M215 180.101L215.8 182.701L214.5 183.101L215 180.101Z" fill="white"/>
<path d="M217.5 182H214.8V183.3L217.5 182Z" fill="white"/>
<path d="M217.5 182L215.3 183.6L214.6 182.5L217.5 182Z" fill="white"/>
<path d="M212.4 182L214.6 183.6L215.4 182.5L212.4 182Z" fill="white"/>
<path d="M212.4 182H215.1V183.3L212.4 182Z" fill="white"/>
<path d="M216.5 185L215.7 182.4L214.4 182.8L216.5 185Z" fill="white"/>
<path d="M216.5 185L214.4 183.4L215.2 182.3L216.5 185Z" fill="white"/>
<path d="M213.4 185L215.6 183.4L214.8 182.3L213.4 185Z" fill="white"/>
<path d="M213.4 185L214.2 182.4L215.5 182.8L213.4 185Z" fill="white"/>
<path d="M279.2 123.601L278.2 126.701L279.7 127.201L279.2 123.601Z" fill="white"/>
<path d="M279.2 123.601L280.2 126.701L278.6 127.201L279.2 123.601Z" fill="white"/>
<path d="M282.2 125.8H279V127.4L282.2 125.8Z" fill="white"/>
<path d="M282.2 125.8L279.6 127.7L278.7 126.4L282.2 125.8Z" fill="white"/>
<path d="M276.1 125.8L278.7 127.7L279.7 126.4L276.1 125.8Z" fill="white"/>
<path d="M276.1 125.8H279.3V127.4L276.1 125.8Z" fill="white"/>
<path d="M281 129.4L280.1 126.4L278.5 126.9L281 129.4Z" fill="white"/>
<path d="M281 129.4L278.5 127.5L279.4 126.2L281 129.4Z" fill="white"/>
<path d="M277.3 129.4L279.9 127.5L278.9 126.2L277.3 129.4Z" fill="white"/>
<path d="M277.3 129.4L278.3 126.4L279.8 126.9L277.3 129.4Z" fill="white"/>
<path d="M308.3 173L307.3 176.1L308.9 176.5L308.3 173Z" fill="white"/>
<path d="M308.3 173L309.3 176.1L307.8 176.5L308.3 173Z" fill="white"/>
<path d="M311.4 175.2H308.2V176.8L311.4 175.2Z" fill="white"/>
<path d="M311.4 175.2L308.8 177.1L307.8 175.8L311.4 175.2Z" fill="white"/>
<path d="M305.3 175.2L307.9 177.1L308.8 175.8L305.3 175.2Z" fill="white"/>
<path d="M305.3 175.2H308.5V176.8L305.3 175.2Z" fill="white"/>
<path d="M310.2 178.8L309.2 175.8L307.7 176.2L310.2 178.8Z" fill="white"/>
<path d="M310.2 178.801L307.6 176.901L308.6 175.601L310.2 178.801Z" fill="white"/>
<path d="M306.4 178.801L309 176.901L308.1 175.601L306.4 178.801Z" fill="white"/>
<path d="M306.4 178.8L307.4 175.8L308.9 176.2L306.4 178.8Z" fill="white"/>
<path d="M318.7 174.8L318 176.8L319 177.1L318.7 174.8Z" fill="white"/>
<path d="M318.7 174.8L319.3 176.8L318.3 177.1L318.7 174.8Z" fill="white"/>
<path d="M320.7 176.3H318.6V177.3L320.7 176.3Z" fill="white"/>
<path d="M320.7 176.3L319 177.5L318.4 176.7L320.7 176.3Z" fill="white"/>
<path d="M316.6 176.3L318.4 177.5L319 176.7L316.6 176.3Z" fill="white"/>
<path d="M316.6 176.3H318.8V177.3L316.6 176.3Z" fill="white"/>
<path d="M319.9 178.601L319.3 176.601L318.3 176.901L319.9 178.601Z" fill="white"/>
<path d="M319.9 178.6L318.2 177.4L318.8 176.5L319.9 178.6Z" fill="white"/>
<path d="M317.4 178.6L319.1 177.4L318.5 176.5L317.4 178.6Z" fill="white"/>
<path d="M317.4 178.601L318.1 176.601L319.1 176.901L317.4 178.601Z" fill="white"/>
<path d="M311.4 180.101L310.5 182.701L311.8 183.101L311.4 180.101Z" fill="white"/>
<path d="M311.4 180.101L312.2 182.701L310.9 183.101L311.4 180.101Z" fill="white"/>
<path d="M313.9 182H311.2V183.3L313.9 182Z" fill="white"/>
<path d="M313.9 182L311.7 183.6L311 182.5L313.9 182Z" fill="white"/>
<path d="M308.8 182L311 183.6L311.8 182.5L308.8 182Z" fill="white"/>
<path d="M308.8 182H311.5V183.3L308.8 182Z" fill="white"/>
<path d="M312.9 185L312.1 182.4L310.8 182.8L312.9 185Z" fill="white"/>
<path d="M312.9 185L310.8 183.4L311.6 182.3L312.9 185Z" fill="white"/>
<path d="M309.8 185L312 183.4L311.2 182.3L309.8 185Z" fill="white"/>
<path d="M309.8 185L310.6 182.4L311.9 182.8L309.8 185Z" fill="white"/>
<path d="M293.4 195.8L292.6 198.3L293.8 198.7L293.4 195.8Z" fill="white"/>
<path d="M293.4 195.8L294.2 198.3L292.9 198.7L293.4 195.8Z" fill="white"/>
<path d="M295.9 197.601H293.3V199.001L295.9 197.601Z" fill="white"/>
<path d="M295.9 197.601L293.8 199.201L293 198.101L295.9 197.601Z" fill="white"/>
<path d="M290.9 197.601L293 199.201L293.8 198.101L290.9 197.601Z" fill="white"/>
<path d="M290.9 197.601H293.5V199.001L290.9 197.601Z" fill="white"/>
<path d="M295 200.601L294.1 198.101L292.9 198.501L295 200.601Z" fill="white"/>
<path d="M295 200.6L292.8 199L293.6 198L295 200.6Z" fill="white"/>
<path d="M291.8 200.6L294 199L293.2 198L291.8 200.6Z" fill="white"/>
<path d="M291.8 200.601L292.6 198.101L293.9 198.501L291.8 200.601Z" fill="white"/>
<path d="M293.3 203.8L292.6 205.9L293.6 206.2L293.3 203.8Z" fill="white"/>
<path d="M293.3 203.8L293.9 205.9L292.9 206.2L293.3 203.8Z" fill="white"/>
<path d="M295.3 205.3H293.2V206.4L295.3 205.3Z" fill="white"/>
<path d="M295.3 205.3L293.6 206.6L293 205.7L295.3 205.3Z" fill="white"/>
<path d="M291.3 205.3L293 206.6L293.6 205.7L291.3 205.3Z" fill="white"/>
<path d="M291.3 205.3H293.4V206.4L291.3 205.3Z" fill="white"/>
<path d="M294.5 207.7L293.9 205.7L292.9 206L294.5 207.7Z" fill="white"/>
<path d="M294.5 207.701L292.8 206.401L293.4 205.601L294.5 207.701Z" fill="white"/>
<path d="M292 207.701L293.8 206.401L293.1 205.601L292 207.701Z" fill="white"/>
<path d="M292 207.7L292.7 205.7L293.7 206L292 207.7Z" fill="white"/>
<path d="M300.8 190.4L300.1 192.5L301.2 192.8L300.8 190.4Z" fill="white"/>
<path d="M300.8 190.4L301.5 192.5L300.4 192.8L300.8 190.4Z" fill="white"/>
<path d="M302.8 191.9H300.7V193L302.8 191.9Z" fill="white"/>
<path d="M302.8 191.9L301.1 193.2L300.5 192.3L302.8 191.9Z" fill="white"/>
<path d="M298.8 191.9L300.5 193.2L301.1 192.3L298.8 191.9Z" fill="white"/>
<path d="M298.8 191.9H300.9V193L298.8 191.9Z" fill="white"/>
<path d="M302.1 194.3L301.4 192.3L300.4 192.6L302.1 194.3Z" fill="white"/>
<path d="M302.1 194.3L300.3 193L301 192.2L302.1 194.3Z" fill="white"/>
<path d="M299.6 194.3L301.3 193L300.6 192.2L299.6 194.3Z" fill="white"/>
<path d="M299.6 194.3L300.2 192.3L301.2 192.6L299.6 194.3Z" fill="white"/>
<path d="M306.8 186.101L306 188.701L307.2 189.101L306.8 186.101Z" fill="white"/>
<path d="M306.8 186.101L307.6 188.701L306.4 189.101L306.8 186.101Z" fill="white"/>
<path d="M309.3 188H306.7V189.3L309.3 188Z" fill="white"/>
<path d="M309.3 188L307.2 189.5L306.4 188.5L309.3 188Z" fill="white"/>
<path d="M304.3 188L306.4 189.5L307.2 188.5L304.3 188Z" fill="white"/>
<path d="M304.3 188H306.9V189.3L304.3 188Z" fill="white"/>
<path d="M308.4 190.9L307.5 188.4L306.3 188.8L308.4 190.9Z" fill="white"/>
<path d="M308.4 190.9L306.2 189.4L307 188.3L308.4 190.9Z" fill="white"/>
<path d="M305.2 190.9L307.4 189.4L306.6 188.3L305.2 190.9Z" fill="white"/>
<path d="M305.2 190.9L306.1 188.4L307.3 188.8L305.2 190.9Z" fill="white"/>
<path d="M293.1 189L292.4 191L293.4 191.4L293.1 189Z" fill="white"/>
<path d="M293.1 189L293.7 191L292.7 191.4L293.1 189Z" fill="white"/>
<path d="M295.1 190.5H293V191.5L295.1 190.5Z" fill="white"/>
<path d="M295.1 190.5L293.4 191.7L292.8 190.9L295.1 190.5Z" fill="white"/>
<path d="M291.1 190.5L292.8 191.7L293.4 190.9L291.1 190.5Z" fill="white"/>
<path d="M291.1 190.5H293.2V191.5L291.1 190.5Z" fill="white"/>
<path d="M294.3 192.9L293.7 190.8L292.7 191.1L294.3 192.9Z" fill="white"/>
<path d="M294.3 192.9L292.6 191.6L293.2 190.8L294.3 192.9Z" fill="white"/>
<path d="M291.8 192.9L293.6 191.6L292.9 190.8L291.8 192.9Z" fill="white"/>
<path d="M291.8 192.9L292.5 190.8L293.5 191.1L291.8 192.9Z" fill="white"/>
<path d="M227.6 150.4L226.7 152.9L228 153.3L227.6 150.4Z" fill="white"/>
<path d="M227.6 150.4L228.4 152.9L227.1 153.3L227.6 150.4Z" fill="white"/>
<path d="M230.1 152.2H227.4V153.5L230.1 152.2Z" fill="white"/>
<path d="M230.1 152.2L227.9 153.8L227.2 152.7L230.1 152.2Z" fill="white"/>
<path d="M225 152.2L227.2 153.8L228 152.7L225 152.2Z" fill="white"/>
<path d="M225 152.2H227.7V153.5L225 152.2Z" fill="white"/>
<path d="M229.1 155.2L228.3 152.7L227 153.1L229.1 155.2Z" fill="white"/>
<path d="M229.1 155.2L227 153.6L227.8 152.5L229.1 155.2Z" fill="white"/>
<path d="M226 155.2L228.1 153.6L227.4 152.5L226 155.2Z" fill="white"/>
<path d="M226 155.2L226.8 152.7L228.1 153.1L226 155.2Z" fill="white"/>
<path d="M276.3 144.101L275.7 146.101L276.7 146.501L276.3 144.101Z" fill="white"/>
<path d="M276.3 144.101L277 146.101L276 146.501L276.3 144.101Z" fill="white"/>
<path d="M278.3 145.601H276.2V146.601L278.3 145.601Z" fill="white"/>
<path d="M278.3 145.601L276.6 146.801L276 146.001L278.3 145.601Z" fill="white"/>
<path d="M274.3 145.601L276 146.801L276.6 146.001L274.3 145.601Z" fill="white"/>
<path d="M274.3 145.601H276.4V146.601L274.3 145.601Z" fill="white"/>
<path d="M277.6 148L276.9 145.9L275.9 146.3L277.6 148Z" fill="white"/>
<path d="M277.6 148L275.8 146.7L276.5 145.8L277.6 148Z" fill="white"/>
<path d="M275.1 148L276.8 146.7L276.2 145.8L275.1 148Z" fill="white"/>
<path d="M275.1 148L275.7 145.9L276.7 146.3L275.1 148Z" fill="white"/>
<path d="M256 180.3L255 183.4L256.5 183.9L256 180.3Z" fill="white"/>
<path d="M256 180.3L257 183.4L255.5 183.9L256 180.3Z" fill="white"/>
<path d="M259 182.5H255.8V184.1L259 182.5Z" fill="white"/>
<path d="M259 182.5L256.5 184.4L255.5 183.1L259 182.5Z" fill="white"/>
<path d="M253 182.5L255.5 184.4L256.5 183.1L253 182.5Z" fill="white"/>
<path d="M253 182.5H256.2V184.1L253 182.5Z" fill="white"/>
<path d="M257.9 186.101L256.9 183.101L255.4 183.601L257.9 186.101Z" fill="white"/>
<path d="M257.9 186.1L255.3 184.2L256.2 182.9L257.9 186.1Z" fill="white"/>
<path d="M254.1 186.1L256.7 184.2L255.8 182.9L254.1 186.1Z" fill="white"/>
<path d="M254.1 186.101L255.1 183.101L256.6 183.601L254.1 186.101Z" fill="white"/>
<path d="M264.6 166L263.8 168.5L265.1 169L264.6 166Z" fill="white"/>
<path d="M264.6 166L265.5 168.5L264.2 169L264.6 166Z" fill="white"/>
<path d="M267.2 167.9H264.5V169.2L267.2 167.9Z" fill="white"/>
<path d="M267.2 167.9L265 169.4L264.2 168.3L267.2 167.9Z" fill="white"/>
<path d="M262.1 167.9L264.3 169.4L265 168.3L262.1 167.9Z" fill="white"/>
<path d="M262.1 167.9H264.8V169.2L262.1 167.9Z" fill="white"/>
<path d="M266.2 170.8L265.4 168.3L264.1 168.7L266.2 170.8Z" fill="white"/>
<path d="M266.2 170.8L264 169.3L264.8 168.2L266.2 170.8Z" fill="white"/>
<path d="M263.1 170.8L265.2 169.3L264.4 168.2L263.1 170.8Z" fill="white"/>
<path d="M263.1 170.8L263.9 168.3L265.2 168.7L263.1 170.8Z" fill="white"/>
<path d="M256 159.3L255.2 161.9L256.4 162.3L256 159.3Z" fill="white"/>
<path d="M256 159.3L256.8 161.9L255.6 162.3L256 159.3Z" fill="white"/>
<path d="M258.5 161.2H255.9V162.5L258.5 161.2Z" fill="white"/>
<path d="M258.5 161.2L256.4 162.7L255.6 161.6L258.5 161.2Z" fill="white"/>
<path d="M253.5 161.2L255.6 162.7L256.4 161.6L253.5 161.2Z" fill="white"/>
<path d="M253.5 161.2H256.1V162.5L253.5 161.2Z" fill="white"/>
<path d="M257.6 164.101L256.7 161.601L255.5 162.001L257.6 164.101Z" fill="white"/>
<path d="M257.6 164.1L255.4 162.6L256.2 161.5L257.6 164.1Z" fill="white"/>
<path d="M254.4 164.1L256.6 162.6L255.8 161.5L254.4 164.1Z" fill="white"/>
<path d="M254.4 164.101L255.3 161.601L256.5 162.001L254.4 164.101Z" fill="white"/>
<path d="M248.5 166.601L247.8 168.601L248.8 168.901L248.5 166.601Z" fill="white"/>
<path d="M248.5 166.601L249.1 168.601L248.1 168.901L248.5 166.601Z" fill="white"/>
<path d="M250.5 168H248.4V169.1L250.5 168Z" fill="white"/>
<path d="M250.5 168L248.8 169.3L248.2 168.4L250.5 168Z" fill="white"/>
<path d="M246.5 168L248.2 169.3L248.8 168.4L246.5 168Z" fill="white"/>
<path d="M246.5 168H248.6V169.1L246.5 168Z" fill="white"/>
<path d="M249.7 170.4L249.1 168.4L248.1 168.7L249.7 170.4Z" fill="white"/>
<path d="M249.7 170.4L248 169.2L248.6 168.3L249.7 170.4Z" fill="white"/>
<path d="M247.2 170.4L249 169.2L248.3 168.3L247.2 170.4Z" fill="white"/>
<path d="M247.2 170.4L247.9 168.4L248.9 168.7L247.2 170.4Z" fill="white"/>
<path d="M252.2 172.3L251.8 173.8L252.5 174L252.2 172.3Z" fill="white"/>
<path d="M252.2 172.3L252.7 173.8L252 174L252.2 172.3Z" fill="white"/>
<path d="M253.7 173.4H252.2V174.2L253.7 173.4Z" fill="white"/>
<path d="M253.7 173.4L252.5 174.3L252 173.7L253.7 173.4Z" fill="white"/>
<path d="M250.8 173.4L252 174.3L252.5 173.7L250.8 173.4Z" fill="white"/>
<path d="M250.8 173.4H252.3V174.2L250.8 173.4Z" fill="white"/>
<path d="M253.1 175.101L252.7 173.601L251.9 173.901L253.1 175.101Z" fill="white"/>
<path d="M253.1 175.101L251.9 174.201L252.4 173.601L253.1 175.101Z" fill="white"/>
<path d="M251.3 175.101L252.6 174.201L252.1 173.601L251.3 175.101Z" fill="white"/>
<path d="M251.3 175.101L251.8 173.601L252.5 173.901L251.3 175.101Z" fill="white"/>
<path d="M278.4 197.601L277.5 200.201L278.8 200.601L278.4 197.601Z" fill="white"/>
<path d="M278.4 197.601L279.2 200.201L277.9 200.601L278.4 197.601Z" fill="white"/>
<path d="M280.9 199.4H278.2V200.8L280.9 199.4Z" fill="white"/>
<path d="M280.9 199.4L278.7 201L277.9 199.9L280.9 199.4Z" fill="white"/>
<path d="M275.8 199.4L278 201L278.8 199.9L275.8 199.4Z" fill="white"/>
<path d="M275.8 199.4H278.5V200.8L275.8 199.4Z" fill="white"/>
<path d="M279.9 202.4L279.1 199.9L277.8 200.3L279.9 202.4Z" fill="white"/>
<path d="M279.9 202.4L277.8 200.9L278.5 199.8L279.9 202.4Z" fill="white"/>
<path d="M276.8 202.4L278.9 200.9L278.2 199.8L276.8 202.4Z" fill="white"/>
<path d="M276.8 202.4L277.6 199.9L278.9 200.3L276.8 202.4Z" fill="white"/>
<path d="M284.7 191.5L284.1 193.6L285.1 193.9L284.7 191.5Z" fill="white"/>
<path d="M284.7 191.5L285.4 193.6L284.4 193.9L284.7 191.5Z" fill="white"/>
<path d="M286.8 193H284.6V194.1L286.8 193Z" fill="white"/>
<path d="M286.8 193L285.1 194.3L284.4 193.4L286.8 193Z" fill="white"/>
<path d="M282.7 193L284.4 194.3L285.1 193.4L282.7 193Z" fill="white"/>
<path d="M282.7 193H284.9V194.1L282.7 193Z" fill="white"/>
<path d="M286 195.4L285.3 193.4L284.3 193.7L286 195.4Z" fill="white"/>
<path d="M286 195.4L284.3 194.2L284.9 193.3L286 195.4Z" fill="white"/>
<path d="M283.5 195.4L285.2 194.2L284.6 193.3L283.5 195.4Z" fill="white"/>
<path d="M283.5 195.4L284.2 193.4L285.2 193.7L283.5 195.4Z" fill="white"/>
<path d="M272.5 189.7L271.8 191.7L272.8 192.1L272.5 189.7Z" fill="white"/>
<path d="M272.5 189.7L273.1 191.7L272.1 192.1L272.5 189.7Z" fill="white"/>
<path d="M274.5 191.2H272.4V192.3L274.5 191.2Z" fill="white"/>
<path d="M274.5 191.2L272.8 192.4L272.1 191.6L274.5 191.2Z" fill="white"/>
<path d="M270.4 191.2L272.2 192.4L272.8 191.6L270.4 191.2Z" fill="white"/>
<path d="M270.4 191.2H272.6V192.3L270.4 191.2Z" fill="white"/>
<path d="M273.7 193.6L273.1 191.5L272 191.9L273.7 193.6Z" fill="white"/>
<path d="M273.7 193.6L272 192.3L272.6 191.5L273.7 193.6Z" fill="white"/>
<path d="M271.2 193.6L272.9 192.3L272.3 191.5L271.2 193.6Z" fill="white"/>
<path d="M271.2 193.6L271.9 191.5L272.9 191.9L271.2 193.6Z" fill="white"/>
<path d="M226 186.4L225.1 189.4L226.6 190L226 186.4Z" fill="white"/>
<path d="M226 186.4L227 189.4L225.5 190L226 186.4Z" fill="white"/>
<path d="M229.1 188.601H225.9V190.201L229.1 188.601Z" fill="white"/>
<path d="M229.1 188.601L226.5 190.501L225.6 189.201L229.1 188.601Z" fill="white"/>
<path d="M223 188.601L225.6 190.501L226.5 189.201L223 188.601Z" fill="white"/>
<path d="M223 188.601H226.2V190.201L223 188.601Z" fill="white"/>
<path d="M227.9 192.2L226.9 189.2L225.4 189.7L227.9 192.2Z" fill="white"/>
<path d="M227.9 192.2L225.3 190.3L226.3 189L227.9 192.2Z" fill="white"/>
<path d="M224.1 192.2L226.7 190.3L225.8 189L224.1 192.2Z" fill="white"/>
<path d="M224.1 192.2L225.1 189.2L226.7 189.7L224.1 192.2Z" fill="white"/>
<path d="M256 207.3L255.7 208.4L256.2 208.5L256 207.3Z" fill="white"/>
<path d="M256 207.3L256.3 208.4L255.8 208.5L256 207.3Z" fill="white"/>
<path d="M257 208.101H255.9V208.601L257 208.101Z" fill="white"/>
<path d="M257 208.101L256.2 208.701L255.8 208.301L257 208.101Z" fill="white"/>
<path d="M255 208.101L255.9 208.701L256.2 208.301L255 208.101Z" fill="white"/>
<path d="M255 208.101H256.1V208.601L255 208.101Z" fill="white"/>
<path d="M256.6 209.3L256.3 208.3L255.8 208.4L256.6 209.3Z" fill="white"/>
<path d="M256.6 209.3L255.8 208.6L256.1 208.2L256.6 209.3Z" fill="white"/>
<path d="M255.4 209.3L256.2 208.6L255.9 208.2L255.4 209.3Z" fill="white"/>
<path d="M255.4 209.3L255.7 208.3L256.2 208.4L255.4 209.3Z" fill="white"/>
</svg>
