<svg width="300" height="300" viewBox="0 0 300 300" fill="none" xmlns="http://www.w3.org/2000/svg">
<circle cx="150" cy="150" r="150" fill="#005EA6"/>
<path d="M168.538 88.5793C181.393 92.0295 193.115 98.8002 202.527 108.212C211.939 117.624 218.71 129.346 222.16 142.201" stroke="white" stroke-width="15.1581" stroke-linecap="round" stroke-linejoin="round"/>
<path d="M160.675 117.853C168.407 119.907 175.458 123.968 181.115 129.624C186.772 135.281 190.833 142.332 192.886 150.064" stroke="white" stroke-width="15.1581" stroke-linecap="round" stroke-linejoin="round"/>
<path d="M112.737 150.599C120.536 166.705 133.56 179.694 149.685 187.452C150.875 188.015 152.19 188.259 153.503 188.159C154.815 188.06 156.079 187.62 157.17 186.884L180.854 171.062C181.901 170.353 183.11 169.92 184.369 169.804C185.628 169.688 186.896 169.893 188.054 170.399L232.392 189.442C233.907 190.072 235.173 191.184 235.995 192.604C236.816 194.025 237.148 195.677 236.939 197.305C235.534 208.273 230.18 218.353 221.88 225.66C213.58 232.966 202.902 236.998 191.844 237C157.672 237 124.9 223.425 100.737 199.263C76.5746 175.1 63 142.328 63 108.156C63.0025 97.0985 67.0341 86.4204 74.3404 78.1201C81.6467 69.8199 91.727 64.4663 102.695 63.061C104.323 62.8519 105.975 63.1837 107.396 64.0054C108.816 64.8271 109.928 66.0931 110.558 67.6084L129.601 112.041C130.096 113.181 130.303 114.425 130.204 115.664C130.105 116.903 129.703 118.099 129.032 119.146L113.211 143.209C112.507 144.298 112.093 145.549 112.01 146.842C111.928 148.136 112.178 149.43 112.737 150.599Z" stroke="white" stroke-width="15.1581" stroke-linecap="round" stroke-linejoin="round"/>
</svg>
