<svg width="488" height="500" viewBox="0 0 488 500" fill="none" xmlns="http://www.w3.org/2000/svg">
<path d="M1.49997 182.8C6.49997 252.7 180.4 468.7 247.5 488.5C279 497.8 312.2 502.5 344.8 498.5C367.4 495.7 394.8 486.4 415.8 471.4L300.4 329.4C294 334.8 289.2 341.8 287.4 350.1C284.8 361.8 287.1 376.6 277.4 383.7C270.4 388.8 260.7 386.9 252.4 384.4C211.7 372 107.7 242.7 104.3 200.3C103.6 191.7 103.8 181.8 110.3 176C119.3 168 133.2 173.5 145.2 173.4C153.3 173.4 160.9 170.4 167.4 165.7L52.2 23.8999C34 41.0999 19.9 64.8999 12.6 85.5999C1.59997 116.6 -0.800027 150.1 1.49997 182.8Z" fill="#1554AD"/>
<path d="M179.4 73.0999C171 50.2999 159.5 27.4999 139.9 12.9999C112.3 -7.40014 84.9 -1.60014 62.2 15.4999L176.9 156.7C182.1 150.2 185.9 142.3 187.7 134.2C192.1 113.8 186.6 92.5999 179.4 73.0999Z" fill="#1554AD"/>
<path d="M335 317.1C327 317.1 318.9 319 311.6 322.4L426 463.3C446.2 444.9 456.6 420 443 389.7C433 367.5 413.2 351.4 392.7 338.3C375.3 327.1 355.8 317.1 335 317.1Z" fill="#1554AD"/>
<path d="M312.5 7.3001C311.8 7.2001 311.2 7.2001 310.5 7.1001L306.4 46.9001C307.1 47.0001 307.7 47.0001 308.4 47.1001C393.3 55.9001 455.3 132.1 446.5 217L486.2 221.1C497.3 114.1 419.5 18.4001 312.5 7.3001Z" fill="#1554AD"/>
<path d="M304.3 86.8001C303.6 86.7001 303 86.7001 302.3 86.6001L298.2 126.3C298.9 126.4 299.5 126.4 300.2 126.5C341.3 130.7 371.3 167.6 367 208.7L406.7 212.8C413.3 149.9 367.3 93.3001 304.3 86.8001Z" fill="#1554AD"/>
<path d="M257.7 197.5C255.7 216.7 269.7 233.9 288.9 235.9C308.1 237.9 325.3 223.9 327.3 204.7C329.3 185.5 315.3 168.3 296.1 166.3C276.9 164.3 259.7 178.3 257.7 197.5Z" fill="#1554AD"/>
</svg>
